<svg width="160" height="24" viewBox="0 0 160 24" fill="none" xmlns="http://www.w3.org/2000/svg">
<rect x="0.5" y="0.25" width="35.5" height="23.5" stroke="black" stroke-opacity="0.3" stroke-width="0.5"/>
<g clip-path="url(#clip0_2010_3401)">
<path d="M33 11.0003V16H31.3124V12.4928H29.6876V16H28V11H33V11.0003Z" fill="black"/>
<path fill-rule="evenodd" clip-rule="evenodd" d="M24.0384 16C25.7379 16 27 14.9025 27 13.2387C27 11.6283 26.0689 10.5827 24.5127 10.5827C23.7945 10.5827 23.2019 10.8489 22.7555 11.3084C22.8621 10.3588 23.6245 9.66555 24.4639 9.66555C24.6577 9.66555 26.1162 9.6623 26.1162 9.6623L26.9409 8C26.9409 8 25.1098 8.0439 24.2586 8.0439C22.3137 8.07959 21 9.94155 21 12.203C21 14.8376 22.2813 16 24.0384 16ZM24.0487 12.0551C24.6798 12.0551 25.1173 12.4918 25.1173 13.2385C25.1173 13.9105 24.7285 14.4642 24.0487 14.4658C23.3985 14.4658 22.961 13.9527 22.961 13.2499C22.961 12.503 23.3985 12.0551 24.0487 12.0551Z" fill="black"/>
<path d="M20.2146 14.1069C20.2146 14.1069 19.7718 14.3791 19.1104 14.4306C18.3501 14.4547 17.6726 13.9426 17.6726 13.0327C17.6726 12.1452 18.2704 11.6365 19.0913 11.6365C19.5946 11.6365 20.2604 12.0085 20.2604 12.0085C20.2604 12.0085 20.7476 11.0551 21 10.5783C20.5379 10.2048 19.9223 10 19.2064 10C17.3995 10 16 11.2563 16 13.0214C16 14.8091 17.3154 16.0362 19.2064 15.9992C19.7349 15.9782 20.4641 15.7803 20.9085 15.4758L20.2146 14.1069Z" fill="black"/>
<path d="M3 8.04688L4.64169 11.0773V12.9258L3.00192 15.9502L3 8.04688Z" fill="#5B57A2"/>
<path d="M9.30341 9.97478L10.8417 9.00108L13.99 8.99805L9.30341 11.963V9.97478Z" fill="#D90751"/>
<path d="M9.29473 8.02948L9.30343 12.0416L7.6579 10.9975V5L9.29473 8.02948Z" fill="#FAB718"/>
<path d="M13.99 8.99828L10.8416 9.00132L9.29473 8.02948L7.6579 5L13.99 8.99828Z" fill="#ED6F26"/>
<path d="M9.30343 15.967V14.0204L7.6579 12.9961L7.6588 18.9995L9.30343 15.967Z" fill="#63B22F"/>
<path d="M10.8379 15.0022L4.64158 11.0773L3 8.04688L13.9834 14.9982L10.8379 15.0022Z" fill="#1487C9"/>
<path d="M7.65894 19.0003L9.30334 15.9678L10.8378 15.003L13.9833 14.999L7.65894 19.0003Z" fill="#017F36"/>
<path d="M3.00189 15.9507L7.67131 12.9967L6.10147 12.002L4.64166 12.9262L3.00189 15.9507Z" fill="#984995"/>
</g>
<rect x="41.5" y="0.25" width="35.5" height="23.5" stroke="black" stroke-opacity="0.3" stroke-width="0.5"/>
<path fill-rule="evenodd" clip-rule="evenodd" d="M46.9699 8.00138L47.0116 8.00081C47.3072 7.99574 48.0296 7.98336 48.3444 9.05314C48.5672 9.81039 48.9222 11.0508 49.4092 12.7744H49.6076C50.1299 10.9573 50.4887 9.71686 50.684 9.05314C50.9983 7.98523 51.7557 7.9957 52.1229 8.00078C52.1463 8.0011 52.1681 8.0014 52.1881 8.0014L54.7668 8.0014V16.0788H52.1385V11.3186H51.9623L50.4971 16.0788H48.5197L47.0545 11.3151H46.8783V16.0788H44.25V8.0014L46.9699 8.00138ZM58.541 8.00142V12.7651H58.7507L60.5329 8.84796C60.8789 8.06844 61.6162 8.00142 61.6162 8.00142H64.1596V16.0788H61.4764V11.3151H61.2668L59.5195 15.2322C59.1735 16.0082 58.4012 16.0788 58.4012 16.0788H55.8578V8.00142H58.541ZM70.5812 13.6728C71.8825 13.6728 73.0579 12.9079 73.4322 11.84H65.2158V16.0789H67.7674V13.6728H70.5812Z" fill="#40A548"/>
<path d="M70.7075 8.00127H65.0852C65.219 9.79957 66.757 11.339 68.3491 11.339H73.6127C73.9164 9.84443 72.8707 8.00127 70.7075 8.00127Z" fill="#1291D0"/>
<rect x="82.5" y="0.25" width="35.5" height="23.5" stroke="black" stroke-opacity="0.3" stroke-width="0.5"/>
<path d="M98.0721 15.9091H95.6753L97.1744 7.15863H99.5711L98.0721 15.9091Z" fill="#15195A"/>
<path d="M106.761 7.37254C106.288 7.19549 105.538 7 104.611 7C102.244 7 100.578 8.19149 100.567 9.89496C100.548 11.1518 101.761 11.8498 102.668 12.2689C103.595 12.6971 103.91 12.9766 103.91 13.3583C103.901 13.9445 103.161 14.2147 102.471 14.2147C101.514 14.2147 101.001 14.0754 100.222 13.7493L99.9067 13.6095L99.5713 15.5738C100.133 15.8155 101.169 16.0301 102.244 16.0395C104.759 16.0395 106.396 14.8664 106.416 13.0511C106.425 12.055 105.785 11.2917 104.404 10.668C103.566 10.2676 103.052 9.99765 103.052 9.58799C103.062 9.21557 103.487 8.83412 104.433 8.83412C105.212 8.81544 105.785 8.99225 106.218 9.16918L106.435 9.26209L106.761 7.37254Z" fill="#15195A"/>
<path fill-rule="evenodd" clip-rule="evenodd" d="M111.052 7.15869H112.906L114.84 15.909H112.621C112.621 15.909 112.403 14.9036 112.335 14.5964H109.257C109.168 14.829 108.754 15.909 108.754 15.909H106.239L109.8 7.88472C110.046 7.31681 110.481 7.15869 111.052 7.15869ZM110.905 10.3609C110.905 10.3609 110.146 12.3065 109.949 12.8092H111.941C111.842 12.3717 111.388 10.2771 111.388 10.2771L111.221 9.52312C111.15 9.71727 111.048 9.9842 110.979 10.1642C110.933 10.2863 110.901 10.3684 110.905 10.3609Z" fill="#15195A"/>
<path d="M85.2895 7.15862H89.1456C89.6683 7.17705 90.0925 7.3353 90.2305 7.89417L91.0681 11.9124C91.0684 11.9134 91.0687 11.9144 91.069 11.9154L91.3255 13.1256L93.6727 7.15862H96.2071L92.4398 15.8998H89.9053L87.769 8.29656C87.0319 7.88971 86.1906 7.56249 85.25 7.33542L85.2895 7.15862Z" fill="#15195A"/>
<rect x="123.5" y="0.25" width="35.5" height="23.5" stroke="black" stroke-opacity="0.3" stroke-width="0.5"/>
<path d="M144.34 18.1102H137.915V6.57007H144.34V18.1102Z" fill="#FF5F00"/>
<path d="M138.326 12.3393C138.326 9.99832 139.423 7.91304 141.13 6.56921C139.881 5.58653 138.305 5 136.592 5C132.537 5 129.25 8.28586 129.25 12.3393C129.25 16.3927 132.537 19.6786 136.592 19.6786C138.305 19.6786 139.881 19.0921 141.13 18.1094C139.423 16.7655 138.326 14.6803 138.326 12.3393Z" fill="#EB001B"/>
<path d="M153.005 12.3393C153.005 16.3928 149.718 19.6786 145.662 19.6786C143.949 19.6786 142.373 19.0921 141.124 18.1094C142.832 16.7656 143.929 14.6803 143.929 12.3393C143.929 9.99834 142.832 7.91307 141.124 6.56923C142.373 5.58655 143.949 5.00003 145.662 5.00003C149.718 5.00003 153.005 8.28589 153.005 12.3393Z" fill="#F79E1B"/>
<defs>
<clipPath id="clip0_2010_3401">
<rect width="30" height="14" fill="white" transform="translate(3 5)"/>
</clipPath>
</defs>
</svg>
