<svg width="410" height="89" viewBox="0 0 410 89" fill="none" xmlns="http://www.w3.org/2000/svg">
<path d="M2.94556 0H8.45093L31.2244 33.717V0H35.293V40.6458H31.2244L7.01416 4.90112V40.6458H2.94556V0Z" fill="white"/>
<path d="M45.8606 27.0569C45.9412 28.901 46.5275 30.6242 47.6196 32.2266C48.7118 33.82 50.1217 35.0911 51.8494 36.04C53.5771 36.98 55.3585 37.45 57.1936 37.45C58.6975 37.45 60.1611 37.1859 61.5845 36.6577C63.0168 36.1206 64.2924 35.3507 65.4114 34.3481C66.5393 33.3455 67.3942 32.1818 67.9761 30.8569H72.2058C71.5076 32.8532 70.411 34.6525 68.916 36.2549C67.4211 37.8483 65.6799 39.0971 63.6926 40.0012C61.7053 40.9054 59.6688 41.3574 57.583 41.3574C54.7005 41.3574 52.0463 40.6592 49.6204 39.2627C47.2034 37.8662 45.2922 35.9684 43.8867 33.5693C42.4902 31.1613 41.792 28.516 41.792 25.6335C41.792 22.7779 42.4902 20.1416 43.8867 17.7246C45.2832 15.2987 47.181 13.3875 49.5801 11.991C51.9792 10.5945 54.6065 9.89624 57.4622 9.89624C59.8165 9.89624 62.0455 10.411 64.1492 11.4404C66.2528 12.4609 68.0611 13.8932 69.574 15.7373C70.863 17.3397 71.7537 19.0316 72.2461 20.813C72.7474 22.5854 73.0294 24.6667 73.092 27.0569H45.8606ZM69.0234 23.3777C68.6743 21.6052 67.9403 19.9939 66.8213 18.5437C65.7023 17.0846 64.3237 15.9298 62.6855 15.0793C61.0563 14.2289 59.3331 13.8037 57.5159 13.8037C55.6628 13.8037 53.8993 14.2155 52.2253 15.0391C50.5603 15.8537 49.1638 16.995 48.0359 18.4631C46.9169 19.9223 46.1918 21.5605 45.8606 23.3777H69.0234Z" fill="white"/>
<path d="M75.6433 10.5542H79.9268L89.3933 35.7446L96.3757 14.2468H99.7327L106.661 35.7446L116.289 10.5542H120.573L109.132 40.6458H104.459L98.0273 20.6787L91.7029 40.6458H87.03L75.6433 10.5542Z" fill="white"/>
<path d="M181.843 31.8506C180.492 34.8136 178.522 37.1411 175.935 38.833C173.348 40.5159 170.443 41.3574 167.22 41.3574C164.266 41.3574 161.523 40.6816 158.989 39.3298C156.465 37.9692 154.464 36.0848 152.987 33.6768C151.51 31.2687 150.771 28.5697 150.771 25.5798C150.771 22.6884 151.514 20.0431 153 17.644C154.495 15.236 156.496 13.3427 159.003 11.9641C161.509 10.5855 164.19 9.89624 167.046 9.89624C169.159 9.89624 171.213 10.2946 173.209 11.0913C175.214 11.888 176.973 13.0294 178.486 14.5154C180.008 16.0014 181.145 17.7246 181.897 19.6851H177.332C176.66 18.5303 175.783 17.5053 174.7 16.6101C173.625 15.706 172.43 15.0122 171.115 14.5288C169.799 14.0454 168.465 13.8037 167.113 13.8037C164.929 13.8037 162.892 14.314 161.003 15.3345C159.115 16.346 157.615 17.747 156.505 19.5374C155.395 21.3277 154.84 23.324 154.84 25.5261C154.84 27.6835 155.364 29.6842 156.411 31.5283C157.467 33.3634 158.909 34.8092 160.735 35.8655C162.561 36.9218 164.575 37.45 166.777 37.45C169.069 37.45 171.065 36.9889 172.766 36.0669C174.467 35.1359 175.989 33.7305 177.332 31.8506H181.843Z" fill="white"/>
<path d="M217.789 25.4053C217.789 28.2161 217.091 30.8525 215.695 33.3142C214.298 35.776 212.396 37.7319 209.988 39.1821C207.589 40.6323 204.984 41.3574 202.173 41.3574C199.389 41.3574 196.779 40.6637 194.344 39.2761C191.919 37.8796 189.985 35.9863 188.544 33.5962C187.102 31.1971 186.382 28.5966 186.382 25.7947C186.382 22.9301 187.08 20.2804 188.477 17.8455C189.882 15.4016 191.798 13.468 194.224 12.0447C196.65 10.6124 199.299 9.89624 202.173 9.89624C204.232 9.89624 206.206 10.3035 208.094 11.1182C209.983 11.9238 211.657 13.0518 213.116 14.502C214.585 15.9521 215.73 17.6217 216.554 19.5105C217.378 21.3993 217.789 23.3643 217.789 25.4053ZM190.45 25.7947C190.45 27.9073 190.979 29.8588 192.035 31.6492C193.1 33.4395 194.528 34.8539 196.318 35.8923C198.118 36.9307 200.069 37.45 202.173 37.45C204.348 37.45 206.318 36.9084 208.081 35.8252C209.854 34.742 211.237 33.2739 212.23 31.4209C213.224 29.5589 213.721 27.5537 213.721 25.4053C213.721 22.111 212.548 19.3449 210.203 17.1069C209.102 16.0596 207.857 15.2494 206.47 14.6765C205.082 14.0946 203.65 13.8037 202.173 13.8037C200.015 13.8037 198.033 14.3453 196.224 15.4285C194.425 16.5116 193.011 17.9797 191.981 19.8328C190.961 21.6768 190.45 23.6641 190.45 25.7947Z" fill="white"/>
<path d="M223.577 0H227.645V40.6458H223.577V0Z" fill="white"/>
<path d="M234.587 0H238.656V40.6458H234.587V0Z" fill="white"/>
<path d="M248.512 27.0569C248.593 28.901 249.179 30.6242 250.271 32.2266C251.363 33.82 252.773 35.0911 254.501 36.04C256.228 36.98 258.01 37.45 259.845 37.45C261.349 37.45 262.812 37.1859 264.236 36.6577C265.668 36.1206 266.944 35.3507 268.063 34.3481C269.191 33.3455 270.046 32.1818 270.627 30.8569H274.857C274.159 32.8532 273.062 34.6525 271.567 36.2549C270.072 37.8483 268.331 39.0971 266.344 40.0012C264.357 40.9054 262.32 41.3574 260.234 41.3574C257.352 41.3574 254.698 40.6592 252.272 39.2627C249.855 37.8662 247.944 35.9684 246.538 33.5693C245.142 31.1613 244.443 28.516 244.443 25.6335C244.443 22.7779 245.142 20.1416 246.538 17.7246C247.935 15.2987 249.832 13.3875 252.231 11.991C254.631 10.5945 257.258 9.89624 260.114 9.89624C262.468 9.89624 264.697 10.411 266.801 11.4404C268.904 12.4609 270.712 13.8932 272.225 15.7373C273.514 17.3397 274.405 19.0316 274.897 20.813C275.399 22.5854 275.681 24.6667 275.743 27.0569H248.512ZM271.675 23.3777C271.326 21.6052 270.592 19.9939 269.473 18.5437C268.354 17.0846 266.975 15.9298 265.337 15.0793C263.708 14.2289 261.984 13.8037 260.167 13.8037C258.314 13.8037 256.551 14.2155 254.877 15.0391C253.212 15.8537 251.815 16.995 250.687 18.4631C249.568 19.9223 248.843 21.5605 248.512 23.3777H271.675Z" fill="white"/>
<path d="M311.287 31.8506C309.935 34.8136 307.965 37.1411 305.378 38.833C302.791 40.5159 299.886 41.3574 296.664 41.3574C293.71 41.3574 290.966 40.6816 288.433 39.3298C285.908 37.9692 283.907 36.0848 282.43 33.6768C280.953 31.2687 280.215 28.5697 280.215 25.5798C280.215 22.6884 280.958 20.0431 282.444 17.644C283.939 15.236 285.94 13.3427 288.446 11.9641C290.953 10.5855 293.634 9.89624 296.489 9.89624C298.602 9.89624 300.656 10.2946 302.653 11.0913C304.658 11.888 306.417 13.0294 307.93 14.5154C309.452 16.0014 310.588 17.7246 311.34 19.6851H306.775C306.104 18.5303 305.226 17.5053 304.143 16.6101C303.069 15.706 301.874 15.0122 300.558 14.5288C299.242 14.0454 297.908 13.8037 296.556 13.8037C294.372 13.8037 292.336 14.314 290.447 15.3345C288.558 16.346 287.059 17.747 285.948 19.5374C284.838 21.3277 284.283 23.324 284.283 25.5261C284.283 27.6835 284.807 29.6842 285.854 31.5283C286.911 33.3634 288.352 34.8092 290.178 35.8655C292.004 36.9218 294.019 37.45 296.221 37.45C298.512 37.45 300.509 36.9889 302.209 36.0669C303.91 35.1359 305.432 33.7305 306.775 31.8506H311.287Z" fill="white"/>
<path d="M320.444 14.2468H314.174V10.5542H320.444V0H324.513V10.5542H331.495V14.2468H324.513V40.6458H320.444V14.2468Z" fill="white"/>
<path d="M335.618 10.5542H339.686V40.6458H335.618V10.5542ZM335.618 0H339.686V6.92871H335.618V0Z" fill="white"/>
<path d="M376.881 25.4053C376.881 28.2161 376.183 30.8525 374.786 33.3142C373.39 35.776 371.488 37.7319 369.08 39.1821C366.681 40.6323 364.076 41.3574 361.265 41.3574C358.481 41.3574 355.871 40.6637 353.436 39.2761C351.01 37.8796 349.077 35.9863 347.635 33.5962C346.194 31.1971 345.474 28.5966 345.474 25.7947C345.474 22.9301 346.172 20.2804 347.568 17.8455C348.974 15.4016 350.889 13.468 353.315 12.0447C355.741 10.6124 358.391 9.89624 361.265 9.89624C363.324 9.89624 365.297 10.3035 367.186 11.1182C369.075 11.9238 370.749 13.0518 372.208 14.502C373.676 15.9521 374.822 17.6217 375.646 19.5105C376.469 21.3993 376.881 23.3643 376.881 25.4053ZM349.542 25.7947C349.542 27.9073 350.07 29.8588 351.127 31.6492C352.192 33.4395 353.62 34.8539 355.41 35.8923C357.209 36.9307 359.161 37.45 361.265 37.45C363.44 37.45 365.409 36.9084 367.173 35.8252C368.945 34.742 370.328 33.2739 371.322 31.4209C372.316 29.5589 372.812 27.5537 372.812 25.4053C372.812 22.111 371.64 19.3449 369.294 17.1069C368.193 16.0596 366.949 15.2494 365.562 14.6765C364.174 14.0946 362.742 13.8037 361.265 13.8037C359.107 13.8037 357.124 14.3453 355.316 15.4285C353.517 16.5116 352.102 17.9797 351.073 19.8328C350.052 21.6768 349.542 23.6641 349.542 25.7947Z" fill="white"/>
<path d="M382.668 10.5542H386.522V14.9048C388.894 11.5658 392.01 9.89624 395.868 9.89624C397.9 9.89624 399.856 10.3304 401.736 11.1987C403.616 12.0671 405.218 13.3024 406.543 14.9048C407.608 16.2476 408.333 17.7022 408.718 19.2688C409.103 20.8264 409.296 22.6705 409.296 24.801V40.6458H405.214V24.801C405.214 23.2882 405.093 21.9588 404.851 20.813C404.618 19.6672 404.153 18.6153 403.455 17.6575C402.577 16.4132 401.463 15.4598 400.111 14.7974C398.759 14.1349 397.291 13.8037 395.707 13.8037C394.292 13.8037 392.914 14.1349 391.571 14.7974C390.237 15.4508 389.159 16.3505 388.335 17.4963C387.637 18.4273 387.203 19.4165 387.032 20.4639C386.871 21.5112 386.773 22.9569 386.737 24.801V40.6458H382.668V10.5542Z" fill="white"/>
<path d="M17.9512 73.2717C17.4453 72.5061 16.8027 71.8476 16.0234 71.2961C15.2487 70.7402 14.4033 70.3209 13.4873 70.0383C12.5758 69.7512 11.6553 69.6077 10.7256 69.6077C9.19889 69.6077 7.7679 70.0087 6.43262 70.8108C5.10189 71.6083 4.04232 72.6747 3.25391 74.01C2.46549 75.3407 2.07129 76.7467 2.07129 78.2278C2.07129 79.8 2.47233 81.2629 3.27441 82.6165C4.08105 83.9654 5.16341 85.0364 6.52148 85.8293C7.87956 86.6223 9.3265 87.0188 10.8623 87.0188C12.2523 87.0188 13.5898 86.6747 14.875 85.9866C16.1602 85.2984 17.2129 84.3824 18.0332 83.2385H20.3301C19.7331 84.3824 18.9401 85.3896 17.9512 86.26C16.9668 87.1305 15.8617 87.8072 14.6357 88.2903C13.4098 88.7688 12.152 89.0081 10.8623 89.0081C9.37207 89.0081 7.96615 88.7369 6.64453 88.1946C5.32292 87.6523 4.16081 86.8912 3.1582 85.9114C2.16016 84.927 1.38314 83.774 0.827148 82.4524C0.275716 81.1262 0 79.718 0 78.2278C0 76.3092 0.480794 74.5364 1.44238 72.9094C2.40397 71.2825 3.70508 69.995 5.3457 69.0471C6.98633 68.0946 8.77051 67.6184 10.6982 67.6184C12.9359 67.6184 14.9229 68.1972 16.6592 69.3547C17.3929 69.815 18.1084 70.4075 18.8057 71.1321C19.5075 71.8567 19.9883 72.5699 20.248 73.2717H17.9512Z" fill="white"/>
<path d="M44.6455 78.2551C44.6455 80.2057 44.151 82.0081 43.1621 83.6624C42.1777 85.3167 40.8424 86.6223 39.1562 87.5793C37.4746 88.5318 35.6562 89.0081 33.7012 89.0081C31.7917 89.0081 29.9961 88.5341 28.3145 87.5862C26.6328 86.6383 25.2884 85.3508 24.2812 83.7239C23.2786 82.0924 22.7773 80.3173 22.7773 78.3987C22.7773 76.439 23.2673 74.6366 24.2471 72.9915C25.2314 71.3417 26.5645 70.0383 28.2461 69.0813C29.9277 68.1243 31.7461 67.6458 33.7012 67.6458C35.6243 67.6458 37.4268 68.1197 39.1084 69.0676C40.7946 70.011 42.139 71.2961 43.1416 72.9231C44.1442 74.55 44.6455 76.3274 44.6455 78.2551ZM33.7285 69.6077C32.138 69.6122 30.6592 70.011 29.292 70.804C27.9248 71.5924 26.8424 72.661 26.0449 74.01C25.2474 75.359 24.8486 76.8219 24.8486 78.3987C24.8486 79.9618 25.2565 81.4019 26.0723 82.719C26.8926 84.036 27.9886 85.0819 29.3604 85.8567C30.7321 86.6314 32.1882 87.0188 33.7285 87.0188C34.918 87.0188 36.0527 86.7932 37.1328 86.342C38.2174 85.8909 39.1676 85.2642 39.9834 84.4622C40.7992 83.6555 41.4349 82.719 41.8906 81.6526C42.3464 80.5862 42.5742 79.4537 42.5742 78.2551C42.5742 76.6965 42.1686 75.2564 41.3574 73.9348C40.5508 72.6132 39.4639 71.5673 38.0967 70.7971C36.7341 70.0224 35.278 69.635 33.7285 69.635V69.6077Z" fill="white"/>
<path d="M48.0088 67.9534H51.2012L58.7617 85.5627L66.2949 67.9534H69.4873V88.6458H67.416V70.2502L59.6299 88.6458H57.8662L50.0801 70.2502V88.6458H48.0088V67.9534Z" fill="white"/>
<path d="M73.7393 67.9534H75.8105V88.6458H73.7393V67.9534Z" fill="white"/>
<path d="M80.083 67.9534H82.8857L94.4795 85.1184V67.9534H96.5508V88.6458H94.4795L82.1543 70.4485V88.6458H80.083V67.9534Z" fill="white"/>
<path d="M121.953 79.0959C121.862 80.4723 121.507 81.7711 120.887 82.9924C120.267 84.2092 119.451 85.2688 118.439 86.1711C117.428 87.0689 116.279 87.7662 114.994 88.2629C113.709 88.7597 112.378 89.0081 111.002 89.0081C109.539 89.0081 108.138 88.7346 106.798 88.1877C105.458 87.6363 104.266 86.8639 103.223 85.8704C102.184 84.8769 101.372 83.7193 100.789 82.3977C100.206 81.0761 99.9141 79.677 99.9141 78.2004C99.9141 76.8469 100.199 75.5139 100.769 74.2014C101.343 72.8889 102.122 71.7496 103.106 70.7834C105.244 68.6734 107.876 67.6184 111.002 67.6184C112.105 67.6184 113.169 67.7665 114.194 68.0627C115.224 68.3544 116.186 68.7942 117.079 69.3821C117.845 69.8834 118.578 70.5077 119.28 71.2551C119.982 71.998 120.451 72.7362 120.688 73.47H118.337C117.631 72.2805 116.601 71.3394 115.247 70.6467C113.898 69.954 112.483 69.6077 111.002 69.6077C109.858 69.6077 108.753 69.8036 107.687 70.1956C106.625 70.5875 105.677 71.1663 104.843 71.9319C103.986 72.7112 103.296 73.6659 102.771 74.7961C102.247 75.9264 101.985 77.0702 101.985 78.2278C101.985 79.4674 102.225 80.6249 102.703 81.7004C103.182 82.7714 103.845 83.7079 104.692 84.51C105.545 85.3075 106.52 85.925 107.618 86.3625C108.716 86.8 109.874 87.0188 111.091 87.0188C112.317 87.0188 113.506 86.7659 114.659 86.26C115.817 85.7542 116.822 85.0432 117.674 84.1272C118.526 83.2066 119.121 82.1562 119.458 80.9758H107.898V79.0959H121.953Z" fill="white"/>
<path d="M139.932 82.8489C139.954 83.6054 140.146 84.3004 140.506 84.9338C140.87 85.5673 141.367 86.0732 141.996 86.4514C142.625 86.8297 143.318 87.0188 144.074 87.0188C144.858 87.0188 145.576 86.8456 146.228 86.4993C146.879 86.1484 147.396 85.6607 147.779 85.0364C148.167 84.4075 148.36 83.7057 148.36 82.9309C148.36 82.3704 148.23 81.828 147.971 81.304C147.715 80.7799 147.369 80.3424 146.932 79.9915C146.499 79.6405 146.041 79.3717 145.558 79.1848C145.075 78.998 144.468 78.8111 143.739 78.6243C142.855 78.3873 142.142 78.1663 141.6 77.9612C141.057 77.7515 140.556 77.4485 140.096 77.052C138.938 76.0676 138.359 74.7802 138.359 73.1897C138.359 72.1005 138.621 71.1344 139.146 70.2913C139.67 69.4436 140.378 68.7874 141.271 68.3225C142.169 67.8531 143.158 67.6184 144.238 67.6184C145.268 67.6184 146.218 67.8645 147.089 68.3567C147.964 68.8489 148.654 69.5234 149.16 70.3801C149.671 71.2369 149.926 72.1825 149.926 73.217H147.772C147.727 72.5243 147.535 71.9023 147.198 71.3508C146.866 70.7994 146.424 70.371 145.872 70.0657C145.321 69.7603 144.694 69.6077 143.992 69.6077C143.34 69.6077 142.741 69.7717 142.194 70.0999C141.647 70.4234 141.217 70.8632 140.902 71.4192C140.588 71.9706 140.431 72.5699 140.431 73.217C140.431 73.9872 140.618 74.607 140.991 75.0764C141.365 75.5458 141.83 75.9013 142.386 76.1428C142.946 76.3844 143.657 76.6236 144.519 76.8606C145.608 77.1614 146.412 77.412 146.932 77.6125C147.451 77.8131 147.973 78.1503 148.497 78.6243C149.108 79.1484 149.582 79.7955 149.919 80.5657C150.261 81.3359 150.432 82.1357 150.432 82.9651C150.432 84.0771 150.142 85.0956 149.563 86.0208C148.985 86.9459 148.212 87.675 147.246 88.2083C146.28 88.7415 145.241 89.0081 144.129 89.0081C142.967 89.0081 141.894 88.746 140.909 88.2219C139.929 87.6978 139.152 86.9641 138.578 86.0208C138.004 85.0774 137.717 84.0201 137.717 82.8489H139.932Z" fill="white"/>
<path d="M174.146 78.2551C174.146 80.2057 173.651 82.0081 172.662 83.6624C171.678 85.3167 170.342 86.6223 168.656 87.5793C166.975 88.5318 165.156 89.0081 163.201 89.0081C161.292 89.0081 159.496 88.5341 157.814 87.5862C156.133 86.6383 154.788 85.3508 153.781 83.7239C152.779 82.0924 152.277 80.3173 152.277 78.3987C152.277 76.439 152.767 74.6366 153.747 72.9915C154.731 71.3417 156.064 70.0383 157.746 69.0813C159.428 68.1243 161.246 67.6458 163.201 67.6458C165.124 67.6458 166.927 68.1197 168.608 69.0676C170.295 70.011 171.639 71.2961 172.642 72.9231C173.644 74.55 174.146 76.3274 174.146 78.2551ZM163.229 69.6077C161.638 69.6122 160.159 70.011 158.792 70.804C157.425 71.5924 156.342 72.661 155.545 74.01C154.747 75.359 154.349 76.8219 154.349 78.3987C154.349 79.9618 154.757 81.4019 155.572 82.719C156.393 84.036 157.489 85.0819 158.86 85.8567C160.232 86.6314 161.688 87.0188 163.229 87.0188C164.418 87.0188 165.553 86.7932 166.633 86.342C167.717 85.8909 168.668 85.2642 169.483 84.4622C170.299 83.6555 170.935 82.719 171.391 81.6526C171.846 80.5862 172.074 79.4537 172.074 78.2551C172.074 76.6965 171.669 75.2564 170.857 73.9348C170.051 72.6132 168.964 71.5673 167.597 70.7971C166.234 70.0224 164.778 69.635 163.229 69.635V69.6077Z" fill="white"/>
<path d="M198.481 78.2551C198.481 80.2057 197.987 82.0081 196.998 83.6624C196.014 85.3167 194.678 86.6223 192.992 87.5793C191.311 88.5318 189.492 89.0081 187.537 89.0081C185.628 89.0081 183.832 88.5341 182.15 87.5862C180.469 86.6383 179.124 85.3508 178.117 83.7239C177.115 82.0924 176.613 80.3173 176.613 78.3987C176.613 76.439 177.103 74.6366 178.083 72.9915C179.067 71.3417 180.4 70.0383 182.082 69.0813C183.764 68.1243 185.582 67.6458 187.537 67.6458C189.46 67.6458 191.263 68.1197 192.944 69.0676C194.631 70.011 195.975 71.2961 196.978 72.9231C197.98 74.55 198.481 76.3274 198.481 78.2551ZM187.564 69.6077C185.974 69.6122 184.495 70.011 183.128 70.804C181.761 71.5924 180.678 72.661 179.881 74.01C179.083 75.359 178.685 76.8219 178.685 78.3987C178.685 79.9618 179.092 81.4019 179.908 82.719C180.729 84.036 181.825 85.0819 183.196 85.8567C184.568 86.6314 186.024 87.0188 187.564 87.0188C188.754 87.0188 189.889 86.7932 190.969 86.342C192.053 85.8909 193.004 85.2642 193.819 84.4622C194.635 83.6555 195.271 82.719 195.727 81.6526C196.182 80.5862 196.41 79.4537 196.41 78.2551C196.41 76.6965 196.005 75.2564 195.193 73.9348C194.387 72.6132 193.3 71.5673 191.933 70.7971C190.57 70.0224 189.114 69.635 187.564 69.635V69.6077Z" fill="white"/>
<path d="M201.845 67.9534H204.647L216.241 85.1184V67.9534H218.312V88.6458H216.241L203.916 70.4485V88.6458H201.845V67.9534Z" fill="white"/>
</svg>
