<svg width="90" height="89" viewBox="0 0 90 89" fill="none" xmlns="http://www.w3.org/2000/svg">
<path d="M85.1331 56.4809L81.0434 55.3664L81.1481 54.9828L81.9617 55.2048C82.502 55.3516 82.8354 55.2939 83.0499 55.1244C83.2679 54.9521 83.3813 54.6534 83.4684 54.333L83.5656 53.9767L80.0443 53.0168C79.8992 52.9783 79.7741 52.9109 79.67 52.829C79.6328 52.7995 79.5981 52.7686 79.5661 52.7356L78.9708 54.9196C78.8192 55.476 78.8177 55.9135 78.9873 56.2538C79.1558 56.5922 79.5012 56.8459 80.0441 57.0372L81.1331 57.4235L81.005 57.893L77.4465 56.6789L77.5796 56.303L78.0508 56.4649L78.0518 56.4451C78.0566 56.3515 78.0778 56.2471 78.1073 56.1395L79.665 50.4237L80.0488 50.5281L79.8937 51.0964C79.8238 51.3537 79.7956 51.4947 79.8353 51.5652C79.876 51.6358 80.0119 51.683 80.2693 51.7534L87.5973 53.7504C87.8547 53.8204 87.9961 53.8486 88.0662 53.8084C88.1369 53.7684 88.1844 53.6323 88.2545 53.3746L88.4091 52.8075L88.7927 52.9121L87.4162 57.9624C87.3868 58.07 87.352 58.1707 87.3094 58.2533L87.2999 58.2711L87.7881 58.3712L87.7121 58.7615L84.0261 58.0154L84.1617 57.5189L85.1675 57.7319C85.8033 57.8678 86.264 57.8183 86.5974 57.5993C86.932 57.3793 87.1525 56.9813 87.3046 56.4234L87.7052 54.9538C87.6612 54.9658 87.6155 54.975 87.5683 54.9813C87.4365 54.9993 87.2949 54.9933 87.1503 54.9541L84.06 54.1113L83.9629 54.4679C83.8755 54.788 83.8191 55.1024 83.9167 55.3614C84.0126 55.6156 84.267 55.8331 84.8067 55.9799L85.3743 56.1347L85.2694 56.5183L85.1331 56.4809Z" fill="white"/>
<path d="M75.4081 62.2066L77.8968 57.2842L78.2521 57.4637L77.9867 57.9884C77.8695 58.2204 77.8301 58.3547 77.8698 58.4426C77.913 58.538 78.0576 58.6242 78.302 58.7478L85.0119 62.1399C85.2497 62.2601 85.3793 62.3147 85.452 62.2893C85.5261 62.2635 85.5985 62.1379 85.7196 61.8982L85.9851 61.3728L86.3404 61.5531L84.744 64.7103L84.3889 64.5312L84.6541 64.0061C84.7757 63.7651 84.8356 63.6288 84.8127 63.5501C84.7907 63.4742 84.6718 63.4005 84.4354 63.2814L77.7482 59.9005C77.6138 59.8326 77.505 59.7419 77.4193 59.6408C77.3888 59.6051 77.3611 59.5676 77.3364 59.5294L76.6836 60.8199C76.4177 61.3466 76.2476 61.8078 76.2699 62.2049C76.2908 62.5839 76.4953 62.9173 76.9743 63.2115L78.1784 63.9471L77.9357 64.4266L74.5603 62.4109L74.7813 62.064L75.3317 62.3907C75.3462 62.3387 75.3706 62.2803 75.4081 62.2066Z" fill="white"/>
<path fill-rule="evenodd" clip-rule="evenodd" d="M73.5567 73.0356L77.9559 67.4479L77.9467 67.4409C76.7923 66.5322 75.6998 66.0902 74.7344 66.0762C73.7507 66.0615 72.8939 66.494 72.2359 67.3298C71.7255 67.9781 71.4074 68.6648 71.2778 69.3503C71.1459 70.047 71.2081 70.7457 71.4598 71.4032L71.5165 71.55L71.0148 71.6809L70.9701 71.5613C70.6932 70.8176 70.6282 70.0283 70.7818 69.2394C70.9314 68.4715 71.288 67.7044 71.8564 66.9825C72.7191 65.8864 73.8651 65.2372 75.0844 65.0971C76.2611 64.9622 77.5042 65.3009 78.6252 66.1689L78.6644 66.1991C79.7934 67.0883 80.4354 68.2126 80.5705 69.4022C80.7038 70.5769 80.3417 71.8115 79.4657 72.942L79.4353 72.9812C78.7086 73.9041 77.711 74.492 76.6567 74.647C75.6498 74.7946 74.5922 74.5479 73.6703 73.8222L73.6124 73.7765C73.5045 73.6879 73.4441 73.5618 73.4328 73.4297C73.4218 73.2978 73.4605 73.158 73.5502 73.0441L73.5567 73.0356ZM79.8293 70.1376C79.6982 69.339 79.203 68.5444 78.3502 67.7796L74.569 72.723C75.3941 73.3662 76.2549 73.6776 77.0407 73.6599C77.8226 73.6424 78.5343 73.2963 79.0634 72.6238C79.7115 71.8005 79.9649 70.9622 79.8293 70.1376Z" fill="white"/>
<path d="M74.6722 77.8135L74.8197 78.0232L72.5216 79.6409L72.2924 79.3152L72.9439 78.857C72.8005 78.8006 72.6537 78.7097 72.5413 78.6305L66.0477 74.5064C66.0284 74.4932 65.9728 74.4552 65.9081 74.4036C65.9296 74.4675 65.9503 74.5416 65.968 74.6263L67.5897 81.8976C67.6032 81.9593 67.6194 82.0152 67.6391 82.0651C67.6564 82.1086 67.6756 82.1465 67.6971 82.1785L67.7026 82.1862C67.752 82.2567 67.8157 82.2976 67.8933 82.3004C67.987 82.3036 68.1066 82.2599 68.2532 82.1588C68.4957 81.9855 68.7401 81.8142 68.9843 81.643L69.2775 81.4373L69.507 81.763L66.9996 83.528L66.7706 83.2023L67.0113 83.0325C67.1389 82.9426 67.1936 82.8535 67.2026 82.7346C67.2136 82.5903 67.1697 82.3898 67.105 82.1073L65.0426 73.2653L65.725 72.7052L73.4056 77.6729C73.6563 77.8352 73.8296 77.944 73.9677 77.9797C74.0818 78.0092 74.1842 77.9835 74.3183 77.8894L74.591 77.6973L74.6722 77.8135Z" fill="white"/>
<path fill-rule="evenodd" clip-rule="evenodd" d="M55.6023 83.3709L62.2298 80.7649L62.225 80.7536C61.6786 79.3639 60.9432 78.4228 60.0999 77.9296C59.2689 77.4434 58.3259 77.3924 57.3518 77.775L57.3375 77.7807C56.5772 78.0824 55.9606 78.5122 55.5049 79.0356C55.0389 79.5712 54.7397 80.205 54.6254 80.8987L54.5996 81.0548L54.101 80.9144L54.1227 80.7891C54.259 80.007 54.6019 79.2923 55.1328 78.6892C55.6495 78.1019 56.3444 77.6197 57.2002 77.2833C58.483 76.7791 59.7835 76.7911 60.898 77.2688C62.0125 77.7465 62.9387 78.6892 63.4718 80.0449C63.9975 81.3822 63.9843 82.6764 63.5006 83.7712C63.0171 84.8652 62.0644 85.7565 60.7127 86.2881C59.6202 86.7179 58.4623 86.7214 57.4744 86.3233C56.5305 85.942 55.7419 85.1953 55.3123 84.1028L55.2891 84.0434C55.2367 83.9105 55.2472 83.7675 55.3056 83.6448C55.3633 83.5252 55.4672 83.4241 55.6023 83.3709ZM62.4885 84.0329C62.7784 83.2765 62.7524 82.3406 62.4026 81.2498L56.6431 83.6081C57.0301 84.5798 57.616 85.2835 58.3035 85.6651C58.9874 86.0444 59.777 86.1048 60.5734 85.7917C61.548 85.4086 62.1893 84.8133 62.4885 84.0329Z" fill="white"/>
<path d="M49.5192 79.2925L52.8858 78.8413L52.9388 79.2356L52.3557 79.3137C52.0907 79.3497 51.9496 79.3784 51.9007 79.4424C51.8515 79.5068 51.8607 79.6504 51.8962 79.9151L52.8631 87.1309C52.8741 87.2048 52.9096 87.2673 52.9618 87.307C53.0144 87.3474 53.0866 87.3674 53.17 87.3571C53.3804 87.3193 53.5946 87.2697 53.8071 87.2206L53.808 87.2204L53.8088 87.2202L53.8102 87.2199C53.9005 87.199 53.9905 87.1782 54.0797 87.1584L54.1809 87.487L53.1053 87.8656C52.8671 87.9472 52.6576 88.0768 52.5257 88.2466C52.4161 88.3882 52.3597 88.5615 52.3861 88.7623L52.4121 88.9531L52.0303 89.004L51.7893 87.2068L51.7331 86.7546C51.6145 87.3419 51.3438 87.8501 50.9648 88.2296C50.5832 88.6117 50.0922 88.8642 49.5366 88.9391L49.5239 88.9406C48.809 89.0337 48.2224 88.9044 47.7911 88.5997C47.3529 88.2903 47.0784 87.8049 46.9965 87.1923L46.125 80.6889C46.0893 80.424 46.0606 80.2832 45.9964 80.2337C45.932 80.185 45.7881 80.194 45.5234 80.2292L44.9279 80.3096L44.8749 79.9151L48.3817 79.4451L48.4346 79.8394L47.3019 79.9915C47.3229 80.0442 47.3369 80.1091 47.3496 80.2027L48.2349 86.807C48.3143 87.4018 48.4571 87.8443 48.6818 88.1185C48.8911 88.3737 49.1815 88.4821 49.5716 88.4297C50.1709 88.3495 50.6621 87.9887 50.9755 87.4325C51.2966 86.8629 51.4335 86.0883 51.3141 85.1968L50.6289 80.0851C50.5937 79.8219 50.5627 79.6821 50.496 79.6326C50.4281 79.5824 50.2808 79.5919 50.0148 79.6277L49.432 79.7058L49.3793 79.3115L49.5192 79.2925Z" fill="white"/>
<path d="M41.3504 79.4541L41.285 79.8466L40.7046 79.75C40.4397 79.7061 40.2953 79.6898 40.2309 79.7345C40.1672 79.7782 40.1345 79.9146 40.0908 80.177L38.8397 87.695C38.796 87.957 38.7826 88.0971 38.8285 88.159C38.8755 88.2222 39.0168 88.2539 39.2812 88.2976L39.8621 88.3942L39.7969 88.787L36.3064 88.2059L36.3763 87.7884L36.9564 87.885C37.2223 87.9292 37.3702 87.9455 37.4386 87.9C37.5048 87.8563 37.5392 87.7207 37.5827 87.4595L38.8298 79.9675C38.8732 79.7063 38.8844 79.5672 38.8357 79.5038C38.7861 79.4389 38.641 79.4069 38.375 79.3624L37.7947 79.2658L37.8599 78.8735L41.3504 79.4541Z" fill="white"/>
<path d="M37.4626 78.7606L36.4974 82.2599L36.0035 82.1236L36.1795 81.482C36.3653 80.8036 36.3099 80.1745 36.0776 79.6693C35.8381 79.1479 35.4089 78.7561 34.8625 78.5751L34.8565 78.5733C34.3491 78.4073 33.8744 78.433 33.4883 78.6233C33.1055 78.8118 32.8053 79.1639 32.6438 79.6521L32.6415 79.6594C32.4822 80.1453 32.5641 80.6023 32.7744 81.0403C32.9921 81.4943 33.3495 81.9343 33.7235 82.367C34.1523 82.8625 34.5891 83.3732 34.8628 83.9468C35.1434 84.5346 35.2516 85.1811 35.0068 85.9283C34.7998 86.5608 34.3703 87.0045 33.7997 87.2268C33.2393 87.4448 32.5441 87.4465 31.7947 87.2013C31.4134 87.0762 31.1103 86.9026 30.865 86.7074C30.6221 86.5141 30.4358 86.2986 30.2867 86.0883L30.2712 86.0656C30.2244 86.2537 30.1733 86.442 30.1223 86.6298C30.098 86.7194 30.0737 86.8089 30.05 86.8982L29.6579 86.7698L30.5364 83.5964L31.0306 83.7337L30.8503 84.3877C30.7155 84.8822 30.7237 85.4181 30.9362 85.8618C31.1147 86.2349 31.4416 86.5458 31.954 86.7134C32.4133 86.8642 32.8071 86.863 33.117 86.7134C33.4234 86.566 33.6566 86.2699 33.801 85.8291C33.951 85.3709 33.8631 84.9511 33.6499 84.5433C33.4276 84.1191 33.0663 83.701 32.6925 83.2698C32.2527 82.7614 31.8037 82.2162 31.5255 81.5984C31.2443 80.9736 31.1385 80.2812 31.3914 79.4903L31.3987 79.4676C31.6272 78.7709 32.1064 78.2837 32.7449 78.0422C33.3724 77.805 34.1531 77.8075 34.9961 78.0836C35.3849 78.211 35.7048 78.3798 35.9905 78.5996C36.2744 78.8181 36.5224 79.0855 36.7691 79.4116L36.7701 79.4134C36.7908 79.4419 36.8143 79.4843 36.8375 79.534C36.9012 79.2931 36.9681 79.0525 37.035 78.812C37.062 78.7148 37.0891 78.6173 37.1159 78.5201L37.5005 78.6223L37.4626 78.7606Z" fill="white"/>
<path d="M21.8822 75.8502L21.0324 80.4984C21.0242 80.5498 21.0137 80.5983 21.0015 80.6427L21.1256 80.5548L27.6681 76.1633L28.1324 76.4597C27.1489 77.1239 26.1652 77.7877 25.1815 78.4515L25.1447 78.4763L25.143 78.4774C23.5634 79.5434 21.9838 80.6093 20.4051 81.6766L19.3768 81.0201L19.5354 80.7721C19.5995 80.6712 19.6642 80.5473 19.7162 80.4295C19.7659 80.3161 19.8033 80.2092 19.8163 80.1368L21.2467 72.2974C21.3011 71.9833 21.3361 71.7805 21.3173 71.6447C21.3016 71.5343 21.2392 71.4571 21.1011 71.3685L20.8958 71.2379L21.1093 70.9023L23.403 72.3664L23.189 72.7015L22.5067 72.2657L22.5055 72.3307C22.5 72.4712 22.4753 72.6218 22.4536 72.7427L21.9821 75.321L24.3087 76.8061C24.2802 76.6822 24.2682 76.5531 24.2712 76.4243C24.2785 76.1161 24.3729 75.802 24.5382 75.543C24.8696 75.0474 25.2664 74.5418 25.6552 74.0463L25.6558 74.0456C25.8384 73.813 26.0193 73.5824 26.1908 73.3562L26.512 73.6095L26.1316 74.1249C26.1818 74.1446 26.237 74.1756 26.3074 74.22L31.6886 77.6541L31.4746 77.9892L30.9789 77.6733C30.7601 77.5335 30.6303 77.4806 30.5384 77.5118C30.439 77.545 30.3391 77.6806 30.1915 77.9116L26.1466 84.2492C26.0035 84.4737 25.9364 84.5973 25.9543 84.6727C25.9726 84.7486 26.0904 84.8335 26.3167 84.9778L26.8124 85.294L26.5989 85.6291L23.6162 83.726L23.8302 83.3909L24.3259 83.707C24.5532 83.8521 24.6828 83.9253 24.7637 83.9105C24.8418 83.8958 24.9265 83.7849 25.0691 83.5617L29.1003 77.2456C29.1812 77.1187 29.2821 77.0193 29.3912 76.9442C29.4304 76.9175 29.4706 76.8937 29.5113 76.8728L27.56 75.6272C27.0631 75.31 26.6263 75.0985 26.2318 75.0823C25.854 75.0671 25.5006 75.2379 25.1493 75.6799L24.8918 76.0047L24.8543 76.0604C24.711 76.2844 24.6621 76.5147 24.7068 76.7292C24.7512 76.9427 24.889 77.1474 25.1188 77.323L25.4135 77.5108L24.9959 77.8372L21.8822 75.8502Z" fill="white"/>
<path d="M19.0317 68.064L21.2439 70.6411L20.942 70.9003L20.5587 70.4535C20.3849 70.2513 20.2838 70.1486 20.2034 70.1424C20.1224 70.1364 20.0068 70.2225 19.8041 70.3963L14.2831 75.1357C14.2244 75.1862 14.1907 75.2521 14.1864 75.3203C14.1822 75.3857 14.2051 75.4564 14.2588 75.52C14.4061 75.6767 14.5658 75.8304 14.724 75.9827C14.7901 76.0463 14.8558 76.1096 14.9203 76.1728L14.6996 76.437L13.7966 75.7413C13.5986 75.5865 13.3761 75.4811 13.1606 75.4636C12.982 75.4486 12.806 75.4953 12.6524 75.6272L12.5066 75.752L12.2559 75.4599L13.6321 74.2785L13.9804 73.985C13.423 74.206 12.8497 74.2557 12.325 74.1446C11.7964 74.033 11.3169 73.7588 10.9518 73.3333C10.4869 72.7921 10.2729 72.2358 10.2848 71.7131C10.2971 71.166 10.556 70.661 11.0332 70.251L16.0121 65.9773C16.2144 65.8035 16.3168 65.7027 16.323 65.6222C16.329 65.5416 16.2428 65.4257 16.0688 65.2232L15.6777 64.7672L15.9794 64.5078L18.2843 67.1927L17.9821 67.4522L17.238 66.5852C17.2055 66.6311 17.1583 66.6783 17.0864 66.7402L12.0304 71.0803C11.5744 71.4714 11.281 71.832 11.1738 72.1691C11.0734 72.4835 11.1411 72.7864 11.3981 73.0855C11.7969 73.5503 12.3777 73.765 13.0262 73.7173C13.6715 73.6699 14.3852 73.363 15.0587 72.7849L18.9717 69.4259C19.1735 69.2529 19.2737 69.1505 19.2787 69.0681C19.2834 68.9837 19.1952 68.8656 19.0204 68.6618L18.6374 68.2153L18.9395 67.9563L19.0317 68.064Z" fill="white"/>
<path fill-rule="evenodd" clip-rule="evenodd" d="M14.0583 61.1955L15.7531 64.5302L15.398 64.711L15.1316 64.1859C15.0102 63.9479 14.9363 63.8245 14.8597 63.7993C14.7832 63.7746 14.6506 63.8308 14.4124 63.9516L7.74322 67.3408C7.49725 67.4657 7.34692 67.5553 7.29847 67.6559C7.25477 67.7468 7.28998 67.8819 7.40685 68.1119L7.67355 68.6366L7.31845 68.8171L5.62312 65.4812C4.92815 64.1135 4.76809 62.7577 5.09672 61.5823C5.42659 60.4024 6.24666 59.407 7.50998 58.7648C8.77555 58.122 10.0656 58.0448 11.2153 58.4728C12.3607 58.8991 13.3631 59.8273 14.0583 61.1955ZM14.1737 62.7058L14.2481 62.7011L13.7567 61.7339C13.1508 60.542 12.359 59.7943 11.4163 59.5024C10.4716 59.2098 9.36613 59.3711 8.13478 59.9966L8.11655 60.0056C6.90042 60.6279 6.1278 61.4208 5.81091 62.3505C5.49277 63.2834 5.63086 64.3642 6.23692 65.5566L6.72787 66.5225L6.77607 66.4648C6.85598 66.3784 6.96136 66.3035 7.10794 66.2293L13.7874 62.8347C13.9332 62.7602 14.0558 62.7193 14.1737 62.7058Z" fill="white"/>
<path d="M11.9929 55.9082L8.55405 57.0719L8.39023 56.5862L9.02002 56.372C9.68627 56.1452 10.1755 55.7469 10.4636 55.2715C10.762 54.779 10.8452 54.2014 10.6861 53.6453C10.5395 53.1326 10.2519 52.7543 9.8788 52.5413C9.50597 52.3288 9.04274 52.2783 8.54456 52.4212C8.05336 52.5615 7.72125 52.8854 7.47627 53.3049C7.22256 53.74 7.05874 54.2823 6.91016 54.835C6.7411 55.467 6.56306 56.114 6.24042 56.6639C5.9108 57.2265 5.43608 57.679 4.68069 57.8955C4.04116 58.0783 3.43335 57.9714 2.92967 57.624C2.43398 57.2822 2.04243 56.7073 1.82542 55.9489C1.71505 55.5636 1.68883 55.2153 1.7128 54.9029C1.73677 54.5917 1.81069 54.3168 1.90109 54.0756L1.91107 54.0511C1.73091 54.1169 1.54851 54.1796 1.36626 54.2422L1.36514 54.2425L1.36441 54.2428L1.36328 54.2432L1.36249 54.2435L1.36097 54.244C1.27321 54.2741 1.1854 54.3043 1.098 54.3348L0.984375 53.9387L4.10434 52.8862L4.26815 53.3719L3.62588 53.5894C3.14093 53.7549 2.70218 54.0626 2.45371 54.4874C2.24445 54.8444 2.17078 55.2894 2.31911 55.8084L2.32111 55.8151C2.45396 56.2743 2.67346 56.5962 2.96788 56.769C3.26155 56.9413 3.63886 56.9688 4.08711 56.8404L4.09186 56.8392C4.55209 56.7061 4.84925 56.3982 5.06625 55.9946C5.29275 55.5726 5.43658 55.0392 5.58417 54.4876C5.75797 53.8396 5.95749 53.1626 6.31384 52.5845C6.67693 51.9954 7.19784 51.5155 8.00717 51.2842L8.0264 51.2785C8.7246 51.085 9.38861 51.2101 9.94148 51.5996C10.4904 51.9864 10.9264 52.6345 11.1706 53.4875L11.1761 53.5067C11.2842 53.892 11.3219 54.2454 11.3007 54.5992C11.279 54.9561 11.1963 55.3117 11.0647 55.699L11.064 55.7015C11.0522 55.7344 11.0297 55.7776 11.001 55.8253C11.2753 55.7295 11.551 55.6368 11.8265 55.5441L11.9971 55.4867L12.128 55.8628L11.9929 55.9082Z" fill="white"/>
<path d="M8.9079 33.6417L8.80302 34.0253L7.98944 33.8035C7.44905 33.6559 7.11568 33.7141 6.90117 33.8839C6.68317 34.056 6.5698 34.3549 6.48265 34.6753L6.3855 35.0316L9.90677 35.991C10.0519 36.0297 10.177 36.0974 10.2811 36.1793C10.3183 36.2083 10.353 36.2398 10.385 36.2727L10.9803 34.0882C11.1319 33.5321 11.1334 33.0943 10.9638 32.7542C10.7953 32.4158 10.4497 32.1621 9.90702 31.9706L8.81825 31.5848L8.94611 31.1156L12.5046 32.3289L12.3715 32.7053L11.9 32.5429L11.8993 32.5627C11.8943 32.6586 11.8733 32.7622 11.8446 32.8686L10.2863 38.5846L9.90252 38.4797L10.0573 37.9116C10.1273 37.6549 10.1555 37.5133 10.1158 37.4429C10.0753 37.3725 9.93923 37.325 9.68177 37.2546L2.35382 35.2576C2.09636 35.1875 1.95502 35.1595 1.88485 35.1994C1.81418 35.2396 1.76674 35.3757 1.69657 35.6332L1.54199 36.2008L1.15843 36.0962L2.53487 31.0459C2.56309 30.939 2.59805 30.8391 2.64175 30.7547L2.65148 30.7367L2.16304 30.6371L2.2392 30.2468L5.92503 30.9929L5.78968 31.4891L4.78357 31.2759C4.14754 31.14 3.68706 31.1897 3.35344 31.4087C3.01907 31.6282 2.79832 32.0265 2.64649 32.5846L2.24595 34.0545C2.2899 34.0425 2.33559 34.0333 2.38279 34.027C2.51464 34.009 2.65623 34.0148 2.80082 34.054L5.89107 34.8968L5.98821 34.5404C6.07561 34.22 6.13205 33.9054 6.03441 33.6467C5.93852 33.393 5.68405 33.175 5.14441 33.0279L4.57706 32.8736L4.68169 32.49L8.9079 33.6417Z" fill="white"/>
<path d="M14.5945 26.9293L12.1058 31.8517L11.7504 31.6724L12.0159 31.1473C12.1327 30.9158 12.1725 30.7809 12.1327 30.693C12.0898 30.5976 11.9447 30.5115 11.7002 30.3879L4.99059 26.9955C4.75311 26.8751 4.62325 26.8207 4.55058 26.8459C4.47667 26.8711 4.40425 26.9972 4.28314 27.237L4.01769 27.7626L3.66234 27.5823L5.25903 24.4249L5.61413 24.6047L5.34868 25.1293C5.22707 25.3698 5.16714 25.5067 5.19011 25.5851C5.21209 25.661 5.3312 25.7346 5.56743 25.854L12.2541 29.2352C12.3885 29.3034 12.4976 29.394 12.583 29.4949C12.6137 29.5311 12.6412 29.5683 12.6659 29.6068L13.3187 28.3157C13.5849 27.7896 13.7549 27.3281 13.7329 26.9308C13.7117 26.5517 13.5074 26.2186 13.0287 25.9242L11.8243 25.1893L12.0671 24.7093L15.4428 26.7255L15.2215 27.0716L14.6714 26.7453C14.6566 26.797 14.6319 26.8554 14.5945 26.9293Z" fill="white"/>
<path fill-rule="evenodd" clip-rule="evenodd" d="M16.4514 15.964L12.0461 21.5604L12.0553 21.5671C13.2098 22.4761 14.3023 22.9178 15.2677 22.9318C16.2513 22.9461 17.1081 22.5138 17.7661 21.6782C18.2765 21.0302 18.5944 20.3433 18.724 19.6575C18.8559 18.9606 18.7935 18.2624 18.5417 17.6051L18.4856 17.4575L18.987 17.3272L19.0317 17.4468C19.3086 18.1899 19.3735 18.9798 19.22 19.7682C19.0711 20.5325 18.7173 21.2964 18.1537 22.0151L18.1454 22.0258C17.2929 23.1091 16.1634 23.7554 14.9603 23.906C13.7709 24.0541 12.5113 23.7177 11.3769 22.8397L11.3302 22.8032C10.2059 21.9152 9.56615 20.7932 9.4313 19.6063C9.29771 18.4314 9.66004 17.1966 10.5361 16.0663L10.5665 16.0271C11.293 15.1044 12.2906 14.5158 13.3449 14.3615C14.3517 14.2134 15.4093 14.4599 16.3312 15.1858L16.3814 15.2253C16.4938 15.3134 16.5572 15.4428 16.5687 15.5781C16.58 15.71 16.5415 15.8496 16.4514 15.964ZM10.1725 18.8709C10.3038 19.6693 10.7988 20.4636 11.6515 21.2285L15.4325 16.2853C14.6077 15.6421 13.7469 15.3302 12.9611 15.3479C12.1789 15.3659 11.4673 15.712 10.9381 16.3842C10.2901 17.2078 10.0369 18.0461 10.1725 18.8709Z" fill="white"/>
<path d="M15.4313 11.1956L15.2837 10.9858L17.5816 9.36768L17.8111 9.69331L17.1596 10.1515C17.3029 10.208 17.4497 10.2989 17.5621 10.378L24.056 14.5016C24.0755 14.5143 24.1312 14.5528 24.1956 14.6045C24.1744 14.5401 24.1536 14.4659 24.1356 14.3813L22.5132 7.10998C22.4995 7.04755 22.483 6.99162 22.463 6.94068C22.4463 6.89772 22.4261 6.85877 22.4031 6.82555L22.4004 6.82131C22.3512 6.75164 22.2872 6.71069 22.2098 6.70794C22.1134 6.70444 21.9908 6.75014 21.8395 6.85677L20.8254 7.57071L20.5964 7.24533L23.1033 5.48007L23.3323 5.80521L23.0913 5.97527C22.9637 6.06491 22.9093 6.15406 22.9001 6.27293C22.8891 6.41776 22.9333 6.61754 22.9979 6.90072L25.0614 15.742L24.3794 16.3021L16.6986 11.3357C16.4476 11.1736 16.2748 11.0648 16.136 11.0288C16.0216 10.9993 15.919 11.0253 15.7849 11.1194L15.5129 11.3112L15.4313 11.1956Z" fill="white"/>
<path fill-rule="evenodd" clip-rule="evenodd" d="M34.4759 5.6369L27.8487 8.24345L27.8532 8.25419C28.3998 9.64411 29.1355 10.5851 29.9785 11.0785C30.8098 11.5647 31.7528 11.6156 32.7269 11.2323L32.7412 11.2268C33.5015 10.9257 34.1178 10.4954 34.5736 9.97174C35.0395 9.4366 35.3387 8.80256 35.4528 8.1091L35.4788 7.95253L35.9777 8.09287L35.9558 8.21823C35.8197 9.00034 35.4766 9.71503 34.9457 10.3186C34.4292 10.9059 33.7343 11.3879 32.8785 11.7245L32.8533 11.7342C31.5787 12.2287 30.2879 12.214 29.1809 11.7395C28.0662 11.2613 27.14 10.3191 26.6066 8.96363L26.5966 8.93842C26.0809 7.60942 26.0972 6.32487 26.5776 5.2371C27.0611 4.14309 28.0135 3.25135 29.3652 2.7197C30.4318 2.30068 31.5602 2.28644 32.5321 2.65627C33.5075 3.0276 34.3254 3.7845 34.7659 4.90473L34.7893 4.96416C34.8413 5.09676 34.8308 5.2396 34.7726 5.36221C34.7159 5.48132 34.6135 5.58146 34.4797 5.63515L34.4759 5.6369ZM27.5895 4.9754C27.2998 5.73129 27.326 6.66699 27.6756 7.75775L33.4349 5.39942C33.0478 4.42802 32.462 3.72407 31.7747 3.343C31.0908 2.96368 30.3009 2.90324 29.5046 3.21639C28.5302 3.59971 27.8887 4.19503 27.5895 4.9754Z" fill="white"/>
<path d="M37.1419 10.1665L37.089 9.77222L37.6721 9.69405C37.9368 9.65859 38.0779 9.62963 38.1268 9.5652C38.176 9.50127 38.1668 9.35694 38.1315 9.09274L37.1641 1.87691C37.1534 1.80299 37.1179 1.74081 37.0658 1.70136C37.0131 1.66065 36.9404 1.64092 36.8567 1.65066C36.6462 1.68849 36.4313 1.73835 36.2183 1.78776C36.1277 1.8088 36.0372 1.82978 35.9478 1.84969L35.8466 1.52081L36.9222 1.14274C37.1607 1.06083 37.3699 0.931474 37.5018 0.761167C37.6111 0.619827 37.6678 0.446276 37.6411 0.245503L37.6161 0.0552155L37.9972 0.00402832L38.2382 1.80124L38.2944 2.25323C38.4127 1.66589 38.6837 1.15797 39.0627 0.778402C39.4443 0.396334 39.9353 0.143367 40.4904 0.0689512C41.1983 -0.0259414 41.7817 0.0976674 42.2134 0.392334C42.6649 0.700235 42.9473 1.19268 43.0307 1.81597L43.9028 8.31937C43.938 8.58382 43.9669 8.72516 44.0314 8.77385C44.0955 8.82329 44.2394 8.81405 44.5041 8.77834L45.0999 8.69868L45.1528 9.09274L41.6461 9.56271L41.5931 9.1684L42.7258 9.01682C42.7049 8.96413 42.6904 8.89921 42.6781 8.80556L41.7927 2.20104C41.713 1.60646 41.5704 1.16371 41.3457 0.889275C41.1366 0.634064 40.846 0.526187 40.4557 0.577878C39.8568 0.658287 39.3652 1.01913 39.052 1.57525C38.7306 2.14535 38.594 2.91998 38.7134 3.81122L39.3984 8.92293C39.4338 9.18613 39.4645 9.32598 39.5315 9.37492C39.5996 9.42561 39.7467 9.41587 40.0127 9.38041L40.5958 9.3025L40.6484 9.69655L37.1419 10.1665Z" fill="white"/>
<path d="M51.9769 10.1118L48.6264 9.55422L48.6916 9.16166L49.2719 9.25805C49.5366 9.302 49.6812 9.31798 49.7456 9.27378C49.8091 9.23008 49.8418 9.09349 49.8855 8.83079L51.1366 1.31354C51.1803 1.05109 51.1937 0.911247 51.1478 0.848818C51.1011 0.786139 50.9595 0.754424 50.6953 0.710473L50.1145 0.614086L50.1796 0.221531L53.6702 0.801874L53.6003 1.2199L53.0199 1.12326C52.754 1.07931 52.6064 1.06283 52.538 1.10803C52.4718 1.15198 52.4371 1.28757 52.3939 1.54803L51.1468 9.0408C51.1034 9.302 51.0921 9.44109 51.1408 9.50452C51.1905 9.5692 51.3356 9.60141 51.6013 9.64561L52.1819 9.74225L52.1167 10.1348L51.9769 10.1118Z" fill="white"/>
<path d="M53.4794 6.8755L53.9734 7.01259L53.7973 7.65362C53.6113 8.3326 53.6667 8.96114 53.8987 9.46682C54.1392 9.98972 54.5707 10.3828 55.1198 10.5628C55.627 10.7291 56.1019 10.7029 56.488 10.5131C56.8728 10.3233 57.174 9.96849 57.335 9.47705C57.4944 8.9911 57.4125 8.53387 57.2022 8.09562C56.9842 7.64163 56.6271 7.20163 56.253 6.76887C55.8243 6.27343 55.3875 5.76251 55.1141 5.18916C54.8334 4.60107 54.7253 3.9548 54.97 3.20765C55.1772 2.57486 55.607 2.13161 56.1774 1.90937C56.738 1.69111 57.4329 1.68937 58.1823 1.93509C58.5637 2.0597 58.8668 2.2335 59.112 2.42853C59.3553 2.62256 59.5415 2.83832 59.6909 3.04858L59.7059 3.07006C59.7535 2.88071 59.8048 2.69112 59.8561 2.50162L59.8563 2.50074L59.8565 2.49996C59.8802 2.41261 59.9038 2.32528 59.9271 2.238L60.3192 2.36635L59.4407 5.53951L58.9465 5.40267L59.1265 4.74891C59.2616 4.25397 59.2531 3.71807 59.0409 3.27483C58.8623 2.901 58.5352 2.5901 58.023 2.42254C57.5653 2.27246 57.1732 2.2737 56.8633 2.42104C56.5557 2.56812 56.3209 2.86454 56.1761 3.30654L56.1734 3.31478C56.027 3.77026 56.1152 4.18754 56.3272 4.59233C56.5492 5.0166 56.9103 5.43488 57.2844 5.86664C57.7241 6.37457 58.1731 6.9202 58.451 7.538C58.735 8.16853 58.8398 8.86874 58.5779 9.66884C58.3494 10.3656 57.8702 10.8522 57.2314 11.0937C56.6036 11.331 55.823 11.3287 54.98 11.0525C54.5912 10.9249 54.2715 10.7564 53.9858 10.5361C53.7019 10.3174 53.4542 10.0499 53.2075 9.72402L53.2065 9.72228C53.1855 9.69406 53.162 9.65135 53.1388 9.60141C53.0802 9.82397 53.0185 10.0462 52.9567 10.2685L52.9562 10.2705L52.9556 10.2726C52.9238 10.3871 52.892 10.5017 52.8606 10.6163L52.4761 10.5131L53.4794 6.8755Z" fill="white"/>
<path d="M68.1708 13.2857L69.0206 8.6375C69.0288 8.58606 69.0393 8.53787 69.0515 8.49292L68.9277 8.58057L62.3851 12.9721L61.9209 12.6759L69.6481 7.45933L70.6764 8.11534L70.5179 8.36357C70.4534 8.46445 70.3888 8.58806 70.3371 8.70618C70.2871 8.81955 70.2497 8.92643 70.2369 8.99885L68.8063 16.8382L68.8057 16.8419C68.7519 17.1535 68.717 17.3557 68.7359 17.4907C68.7514 17.6014 68.8138 17.6785 68.9521 17.7669L69.1574 17.898L68.9439 18.2334L66.6503 16.7693L66.8643 16.4344L67.5465 16.8699L67.5475 16.8048C67.553 16.6644 67.5779 16.5136 67.5994 16.393L68.0709 13.8146L65.7443 12.3298C65.7727 12.4537 65.785 12.5825 65.782 12.7114C65.7745 13.02 65.6801 13.3337 65.5148 13.5929C65.1852 14.0851 64.7924 14.5858 64.4068 15.0773C64.2211 15.3141 64.037 15.5488 63.8624 15.7794L63.5413 15.526L63.9213 15.0105C63.8711 14.9911 63.8157 14.9601 63.7458 14.9156L58.3646 11.4815L58.5786 11.1462L59.0743 11.4623C59.2931 11.6021 59.4229 11.6551 59.5146 11.6239C59.614 11.5907 59.7141 11.4553 59.8614 11.2243L63.9064 4.8865C64.0494 4.66201 64.1169 4.53864 64.0989 4.46323C64.0807 4.38681 63.9628 4.30216 63.7366 4.15807L63.2409 3.84143L63.4544 3.50631L66.437 5.40966L66.223 5.74478L65.727 5.42839C65.5001 5.28355 65.3704 5.21038 65.2895 5.22511C65.2114 5.23985 65.1265 5.35047 64.9841 5.57372L60.9529 11.8903C60.8718 12.0172 60.7709 12.1163 60.662 12.1915C60.6228 12.2182 60.5824 12.2417 60.5417 12.2629L62.4932 13.5082C62.9899 13.8254 63.4266 14.0371 63.8214 14.0534C64.1995 14.0686 64.5524 13.8978 64.904 13.4558L65.1619 13.1304L65.1989 13.0752C65.3422 12.8512 65.3912 12.6212 65.3465 12.4067C65.3018 12.193 65.1639 11.9885 64.9342 11.8127L64.6398 11.6249L65.0573 11.2985L68.1708 13.2857Z" fill="white"/>
<path d="M70.9704 21.0717L68.7584 18.4946L69.0603 18.2354L69.4436 18.6821C69.6174 18.8847 69.7183 18.987 69.7987 18.993C69.8796 18.9993 69.9952 18.9131 70.198 18.7393L75.719 14.0002C75.7779 13.9495 75.8116 13.8838 75.8159 13.8154C75.8199 13.75 75.7969 13.6793 75.7434 13.6156C75.5988 13.4618 75.442 13.3108 75.2866 13.1612C75.2177 13.0949 75.1491 13.0288 75.082 12.9629L75.3027 12.6987L76.2057 13.3946C76.4037 13.5492 76.6262 13.6546 76.8417 13.6723C77.0202 13.6868 77.1963 13.6401 77.3496 13.5085L77.4957 13.3839L77.7467 13.6758L76.3702 14.857L76.0219 15.1504C76.579 14.9296 77.1526 14.8799 77.6772 14.9911C78.2057 15.1027 78.6854 15.3769 79.0505 15.8021C79.5152 16.3435 79.7294 16.8999 79.7174 17.4226C79.7052 17.9697 79.446 18.4749 78.9688 18.8847L73.9902 23.1583C73.7877 23.3321 73.6853 23.433 73.6793 23.5134C73.6731 23.5943 73.7592 23.7097 73.9332 23.9122L74.3246 24.3682L74.0229 24.6279L71.718 21.9427L72.0202 21.6835L72.7643 22.551C72.7973 22.5043 72.8442 22.4564 72.9157 22.3954L77.9719 18.0553C78.4277 17.6643 78.7211 17.3034 78.8284 16.9666C78.9286 16.6519 78.8607 16.349 78.6042 16.0499C78.2052 15.5851 77.6243 15.3704 76.9758 15.4183C76.3305 15.4655 75.6171 15.7727 74.9436 16.3508L71.0303 19.7097C70.8285 19.8828 70.7284 19.9849 70.7236 20.0676C70.7186 20.1517 70.8068 20.2703 70.9819 20.4739L71.3649 20.9203L71.0627 21.1791L70.9704 21.0717Z" fill="white"/>
<path fill-rule="evenodd" clip-rule="evenodd" d="M75.8673 27.9401L74.1725 24.6054L74.5276 24.4251L74.7938 24.9495C74.9151 25.1878 74.9891 25.3116 75.0657 25.3363C75.1426 25.3616 75.2752 25.3054 75.5137 25.184L82.1819 21.7951C82.4279 21.6697 82.5787 21.5804 82.6272 21.4797C82.6709 21.3886 82.6354 21.2535 82.5185 21.0232L82.2523 20.4991L82.6072 20.319L84.3025 23.6548C84.9972 25.0222 85.1573 26.3782 84.8287 27.5533C84.499 28.7338 83.6787 29.7291 82.4156 30.3709C81.1501 31.0139 79.86 31.0911 78.7103 30.6628C77.5649 30.2366 76.5625 29.3083 75.8673 27.9401ZM75.7519 26.4299L75.6773 26.4346L76.169 27.4018C76.7748 28.5937 77.5666 29.3413 78.5093 29.6332C79.4537 29.9259 80.5595 29.7651 81.7908 29.139L81.8023 29.1333C83.0222 28.5108 83.7973 27.7167 84.1147 26.7855C84.4326 25.8523 84.2945 24.7715 83.6885 23.5793L83.1975 22.6132L83.1496 22.6706C83.0694 22.758 82.964 22.8322 82.8182 22.9064L76.1377 26.3013C75.9914 26.3752 75.8693 26.4164 75.7519 26.4299Z" fill="white"/>
<path d="M81.6061 32.2183L81.7461 32.712L81.1061 32.8958C80.4304 33.0896 79.9225 33.4639 79.6118 33.9251C79.2899 34.4031 79.1788 34.9757 79.3107 35.5386C79.4328 36.058 79.7017 36.4498 80.0641 36.6805C80.4261 36.9105 80.8861 36.9829 81.3908 36.8648C81.8885 36.7477 82.2358 36.4405 82.5008 36.0327C82.7752 35.6102 82.965 35.0766 83.1401 34.5319C83.3396 33.9089 83.5491 33.2704 83.8965 32.7377C84.2528 32.1918 84.7492 31.7623 85.5141 31.5833C86.1621 31.4312 86.764 31.5673 87.2502 31.9386C87.7289 32.3042 88.092 32.8968 88.2723 33.6649C88.3634 34.0545 88.3729 34.4033 88.3339 34.7147C88.295 35.0246 88.2076 35.2958 88.1059 35.5318L88.0949 35.5565C88.2906 35.4954 88.4889 35.4379 88.6867 35.3806C88.765 35.3579 88.8433 35.3352 88.9213 35.3123L89.0157 35.7141L85.8483 36.6148L85.7082 36.1209L86.3602 35.9346C86.8529 35.793 87.3061 35.5073 87.5746 35.0948C87.8003 34.7477 87.8957 34.307 87.7726 33.782C87.6619 33.3113 87.4562 32.9762 87.1673 32.7889C86.8826 32.6044 86.5083 32.5592 86.0563 32.665C85.5868 32.7752 85.2739 33.0686 85.0374 33.4624C84.79 33.8744 84.6209 34.3993 84.4473 34.9425C84.2421 35.5828 84.0098 36.2502 83.627 36.8091C83.236 37.38 82.6926 37.8342 81.873 38.0262C81.1596 38.1936 80.4946 38.0372 79.9559 37.6174C79.426 37.2047 79.0217 36.5367 78.8195 35.6732C78.7261 35.2751 78.7038 34.9143 78.743 34.5564C78.782 34.1998 78.8814 33.849 79.0317 33.4686L79.0327 33.4669C79.0462 33.4339 79.0704 33.3917 79.1011 33.3463C78.8671 33.4159 78.6319 33.4826 78.3969 33.5492L78.3941 33.55C78.2928 33.5787 78.1911 33.6075 78.09 33.6365L77.9774 33.2541L81.6061 32.2183Z" fill="white"/>
<path d="M6.68516 44.5396C6.68516 43.6851 5.99244 42.9923 5.13816 42.9923C4.28363 42.9923 3.59116 43.6851 3.59116 44.5396C3.59116 45.3936 4.28363 46.0864 5.13816 46.0864C5.99244 46.0864 6.68516 45.3936 6.68516 44.5396Z" fill="white"/>
<path d="M85.0177 42.9923C85.872 42.9923 86.5647 43.6851 86.5647 44.5396C86.5647 45.3936 85.872 46.0864 85.0177 46.0864C84.1632 46.0864 83.4707 45.3936 83.4707 44.5396C83.4707 43.6851 84.1632 42.9923 85.0177 42.9923Z" fill="white"/>
</svg>
