<svg width="131" height="14" viewBox="0 0 131 14" fill="none" xmlns="http://www.w3.org/2000/svg">
<path fill-rule="evenodd" clip-rule="evenodd" d="M5.82026 9.66579H5.27249V8.54406C5.27249 7.81145 5.08606 7.41202 4.79968 7.201C4.50814 6.98601 4.09205 6.94556 3.65732 6.94556H3.18411V11.7345C3.18411 11.9327 3.14167 12.1159 3.07285 12.2783C3.05104 12.3297 3.02684 12.3789 3.00027 12.4259H5.9579C6.71451 12.4259 7.26804 12.2779 7.63752 11.9481C8.00601 11.6187 8.20751 11.0951 8.26225 10.3435L8.37687 8.81577H9.04007L8.7289 13.7765L8.18271 13.7364L8.22456 13.0863L8.21405 13.0887C8.09148 13.1153 7.95147 13.1248 7.8049 13.1248H0V12.577H0.785962C1.13422 12.577 1.32125 12.5645 1.39344 12.4929C1.46504 12.4207 1.47773 12.2337 1.47773 11.8856V1.8946C1.47773 1.54614 1.46504 1.35952 1.39304 1.28753C1.32105 1.21554 1.13422 1.20265 0.785962 1.20265H0V0.654871H6.89816C7.04432 0.654871 7.18415 0.664982 7.30651 0.690963L7.31762 0.693345L7.27577 0.0436355L7.82137 0.00257591L8.15078 4.96408H7.4501L7.37236 3.60139C7.32515 2.75117 7.10383 2.18634 6.71273 1.84085C6.32104 1.49458 5.74212 1.35378 4.98392 1.35378H3.00027C3.02684 1.40078 3.05104 1.44996 3.07285 1.50133C3.14167 1.66435 3.18411 1.8472 3.18411 2.04573V6.24666H3.65732C4.09285 6.24666 4.50952 6.21017 4.80047 5.99915C5.08625 5.7919 5.27249 5.39664 5.27249 4.66521V3.87885H5.82026V9.66579ZM16.5366 13.1248H9.26894V12.577H10.0549C10.3929 12.577 10.5713 12.5453 10.6481 12.4499C10.732 12.346 10.7467 12.1266 10.7467 11.768V1.87775C10.7467 1.53088 10.7344 1.34822 10.6652 1.28158C10.5942 1.21276 10.4052 1.20265 10.0549 1.20265H9.26894V0.654871H13.9474V1.20265H13.1615C12.8096 1.20265 12.6163 1.21316 12.5407 1.28357C12.4679 1.35139 12.4531 1.53266 12.4531 1.87775V11.7345C12.4531 11.9327 12.4106 12.1159 12.3418 12.2783C12.32 12.3297 12.2958 12.3789 12.2692 12.4259H14.1521C14.9266 12.4259 15.5676 12.3521 16.0176 12.0921C16.4471 11.844 16.7147 11.4095 16.7756 10.6769L16.9243 8.81577H17.6557L17.2904 14L16.729 13.9437L16.7857 13.1079C16.7183 13.12 16.6387 13.1248 16.5366 13.1248ZM29.3823 6.57608H20.0261V6.57945C20.0261 8.50935 20.4581 9.9956 21.2274 11.0031C22.01 12.0282 23.1509 12.5602 24.5462 12.5602C25.6292 12.5602 26.5961 12.3305 27.4088 11.9073C28.2354 11.4775 28.905 10.8466 29.3778 10.0543L29.4906 9.86511L30.0527 10.2913L29.9599 10.4438C29.4162 11.3361 28.6509 12.0469 27.7077 12.5314C26.79 13.0028 25.7058 13.259 24.4958 13.259C22.6583 13.259 21.0523 12.6016 19.9131 11.4529C18.8005 10.3314 18.1351 8.74437 18.1351 6.84818C18.1351 4.95437 18.7761 3.37352 19.8976 2.26409C21.0189 1.15485 22.6163 0.520604 24.5295 0.520604C26.0768 0.520604 27.4994 1.07473 28.5196 2.04097C29.494 2.96338 30.1011 4.26003 30.1011 5.80697V5.89106C30.1011 6.08185 30.0182 6.25479 29.8849 6.37934C29.7546 6.50052 29.5763 6.57608 29.3823 6.57608ZM21.278 2.44654C20.5632 3.22755 20.1463 4.37983 20.0479 5.8752L28.2098 5.76136C28.2017 4.39311 27.8245 3.25631 27.1704 2.463C26.5183 1.67188 25.5842 1.21951 24.4623 1.21951C23.0867 1.21951 22.0171 1.63836 21.278 2.44654ZM29.8389 0.654871H33.5603V1.20265H32.5222C32.6305 1.37182 32.7168 1.57669 32.7757 1.74328L36.6343 11.0878C36.6442 11.1108 36.6696 11.178 36.6966 11.2679C36.7206 11.1925 36.7509 11.1098 36.7892 11.0202L40.5506 1.96957C40.584 1.89222 40.6087 1.82043 40.6246 1.75399C40.6393 1.69291 40.647 1.6338 40.647 1.57807C40.647 1.46503 40.6078 1.37261 40.5223 1.31232C40.4227 1.24251 40.2611 1.20265 40.0282 1.20265H38.3859V0.654871H42.4431V1.20265H42.0432C41.8413 1.20265 41.7178 1.2558 41.6208 1.3734C41.5002 1.51977 41.3963 1.76748 41.2525 2.11911L36.7733 13.1988L35.6 13.2856L31.0961 2.11911C30.9497 1.75578 30.8464 1.50866 30.7256 1.36627C30.628 1.25144 30.5011 1.20265 30.2891 1.20265H29.8389V0.654871ZM53.3609 6.57608H44.0047V6.57945C44.0047 8.50935 44.4366 9.9956 45.2059 11.0031C45.9885 12.0282 47.1295 12.5602 48.5247 12.5602C49.6078 12.5602 50.5746 12.3305 51.3873 11.9073C52.214 11.4775 52.8835 10.8466 53.3563 10.0543L53.4692 9.86511L54.0312 10.2913L53.9384 10.4438C53.3948 11.3361 52.6295 12.0469 51.6862 12.5314C50.7686 13.0028 49.6843 13.259 48.4743 13.259C46.6369 13.259 45.0308 12.6016 43.8916 11.4529C42.779 10.3314 42.1136 8.74437 42.1136 6.84818C42.1136 4.95437 42.7546 3.37352 43.8762 2.26409C44.9975 1.15485 46.5948 0.520604 48.508 0.520604C50.0554 0.520604 51.478 1.07473 52.4982 2.04097C53.4725 2.96338 54.0796 4.26003 54.0796 5.80697V5.89106C54.0796 6.08185 53.9967 6.25479 53.8634 6.37934C53.7331 6.50052 53.5548 6.57608 53.3609 6.57608ZM45.2565 2.44654C44.5417 3.22755 44.1249 4.37983 44.0265 5.8752L52.1884 5.76136C52.1803 4.39311 51.803 3.25631 51.149 2.463C50.4969 1.67188 49.5628 1.21951 48.4408 1.21951C47.0652 1.21951 45.9957 1.63836 45.2565 2.44654ZM54.5393 13.1248V12.577H55.3253C55.6736 12.577 55.8606 12.5645 55.9328 12.4929C56.0044 12.4207 56.0171 12.2337 56.0171 11.8856V2.31426C56.0171 2.2147 55.9816 2.12744 55.9201 2.06754C55.8598 2.00864 55.7705 1.97254 55.6613 1.97254C55.2714 1.98127 54.8346 2.04017 54.4384 2.07349L54.3598 1.60485L55.8392 1.29765C56.1624 1.23279 56.4563 1.1017 56.6567 0.904163C56.8215 0.741734 56.9238 0.528734 56.9238 0.265754V0H57.4547V2.39835L57.4494 2.92748C57.7102 2.20974 58.1439 1.61635 58.6897 1.19868C59.2563 0.765139 59.9427 0.520604 60.6819 0.520604C61.6239 0.520604 62.3657 0.784573 62.8795 1.24667C63.4174 1.73019 63.7012 2.42393 63.7012 3.25472V11.8856C63.7012 12.2337 63.7139 12.4207 63.7859 12.4927C63.8577 12.5645 64.0447 12.577 64.3929 12.577H65.1958V13.1248H60.5171V12.577H62.0172C62.0011 12.5066 61.9948 12.4219 61.9948 12.3053V3.54011C61.9948 2.75157 61.8871 2.15144 61.644 1.75796C61.4187 1.39245 61.0617 1.20265 60.5476 1.20265C59.7446 1.20265 59.0358 1.59612 58.531 2.27995C58.0273 2.96298 57.7234 3.93538 57.7234 5.10173V11.8856C57.7234 12.2323 57.7385 12.4182 57.8133 12.4903C57.8898 12.5641 58.0816 12.577 58.4319 12.577H59.2178V13.1248H54.5393Z" fill="black"/>
<path d="M70.7958 12.5771V13.1249H75.4743V12.5771H74.6883C74.3363 12.5771 74.1431 12.567 74.0675 12.4964C73.9948 12.4284 73.9799 12.2477 73.9799 11.9024V1.91137C73.9799 1.56608 73.9948 1.38521 74.0675 1.31718C74.1431 1.24698 74.3363 1.23646 74.6883 1.23646H75.4743V0.654973H70.7958V1.20275H71.5817C71.932 1.20275 72.1208 1.21267 72.192 1.28168C72.2612 1.34832 72.2735 1.53098 72.2735 1.87785V11.9024C72.2735 12.2493 72.2614 12.4315 72.192 12.4988C72.121 12.5672 71.9322 12.5771 71.5817 12.5771H70.7958Z" fill="black"/>
<path d="M76.5216 8.59196L75.8245 8.62448L76.0615 13.6056L76.6077 13.5747C76.5861 13.1211 76.5672 12.6666 76.5415 12.2132C76.5835 12.2564 76.623 12.2923 76.6557 12.3153L76.6581 12.3167C77.1017 12.6247 77.522 12.8583 77.9658 13.0148C78.4144 13.1737 78.8847 13.2536 79.4233 13.2536C80.5928 13.2536 81.5724 12.9357 82.2623 12.38C82.9648 11.814 83.3662 11.0066 83.3662 10.0385C83.3662 8.92813 82.947 8.09337 82.3316 7.41906C81.7298 6.75963 80.9445 6.26084 80.1855 5.80529C79.5425 5.41994 78.9212 5.04571 78.4694 4.60642C78.0384 4.18696 77.7578 3.70026 77.7578 3.06998C77.7578 2.46251 77.9268 1.99962 78.2465 1.69261C78.5705 1.38144 79.0592 1.21961 79.6921 1.21961C80.3985 1.21961 80.9314 1.47267 81.3052 1.86377C81.7505 2.32904 81.9793 2.99303 82.0133 3.66417L82.0561 4.56694L82.7532 4.53442L82.5505 0.184937H81.9845C82.0057 0.556798 82.0228 0.930647 82.0478 1.30191L82.0406 1.29715C81.7681 1.09565 81.4464 0.901693 81.0603 0.757709C80.6732 0.613923 80.2218 0.520706 79.6921 0.520706C78.6518 0.520706 77.781 0.809071 77.1674 1.31361C76.5426 1.82747 76.1859 2.56048 76.1859 3.43946C76.1859 4.47631 76.5875 5.24344 77.1811 5.86539C77.7596 6.47186 78.5154 6.93237 79.2547 7.37603C79.8985 7.76316 80.5238 8.16615 80.982 8.64392C81.422 9.10324 81.7102 9.63813 81.7102 10.3073C81.7102 10.9855 81.4806 11.55 81.0793 11.9421C80.6767 12.3348 80.097 12.5603 79.3981 12.5603C78.6405 12.5603 77.943 12.2473 77.4307 11.6942C76.9355 11.1601 76.6101 10.3997 76.5648 9.47768L76.5216 8.59196Z" fill="black"/>
<path d="M93.4959 2.42245L95.8361 8.161H90.9871L90.7463 8.84304H91.2247C91.6005 8.87517 91.8944 9.00269 92.0922 9.20518C92.2909 9.40906 92.3982 9.69584 92.3982 10.0439L92.3966 10.13C92.3807 10.311 92.3599 10.4921 92.3411 10.6732C92.2647 11.4074 91.9962 11.8437 91.5696 12.0922C91.1233 12.3522 90.4909 12.426 89.7166 12.426H86.692C86.7185 12.379 86.7427 12.3298 86.7645 12.2784C86.8334 12.116 86.8758 11.9328 86.8758 11.7346V1.87785C86.8758 1.53276 86.8907 1.3515 86.9635 1.28367C87.039 1.21326 87.2322 1.20275 87.5842 1.20275H88.3702V0.654973H83.6917V1.20275H84.4776C84.8279 1.20275 85.0167 1.21267 85.0879 1.28168C85.1571 1.34832 85.1694 1.53098 85.1694 1.87785V11.7681C85.1694 12.1267 85.1547 12.3461 85.0708 12.45C84.9941 12.5454 84.8156 12.5771 84.4776 12.5771H83.6917V13.1249H92.1011C92.2034 13.1249 92.2828 13.1201 92.3504 13.108L92.2935 13.9438L92.8531 13.9999C92.9501 12.8129 93.0891 11.5774 93.1391 10.3937C93.1391 9.98856 93.0207 9.57149 92.8097 9.22184C92.7262 9.084 92.628 8.95608 92.5164 8.84304H96.11L97.4091 12.0278C97.4704 12.1765 97.5497 12.3615 97.6433 12.5228L97.6762 12.5771H96.6213V13.1249H100.225V12.5771H99.8925C99.6799 12.5771 99.5583 12.5371 99.4657 12.429C99.3501 12.2935 99.2454 12.045 99.0853 11.6603L95.1218 1.95361C95.0867 1.86773 95.053 1.72375 95.0272 1.56132C95.0018 1.3981 94.9861 1.21623 94.9861 1.05499V0.654973H93.3626L88.4751 11.9328H89.2246L93.3747 2.42543L93.438 2.27113C93.4545 2.31992 93.4737 2.37029 93.4959 2.42245Z" fill="black"/>
<path d="M100.282 12.5771V13.1249H104.96V12.5771H104.174C103.824 12.5771 103.632 12.5642 103.556 12.4904C103.481 12.4183 103.466 12.2324 103.466 11.8857V5.10183C103.466 3.93548 103.77 2.96308 104.274 2.28005C104.778 1.59622 105.487 1.20275 106.29 1.20275C106.804 1.20275 107.161 1.39255 107.386 1.75806C107.63 2.15154 107.737 2.75167 107.737 3.54021V12.3054C107.737 12.422 107.744 12.5067 107.76 12.5771H106.26V13.1249H110.938V12.5771H110.135C109.787 12.5771 109.6 12.5646 109.528 12.4928C109.456 12.4208 109.444 12.2338 109.444 11.8857V3.25482C109.444 2.42403 109.16 1.73029 108.622 1.24677C108.108 0.784675 107.366 0.520706 106.424 0.520706C105.685 0.520706 104.999 0.76524 104.432 1.19878C103.886 1.61645 103.453 2.20984 103.192 2.92758L103.197 2.39846V0.000101471H102.666V0.265856C102.666 0.528835 102.564 0.741836 102.399 0.904264C102.199 1.1018 101.905 1.2329 101.582 1.29775L100.102 1.60495L100.181 2.07359C100.577 2.04027 101.014 1.98137 101.404 1.97265C101.513 1.97265 101.602 2.00874 101.663 2.06765C101.724 2.12754 101.76 2.2148 101.76 2.31436V11.8857C101.76 12.2338 101.747 12.4208 101.675 12.493C101.603 12.5646 101.416 12.5771 101.068 12.5771H100.282Z" fill="black"/>
<path d="M123.975 8.59196L123.278 8.62448L123.515 13.6056L124.061 13.5747C124.039 13.1211 124.02 12.6666 123.995 12.2132C124.037 12.2564 124.076 12.2923 124.109 12.3153L124.111 12.3167C124.555 12.6247 124.975 12.8583 125.419 13.0148C125.868 13.1737 126.338 13.2536 126.876 13.2536C128.046 13.2536 129.026 12.9357 129.716 12.38C130.418 11.814 130.819 11.0066 130.819 10.0385C130.819 8.92813 130.4 8.09337 129.785 7.41906C129.183 6.75963 128.398 6.26084 127.639 5.80529C126.996 5.41994 126.374 5.04571 125.923 4.60642C125.492 4.18696 125.211 3.70026 125.211 3.06998C125.211 2.46251 125.38 1.99962 125.7 1.69261C126.024 1.38144 126.512 1.21961 127.145 1.21961C127.852 1.21961 128.385 1.47267 128.758 1.86377C129.204 2.32904 129.432 2.99303 129.466 3.66417L129.509 4.56694L130.206 4.53442L130.004 0.184937H129.438C129.459 0.556798 129.476 0.930647 129.501 1.30191L129.494 1.29715C129.221 1.09565 128.9 0.901693 128.513 0.757709C128.126 0.613923 127.675 0.520706 127.145 0.520706C126.105 0.520706 125.234 0.809071 124.621 1.31361C123.996 1.82747 123.639 2.56048 123.639 3.43946C123.639 4.47631 124.041 5.24344 124.634 5.86539C125.213 6.47186 125.969 6.93237 126.708 7.37603C127.352 7.76316 127.977 8.16615 128.435 8.64392C128.875 9.10324 129.163 9.63813 129.163 10.3073C129.163 10.9855 128.934 11.55 128.533 11.9421C128.13 12.3348 127.55 12.5603 126.851 12.5603C126.094 12.5603 125.396 12.2473 124.884 11.6942C124.389 11.1601 124.063 10.3997 124.018 9.47768L123.975 8.59196Z" fill="black"/>
<path fill-rule="evenodd" clip-rule="evenodd" d="M115.912 13.1249H110.978V12.5771H111.764C112.112 12.5771 112.299 12.5646 112.372 12.493C112.443 12.4208 112.456 12.2338 112.456 11.8857V2.04583C112.456 1.68487 112.441 1.4566 112.354 1.34296C112.276 1.24083 112.099 1.20275 111.764 1.20275H110.978V0.654973H115.912C117.933 0.654973 119.621 1.27692 120.806 2.36513C121.996 3.45731 122.676 5.01477 122.676 6.8818C122.676 8.75301 121.996 10.3146 120.806 11.41C119.621 12.5012 117.933 13.1249 115.912 13.1249ZM114.051 12.426L114.082 12.3512C114.137 12.2037 114.162 12.0345 114.162 11.8185V1.96174C114.162 1.74577 114.137 1.57659 114.082 1.42864L114.051 1.35388H115.458C117.215 1.35388 118.561 1.83442 119.463 2.7608C120.366 3.68837 120.835 5.07367 120.835 6.8818C120.835 8.69529 120.366 10.0848 119.463 11.0151C118.561 11.9443 117.215 12.426 115.458 12.426H114.051Z" fill="black"/>
</svg>
