<svg width="305" height="51" viewBox="0 0 305 51" fill="none" xmlns="http://www.w3.org/2000/svg">
<path fill-rule="evenodd" clip-rule="evenodd" d="M73.9121 30.4546H72.8995V28.3698C72.8995 27.0082 72.5548 26.2658 72.0254 25.8736C71.4864 25.474 70.7172 25.3988 69.9135 25.3988H69.0387V34.2996C69.0387 34.6678 68.9602 35.0084 68.833 35.3103C68.7926 35.4058 68.7479 35.4972 68.6988 35.5846H74.1666C75.5654 35.5846 76.5887 35.3096 77.2717 34.6966C77.953 34.0843 78.3255 33.1112 78.4267 31.7142L78.6386 28.8748H79.8646L79.2894 38.0948L78.2796 38.0203L78.357 36.812L78.3376 36.8164C78.111 36.8658 77.8521 36.8835 77.5812 36.8835H63.1521V35.8654H64.6051C65.249 35.8654 65.5947 35.8422 65.7282 35.7091C65.8606 35.575 65.884 35.2274 65.884 34.5805V16.0111C65.884 15.3635 65.8606 15.0166 65.7275 14.8828C65.5944 14.749 65.249 14.725 64.6051 14.725H63.1521V13.7069H75.9049C76.1751 13.7069 76.4336 13.7257 76.6598 13.774L76.6803 13.7784L76.603 12.5709L77.6116 12.4946L78.2206 21.716H76.9252L76.7815 19.1833C76.6943 17.6031 76.2851 16.5533 75.5621 15.9112C74.8379 15.2676 73.7677 15.0059 72.366 15.0059H68.6988C68.7479 15.0933 68.7926 15.1847 68.833 15.2802C68.9602 15.5832 69.0387 15.923 69.0387 16.292V24.0998H69.9135C70.7186 24.0998 71.489 24.032 72.0268 23.6398C72.5552 23.2546 72.8995 22.52 72.8995 21.1606V19.699H73.9121V30.4546ZM93.7236 36.8835H80.2878V35.8654H81.7408C82.3656 35.8654 82.6955 35.8065 82.8374 35.6292C82.9925 35.436 83.0197 35.0283 83.0197 34.3619V15.9798C83.0197 15.3351 82.9969 14.9956 82.869 14.8717C82.7377 14.7438 82.3883 14.725 81.7408 14.725H80.2878V13.7069H88.937V14.725H87.484C86.8335 14.725 86.4761 14.7446 86.3364 14.8754C86.2018 15.0015 86.1743 15.3384 86.1743 15.9798V34.2996C86.1743 34.6678 86.0958 35.0084 85.9686 35.3103C85.9283 35.4058 85.8836 35.4972 85.8344 35.5846H89.3154C90.7471 35.5846 91.9321 35.4474 92.7641 34.9642C93.5582 34.5031 94.0528 33.6954 94.1654 32.3338L94.4404 28.8748H95.7926L95.1172 38.5102L94.0792 38.4055L94.1841 36.8522C94.0594 36.8747 93.9124 36.8835 93.7236 36.8835ZM117.472 24.7121H100.175V24.7184C100.175 28.3053 100.973 31.0676 102.396 32.9402C103.842 34.8455 105.952 35.8341 108.531 35.8341C110.533 35.8341 112.321 35.4073 113.823 34.6207C115.351 33.8219 116.589 32.6493 117.463 31.1767L117.672 30.8251L118.711 31.6172L118.539 31.9007C117.534 33.5591 116.119 34.8801 114.376 35.7807C112.679 36.6568 110.675 37.1331 108.438 37.1331C105.041 37.1331 102.072 35.9111 99.9657 33.7762C97.9089 31.6917 96.6788 28.7421 96.6788 25.2178C96.6788 21.698 97.8637 18.7598 99.9371 16.6978C102.01 14.6362 104.963 13.4574 108.5 13.4574C111.361 13.4574 113.991 14.4873 115.877 16.2831C117.678 17.9975 118.8 20.4075 118.8 23.2826V23.4389C118.8 23.7935 118.647 24.115 118.401 24.3464C118.16 24.5717 117.83 24.7121 117.472 24.7121ZM102.489 17.0369C101.168 18.4885 100.397 20.6301 100.215 23.4094L115.304 23.1979C115.289 20.6548 114.592 18.542 113.382 17.0675C112.177 15.5972 110.45 14.7564 108.376 14.7564C105.833 14.7564 103.855 15.5349 102.489 17.0369ZM118.316 13.7069H125.195V14.725H123.276C123.477 15.0395 123.636 15.4202 123.745 15.7299L130.879 33.0976C130.897 33.1403 130.944 33.2653 130.994 33.4323C131.038 33.2922 131.094 33.1385 131.165 32.9719L138.119 16.1504C138.18 16.0067 138.226 15.8732 138.255 15.7498C138.283 15.6362 138.297 15.5264 138.297 15.4228C138.297 15.2127 138.224 15.0409 138.066 14.9289C137.882 14.7991 137.583 14.725 137.153 14.725H134.117V13.7069H141.617V14.725H140.878C140.505 14.725 140.276 14.8238 140.097 15.0424C139.874 15.3144 139.682 15.7748 139.416 16.4284L131.136 37.021L128.966 37.1825L120.64 16.4284C120.369 15.7531 120.178 15.2938 119.955 15.0291C119.775 14.8157 119.54 14.725 119.148 14.725H118.316V13.7069ZM161.801 24.7121H144.504V24.7184C144.504 28.3053 145.303 31.0676 146.725 32.9402C148.172 34.8455 150.281 35.8341 152.861 35.8341C154.863 35.8341 156.65 35.4073 158.153 34.6207C159.681 33.8219 160.919 32.6493 161.793 31.1767L162.001 30.8251L163.04 31.6172L162.869 31.9007C161.864 33.5591 160.449 34.8801 158.705 35.7807C157.009 36.6568 155.004 37.1331 152.767 37.1331C149.37 37.1331 146.401 35.9111 144.295 33.7762C142.238 31.6917 141.008 28.7421 141.008 25.2178C141.008 21.698 142.193 18.7598 144.267 16.6978C146.34 14.6362 149.293 13.4574 152.83 13.4574C155.69 13.4574 158.32 14.4873 160.206 16.2831C162.008 17.9975 163.13 20.4075 163.13 23.2826V23.4389C163.13 23.7935 162.977 24.115 162.73 24.3464C162.489 24.5717 162.16 24.7121 161.801 24.7121ZM146.819 17.0369C145.497 18.4885 144.726 20.6301 144.545 23.4094L159.634 23.1979C159.619 20.6548 158.921 18.542 157.712 17.0675C156.506 15.5972 154.78 14.7564 152.705 14.7564C150.162 14.7564 148.185 15.5349 146.819 17.0369ZM163.98 36.8835V35.8654H165.433C166.077 35.8654 166.422 35.8422 166.556 35.7091C166.688 35.575 166.712 35.2274 166.712 34.5805V16.7911C166.712 16.606 166.646 16.4439 166.532 16.3325C166.421 16.2231 166.256 16.156 166.054 16.156C165.333 16.1722 164.526 16.2817 163.793 16.3436L163.648 15.4726L166.383 14.9016C166.98 14.7811 167.524 14.5374 167.894 14.1703C168.199 13.8684 168.388 13.4725 168.388 12.9837V12.4898H169.37V16.9474L169.36 17.9308C169.842 16.5968 170.644 15.4939 171.653 14.7177C172.7 13.9119 173.969 13.4574 175.336 13.4574C177.077 13.4574 178.448 13.948 179.398 14.8069C180.393 15.7055 180.917 16.9949 180.917 18.539V34.5805C180.917 35.2274 180.941 35.575 181.074 35.7088C181.207 35.8422 181.553 35.8654 182.196 35.8654H183.681V36.8835H175.031V35.8654H177.804C177.775 35.7346 177.763 35.5772 177.763 35.3604V19.0694C177.763 17.6039 177.564 16.4885 177.114 15.7571C176.698 15.0778 176.038 14.725 175.087 14.725C173.603 14.725 172.292 15.4564 171.359 16.7273C170.428 17.9968 169.866 19.8041 169.866 21.9719V34.5805C169.866 35.2248 169.894 35.5702 170.032 35.7044C170.174 35.8415 170.529 35.8654 171.176 35.8654H172.629V36.8835H163.98Z" fill="white"/>
<path d="M194.033 35.8656V36.8837H202.683V35.8656H201.23C200.579 35.8656 200.222 35.8468 200.082 35.7156C199.947 35.5892 199.92 35.2534 199.92 34.6116V16.0423C199.92 15.4005 199.947 15.0643 200.082 14.9379C200.222 14.8074 200.579 14.7879 201.23 14.7879H202.683V13.7071H194.033V14.7252H195.486C196.134 14.7252 196.483 14.7437 196.615 14.8719C196.743 14.9958 196.765 15.3353 196.765 15.98V34.6116C196.765 35.2563 196.743 35.5951 196.615 35.72C196.483 35.8472 196.134 35.8656 195.486 35.8656H194.033Z" fill="white"/>
<path d="M204.619 28.4588L203.33 28.5193L203.768 37.7772L204.778 37.7197C204.738 36.8767 204.703 36.0319 204.656 35.1892C204.733 35.2696 204.806 35.3363 204.867 35.3791L204.871 35.3816C205.691 35.9541 206.468 36.3883 207.289 36.6791C208.118 36.9744 208.987 37.123 209.983 37.123C212.145 37.123 213.956 36.5321 215.232 35.4992C216.53 34.4472 217.273 32.9466 217.273 31.1475C217.273 29.0836 216.498 27.5321 215.36 26.2789C214.247 25.0533 212.795 24.1262 211.392 23.2795C210.204 22.5633 209.055 21.8678 208.22 21.0513C207.423 20.2717 206.904 19.3671 206.904 18.1957C206.904 17.0666 207.217 16.2063 207.808 15.6357C208.407 15.0573 209.31 14.7566 210.48 14.7566C211.786 14.7566 212.771 15.2269 213.462 15.9538C214.286 16.8186 214.709 18.0526 214.771 19.3L214.851 20.9779L216.139 20.9175L215.765 12.8335H214.718C214.757 13.5247 214.789 14.2195 214.835 14.9095L214.822 14.9007C214.318 14.5262 213.723 14.1657 213.01 13.8981C212.294 13.6308 211.459 13.4576 210.48 13.4576C208.557 13.4576 206.947 13.9935 205.813 14.9313C204.658 15.8863 203.998 17.2487 203.998 18.8824C203.998 20.8095 204.741 22.2353 205.838 23.3912C206.907 24.5184 208.305 25.3743 209.672 26.1989C210.862 26.9184 212.018 27.6674 212.865 28.5554C213.678 29.4091 214.211 30.4032 214.211 31.6469C214.211 32.9075 213.787 33.9566 213.045 34.6854C212.301 35.4152 211.229 35.8343 209.937 35.8343C208.536 35.8343 207.247 35.2526 206.3 34.2246C205.384 33.2319 204.782 31.8187 204.699 30.105L204.619 28.4588Z" fill="white"/>
<path d="M235.999 16.9922L240.326 27.6578H231.361L230.916 28.9255H231.801C232.495 28.9852 233.039 29.2222 233.404 29.5986C233.772 29.9775 233.97 30.5105 233.97 31.1574L233.967 31.3174C233.938 31.6539 233.899 31.9905 233.865 32.327C233.723 33.6916 233.227 34.5025 232.438 34.9644C231.613 35.4476 230.444 35.5848 229.013 35.5848H223.421C223.47 35.4974 223.515 35.406 223.555 35.3105C223.682 35.0086 223.761 34.668 223.761 34.2998V15.98C223.761 15.3386 223.788 15.0017 223.923 14.8756C224.063 14.7448 224.42 14.7252 225.07 14.7252H226.524V13.7071H217.874V14.7252H219.327C219.975 14.7252 220.324 14.7437 220.455 14.8719C220.583 14.9958 220.606 15.3353 220.606 15.98V34.3621C220.606 35.0285 220.579 35.4362 220.424 35.6293C220.282 35.8066 219.952 35.8656 219.327 35.8656H217.874V36.8837H233.421C233.61 36.8837 233.757 36.8749 233.882 36.8524L233.777 38.4057L234.811 38.51C234.991 36.3039 235.248 34.0075 235.34 31.8076C235.34 31.0546 235.121 30.2794 234.731 29.6295C234.577 29.3733 234.395 29.1356 234.189 28.9255H240.832L243.234 34.8446C243.347 35.121 243.494 35.4649 243.667 35.7646L243.728 35.8656H241.778V36.8837H248.44V35.8656H247.825C247.432 35.8656 247.207 35.7912 247.036 35.5903C246.822 35.3385 246.629 34.8767 246.333 34.1616L239.005 16.1208C238.94 15.9612 238.878 15.6936 238.83 15.3917C238.783 15.0883 238.754 14.7503 238.754 14.4506V13.7071H235.753L226.717 34.668H228.103L235.775 16.9977L235.892 16.7109C235.923 16.8016 235.958 16.8952 235.999 16.9922Z" fill="white"/>
<path d="M248.545 35.8656V36.8837H257.194V35.8656H255.741C255.093 35.8656 254.739 35.8417 254.597 35.7045C254.459 35.5704 254.431 35.225 254.431 34.5807V21.9721C254.431 19.8043 254.993 17.997 255.924 16.7275C256.857 15.4565 258.168 14.7252 259.652 14.7252C260.603 14.7252 261.263 15.078 261.679 15.7573C262.129 16.4886 262.328 17.6041 262.328 19.0696V35.3606C262.328 35.5774 262.339 35.7348 262.369 35.8656H259.596V36.8837H268.245V35.8656H266.761C266.117 35.8656 265.772 35.8424 265.639 35.709C265.506 35.5752 265.482 35.2276 265.482 34.5807V18.5392C265.482 16.9951 264.958 15.7057 263.963 14.8071C263.013 13.9482 261.642 13.4576 259.901 13.4576C258.534 13.4576 257.265 13.9121 256.218 14.7179C255.209 15.4941 254.407 16.597 253.925 17.931L253.934 16.9476V12.49H252.953V12.9839C252.953 13.4727 252.764 13.8686 252.459 14.1705C252.089 14.5376 251.545 14.7813 250.948 14.9018L248.213 15.4728L248.358 16.3438C249.091 16.2818 249.898 16.1724 250.619 16.1562C250.821 16.1562 250.986 16.2232 251.097 16.3327C251.211 16.444 251.277 16.6062 251.277 16.7913V34.5807C251.277 35.2276 251.253 35.5752 251.121 35.7093C250.987 35.8424 250.642 35.8656 249.998 35.8656H248.545Z" fill="white"/>
<path d="M292.346 28.4588L291.057 28.5193L291.496 37.7772L292.505 37.7197C292.465 36.8767 292.431 36.0319 292.383 35.1892C292.461 35.2696 292.534 35.3363 292.594 35.3791L292.599 35.3816C293.419 35.9541 294.196 36.3883 295.016 36.6791C295.846 36.9744 296.715 37.123 297.711 37.123C299.873 37.123 301.684 36.5321 302.959 35.4992C304.258 34.4472 305 32.9466 305 31.1475C305 29.0836 304.225 27.5321 303.087 26.2789C301.975 25.0533 300.523 24.1262 299.12 23.2795C297.931 22.5633 296.782 21.8678 295.947 21.0513C295.15 20.2717 294.632 19.3671 294.632 18.1957C294.632 17.0666 294.944 16.2063 295.535 15.6357C296.134 15.0573 297.037 14.7566 298.207 14.7566C299.513 14.7566 300.499 15.2269 301.19 15.9538C302.013 16.8186 302.436 18.0526 302.499 19.3L302.578 20.9779L303.867 20.9175L303.492 12.8335H302.446C302.485 13.5247 302.516 14.2195 302.563 14.9095L302.549 14.9007C302.046 14.5262 301.451 14.1657 300.737 13.8981C300.021 13.6308 299.187 13.4576 298.207 13.4576C296.284 13.4576 294.674 13.9935 293.54 14.9313C292.385 15.8863 291.726 17.2487 291.726 18.8824C291.726 20.8095 292.468 22.2353 293.565 23.3912C294.635 24.5184 296.032 25.3743 297.399 26.1989C298.589 26.9184 299.745 27.6674 300.592 28.5554C301.406 29.4091 301.939 30.4032 301.939 31.6469C301.939 32.9075 301.514 33.9566 300.772 34.6854C300.028 35.4152 298.956 35.8343 297.664 35.8343C296.264 35.8343 294.974 35.2526 294.027 34.2246C293.111 33.2319 292.51 31.8187 292.426 30.105L292.346 28.4588Z" fill="white"/>
<path fill-rule="evenodd" clip-rule="evenodd" d="M277.44 36.8837H268.319V35.8656H269.772C270.416 35.8656 270.762 35.8424 270.895 35.7093C271.027 35.5752 271.051 35.2276 271.051 34.5807V16.2922C271.051 15.6213 271.023 15.197 270.863 14.9858C270.719 14.796 270.392 14.7252 269.772 14.7252H268.319V13.7071H277.44C281.177 13.7071 284.297 14.8631 286.489 16.8856C288.687 18.9156 289.944 21.8102 289.944 25.2803C289.944 28.7581 288.688 31.6605 286.488 33.6964C284.297 35.7244 281.177 36.8837 277.44 36.8837ZM273.999 35.5848L274.057 35.4458C274.159 35.1715 274.206 34.8571 274.206 34.4557V16.1359C274.206 15.7345 274.159 15.42 274.057 15.1451L273.999 15.0061H276.602C279.849 15.0061 282.338 15.8992 284.005 17.621C285.675 19.345 286.541 21.9197 286.541 25.2803C286.541 28.6509 285.675 31.2333 284.005 32.9625C282.338 34.6894 279.849 35.5848 276.602 35.5848H273.999Z" fill="white"/>
<path d="M48.4914 32.3631L46.1347 31.7245L46.195 31.5047L46.6638 31.6319C46.9752 31.716 47.1673 31.683 47.291 31.5858C47.4166 31.4871 47.4819 31.3159 47.5321 31.1323L47.5881 30.9281L45.559 30.3781C45.4753 30.356 45.4033 30.3174 45.3432 30.2705C45.3218 30.2536 45.3018 30.2359 45.2834 30.217L44.9403 31.4685C44.853 31.7873 44.8521 32.038 44.9498 32.233C45.0469 32.4269 45.246 32.5723 45.5588 32.6819L46.1864 32.9033L46.1125 33.1723L44.0619 32.4766L44.1386 32.2612L44.4102 32.354L44.4108 32.3427C44.4135 32.289 44.4257 32.2292 44.4427 32.1675L45.3404 28.8922L45.5615 28.952L45.4722 29.2777C45.4319 29.4251 45.4156 29.5059 45.4385 29.5463C45.462 29.5868 45.5402 29.6138 45.6886 29.6542L49.9114 30.7985C50.0598 30.8386 50.1412 30.8547 50.1816 30.8317C50.2224 30.8088 50.2497 30.7308 50.2901 30.5831L50.3792 30.2582L50.6003 30.3181L49.8071 33.2121C49.7901 33.2738 49.7701 33.3315 49.7455 33.3788L49.74 33.389L50.0213 33.4464L49.9776 33.67L47.8535 33.2424L47.9316 32.958L48.5112 33.08C48.8776 33.1579 49.1431 33.1295 49.3352 33.004C49.528 32.878 49.6551 32.6499 49.7427 32.3302L49.9736 31.4881C49.9482 31.495 49.9219 31.5002 49.8947 31.5038C49.8187 31.5141 49.7371 31.5107 49.6538 31.4882L47.873 31.0053L47.8171 31.2096C47.7667 31.3931 47.7342 31.5732 47.7904 31.7216C47.8457 31.8673 47.9923 31.9919 48.3033 32.0761L48.6304 32.1648L48.5699 32.3846L48.4914 32.3631Z" fill="white"/>
<path d="M42.8873 35.6442L44.3214 32.8235L44.5262 32.9263L44.3732 33.227C44.3057 33.3599 44.283 33.4369 44.3059 33.4873C44.3307 33.5419 44.4141 33.5913 44.5549 33.6621L48.4216 35.606C48.5586 35.6748 48.6333 35.7061 48.6751 35.6915C48.7179 35.6768 48.7596 35.6048 48.8294 35.4675L48.9824 35.1664L49.1871 35.2697L48.2672 37.0789L48.0625 36.9763L48.2154 36.6753C48.2855 36.5372 48.32 36.4591 48.3067 36.414C48.2941 36.3705 48.2256 36.3283 48.0893 36.2601L44.2358 34.3227C44.1584 34.2838 44.0956 34.2318 44.0463 34.1739C44.0287 34.1534 44.0127 34.1319 43.9985 34.11L43.6223 34.8496C43.4691 35.1514 43.3711 35.4156 43.3839 35.6432C43.396 35.8604 43.5138 36.0514 43.7898 36.22L44.4837 36.6416L44.3438 36.9163L42.3987 35.7612L42.5261 35.5625L42.8432 35.7496C42.8516 35.7199 42.8657 35.6864 42.8873 35.6442Z" fill="white"/>
<path fill-rule="evenodd" clip-rule="evenodd" d="M41.8204 41.8496L44.3555 38.6476L44.3502 38.6436C43.6849 38.1229 43.0554 37.8696 42.499 37.8616C41.9322 37.8532 41.4385 38.101 41.0593 38.5799C40.7652 38.9514 40.5818 39.3449 40.5071 39.7377C40.4312 40.137 40.467 40.5374 40.612 40.9141L40.6447 40.9983L40.3556 41.0733L40.3298 41.0047C40.1703 40.5786 40.1328 40.1262 40.2213 39.6742C40.3075 39.2342 40.513 38.7946 40.8406 38.3809C41.3377 37.7528 41.9981 37.3808 42.7008 37.3005C43.3788 37.2232 44.0952 37.4173 44.7412 37.9147L44.7637 37.932C45.4143 38.4416 45.7843 39.0858 45.8621 39.7675C45.939 40.4406 45.7303 41.1481 45.2255 41.7959L45.208 41.8184C44.7892 42.3472 44.2143 42.6841 43.6068 42.773C43.0266 42.8575 42.4171 42.7161 41.8859 42.3003L41.8525 42.2741C41.7903 42.2233 41.7555 42.1511 41.749 42.0754C41.7427 41.9998 41.765 41.9197 41.8166 41.8544L41.8204 41.8496ZM45.435 40.1889C45.3595 39.7313 45.0741 39.276 44.5827 38.8377L42.4038 41.6704C42.8792 42.039 43.3752 42.2175 43.8281 42.2073C44.2787 42.1973 44.6888 41.9989 44.9937 41.6136C45.3671 41.1418 45.5132 40.6614 45.435 40.1889Z" fill="white"/>
<path d="M42.4632 44.5874L42.5482 44.7076L41.2239 45.6346L41.0918 45.448L41.4673 45.1854C41.3847 45.1531 41.3 45.101 41.2353 45.0556L37.4933 42.6924C37.4822 42.6848 37.4501 42.6631 37.4128 42.6334C37.4252 42.6701 37.4371 42.7126 37.4474 42.7611L38.3819 46.9278C38.3896 46.9631 38.399 46.9952 38.4103 47.0238C38.4203 47.0487 38.4314 47.0704 38.4437 47.0887L38.4469 47.0932C38.4754 47.1335 38.5121 47.157 38.5568 47.1586C38.6108 47.1604 38.6797 47.1354 38.7642 47.0774C38.9039 46.9781 39.0448 46.88 39.1855 46.7819L39.3545 46.664L39.4867 46.8506L38.0418 47.862L37.9099 47.6754L38.0486 47.5781C38.1221 47.5266 38.1536 47.4755 38.1588 47.4074C38.1651 47.3247 38.1398 47.2098 38.1025 47.048L36.9141 41.9812L37.3073 41.6602L41.7333 44.5069C41.8778 44.5999 41.9777 44.6623 42.0572 44.6827C42.123 44.6996 42.182 44.6849 42.2593 44.6309L42.4164 44.5209L42.4632 44.5874Z" fill="white"/>
<path fill-rule="evenodd" clip-rule="evenodd" d="M31.474 47.772L35.2932 46.2787L35.2904 46.2722C34.9756 45.4759 34.5518 44.9366 34.0658 44.654C33.5869 44.3754 33.0435 44.3462 32.4822 44.5654L32.474 44.5687C32.0358 44.7415 31.6805 44.9878 31.4179 45.2877C31.1494 45.5947 30.977 45.9579 30.9111 46.3554L30.8962 46.4448L30.6089 46.3644L30.6214 46.2925C30.7 45.8444 30.8975 45.4348 31.2035 45.0893C31.5012 44.7527 31.9017 44.4764 32.3948 44.2836C33.1341 43.9947 33.8835 44.0016 34.5257 44.2753C35.168 44.5491 35.7017 45.0893 36.0089 45.8661C36.3118 46.6324 36.3042 47.3741 36.0255 48.0014C35.7469 48.6283 35.1979 49.139 34.419 49.4437C33.7894 49.69 33.1221 49.692 32.5528 49.4639C32.0089 49.2453 31.5545 48.8175 31.3069 48.1914L31.2936 48.1574C31.2633 48.0813 31.2694 47.9993 31.3031 47.929C31.3363 47.8605 31.3962 47.8025 31.474 47.772ZM35.4422 48.1514C35.6093 47.7179 35.5943 47.1816 35.3927 46.5566L32.0738 47.908C32.2968 48.4648 32.6344 48.868 33.0306 49.0867C33.4247 49.304 33.8798 49.3386 34.3387 49.1592C34.9003 48.9397 35.2698 48.5986 35.4422 48.1514Z" fill="white"/>
<path d="M27.9686 45.435L29.9086 45.1764L29.9391 45.4024L29.6031 45.4471C29.4505 45.4677 29.3692 45.4842 29.341 45.5208C29.3126 45.5578 29.3179 45.64 29.3384 45.7917L29.8955 49.9266C29.9019 49.969 29.9223 50.0048 29.9524 50.0275C29.9828 50.0507 30.0243 50.0621 30.0724 50.0563C30.1937 50.0346 30.3171 50.0062 30.4395 49.978C30.4915 49.9661 30.5452 49.9537 30.5966 49.9424L30.6549 50.1307L30.0351 50.3476C29.8979 50.3944 29.7771 50.4687 29.7011 50.566C29.638 50.6471 29.6054 50.7464 29.6207 50.8615L29.6357 50.9708L29.4156 51L29.2768 49.9701L29.2444 49.711C29.176 50.0476 29.0201 50.3387 28.8016 50.5563C28.5817 50.7752 28.2988 50.9199 27.9786 50.9628L27.9713 50.9637C27.5593 51.017 27.2213 50.9429 26.9728 50.7683C26.7202 50.591 26.5621 50.3128 26.5149 49.9618L26.0127 46.2352C25.9921 46.0834 25.9755 46.0027 25.9385 45.9743C25.9014 45.9464 25.8185 45.9516 25.666 45.9717L25.3228 46.0178L25.2923 45.7917L27.3131 45.5224L27.3436 45.7484L26.6909 45.8355C26.7029 45.8657 26.711 45.9029 26.7183 45.9566L27.2285 49.741C27.2742 50.0819 27.3566 50.3355 27.4861 50.4926C27.6067 50.6388 27.774 50.7009 27.9988 50.6709C28.3441 50.6249 28.6272 50.4182 28.8078 50.0995C28.9929 49.7731 29.0717 49.3292 29.0029 48.8184L28.6081 45.8892C28.5878 45.7383 28.5699 45.6582 28.5315 45.6299C28.4924 45.6011 28.4075 45.6066 28.2542 45.627L27.9183 45.6718L27.888 45.4459L27.9686 45.435Z" fill="white"/>
<path d="M23.2613 45.5276L23.2236 45.7525L22.8891 45.6971C22.7364 45.6719 22.6533 45.6626 22.6161 45.6883C22.5795 45.7133 22.5606 45.7914 22.5354 45.9418L21.8145 50.2499C21.7893 50.4 21.7815 50.4803 21.808 50.5158C21.835 50.552 21.9165 50.5701 22.0689 50.5952L22.4036 50.6506L22.366 50.8757L20.3546 50.5427L20.3949 50.3034L20.7292 50.3588C20.8824 50.3841 20.9676 50.3934 21.007 50.3674C21.0452 50.3423 21.065 50.2646 21.0901 50.1149L21.8087 45.8218C21.8338 45.6721 21.8402 45.5924 21.8122 45.556C21.7835 45.5188 21.6999 45.5005 21.5467 45.475L21.2122 45.4197L21.2498 45.1949L23.2613 45.5276Z" fill="white"/>
<path d="M21.0209 45.1302L20.4647 47.1354L20.18 47.0573L20.2815 46.6896C20.3885 46.3009 20.3566 45.9404 20.2228 45.6509C20.0848 45.3521 19.8374 45.1276 19.5225 45.0239L19.5191 45.0229C19.2267 44.9277 18.9531 44.9424 18.7307 45.0515C18.5101 45.1595 18.3371 45.3613 18.244 45.641L18.2427 45.6452C18.1509 45.9237 18.1981 46.1855 18.3192 46.4365C18.4447 46.6967 18.6507 46.9488 18.8662 47.1968C19.1133 47.4807 19.365 47.7733 19.5227 48.102C19.6844 48.4389 19.7467 48.8093 19.6057 49.2375C19.4864 49.6 19.2389 49.8542 18.9101 49.9816C18.5872 50.1065 18.1866 50.1075 17.7547 49.967C17.535 49.8953 17.3603 49.7958 17.219 49.6839C17.079 49.5732 16.9716 49.4497 16.8857 49.3292L16.8768 49.3162C16.8498 49.424 16.8203 49.5318 16.791 49.6395C16.777 49.6908 16.763 49.7421 16.7493 49.7933L16.5234 49.7197L17.0296 47.9012L17.3144 47.9799L17.2105 48.3547C17.1328 48.638 17.1375 48.9451 17.26 49.1994C17.3629 49.4132 17.5512 49.5914 17.8465 49.6874C18.1112 49.7738 18.3381 49.7731 18.5167 49.6874C18.6932 49.603 18.8276 49.4332 18.9108 49.1807C18.9973 48.9181 18.9467 48.6775 18.8238 48.4439C18.6957 48.2007 18.4875 47.9612 18.272 47.7141C18.0186 47.4227 17.7599 47.1104 17.5996 46.7563C17.4376 46.3983 17.3765 46.0015 17.5223 45.5483L17.5265 45.5353C17.6582 45.1361 17.9343 44.8569 18.3023 44.7185C18.6639 44.5826 19.1137 44.584 19.5995 44.7423C19.8236 44.8152 20.0079 44.912 20.1726 45.0379C20.3362 45.1631 20.4791 45.3164 20.6212 45.5032C20.6332 45.5196 20.6473 45.5449 20.6607 45.5734C20.6973 45.4353 20.7359 45.2974 20.7745 45.1596C20.79 45.1039 20.8057 45.0481 20.8211 44.9924L21.0427 45.0509L21.0209 45.1302Z" fill="white"/>
<path d="M12.0425 43.4624L11.5528 46.126C11.5481 46.1555 11.5421 46.1832 11.535 46.2087L11.6065 46.1583L15.3767 43.6418L15.6443 43.8117C15.0775 44.1923 14.5107 44.5727 13.9438 44.953L13.9226 44.9673C13.0123 45.5781 12.1011 46.1895 11.1914 46.8011L10.5988 46.4249L10.6902 46.2828C10.7271 46.225 10.7644 46.154 10.7943 46.0865C10.823 46.0215 10.8446 45.9603 10.852 45.9188L11.6763 41.4266C11.7077 41.2465 11.7278 41.1303 11.717 41.0525C11.708 40.9893 11.672 40.945 11.5924 40.8942L11.4741 40.8194L11.5972 40.6271L12.9189 41.4661L12.7956 41.6581L12.4024 41.4084L12.4017 41.4456C12.3986 41.5262 12.3843 41.6124 12.3718 41.6817L12.1001 43.1592L13.4408 44.0102C13.4244 43.9392 13.4175 43.8652 13.4193 43.7914C13.4234 43.6148 13.4778 43.4348 13.5731 43.2864C13.7641 43.0024 13.9927 42.7126 14.2168 42.4287C14.322 42.2954 14.4266 42.1629 14.5254 42.0333L14.7105 42.1784L14.4913 42.4737C14.5202 42.485 14.552 42.5028 14.5926 42.5283L17.6936 44.4961L17.5702 44.6882L17.2846 44.5071C17.1585 44.427 17.0837 44.3967 17.0308 44.4146C16.9735 44.4336 16.9159 44.5113 16.8309 44.6437L14.5 48.2753C14.4175 48.4039 14.3788 48.4748 14.3892 48.518C14.3997 48.5615 14.4676 48.6101 14.598 48.6929L14.8836 48.874L14.7606 49.0661L13.0418 47.9755L13.1651 47.7835L13.4508 47.9646C13.5817 48.0478 13.6564 48.0897 13.703 48.0813C13.7481 48.0728 13.7969 48.0093 13.879 47.8814L16.202 44.262C16.2486 44.1893 16.3068 44.1324 16.3697 44.0893C16.3923 44.074 16.4154 44.0604 16.4389 44.0484L15.3144 43.3346C15.0281 43.1529 14.7764 43.0317 14.549 43.0224C14.3313 43.0136 14.1277 43.1115 13.9252 43.3648L13.7768 43.551L13.7553 43.5829C13.6727 43.7112 13.6445 43.8432 13.6702 43.9661C13.6958 44.0884 13.7753 44.2058 13.9077 44.3064L14.0775 44.414L13.8369 44.601L12.0425 43.4624Z" fill="white"/>
<path d="M10.3999 39.0006L11.6747 40.4774L11.5008 40.6259L11.2799 40.3699C11.1797 40.254 11.1214 40.1952 11.0751 40.1916C11.0285 40.1882 10.9618 40.2376 10.845 40.3372L7.66348 43.053C7.62966 43.0819 7.61024 43.1197 7.60779 43.1587C7.60534 43.1962 7.61858 43.2367 7.64952 43.2732C7.73439 43.363 7.82643 43.4511 7.91759 43.5384C7.95565 43.5748 7.99355 43.6111 8.03071 43.6473L7.90351 43.7987L7.38316 43.4C7.26904 43.3113 7.14083 43.2509 7.01664 43.2409C6.91375 43.2323 6.8123 43.2591 6.7238 43.3346L6.63976 43.4062L6.49529 43.2387L7.28833 42.5617L7.48907 42.3936C7.16788 42.5203 6.83748 42.5487 6.53515 42.485C6.23051 42.4211 5.95422 42.264 5.74383 42.0201C5.47589 41.71 5.35256 41.3912 5.35947 41.0917C5.36652 40.7782 5.51575 40.4888 5.79074 40.2539L8.65985 37.8049C8.77641 37.7053 8.83541 37.6475 8.83901 37.6015C8.84247 37.5552 8.79282 37.4888 8.69252 37.3728L8.46717 37.1115L8.641 36.9628L9.96921 38.5014L9.79509 38.6501L9.36627 38.1532C9.34756 38.1796 9.32036 38.2066 9.27892 38.2421L6.36534 40.7291C6.10258 40.9532 5.93349 41.1598 5.87176 41.353C5.81391 41.5332 5.85291 41.7067 6.00098 41.8782C6.23079 42.1445 6.56551 42.2675 6.93922 42.2402C7.31106 42.213 7.72233 42.0372 8.11044 41.7059L10.3654 39.7811C10.4816 39.6819 10.5394 39.6233 10.5422 39.576C10.545 39.5277 10.4942 39.46 10.3934 39.3432L10.1727 39.0874L10.3468 38.939L10.3999 39.0006Z" fill="white"/>
<path fill-rule="evenodd" clip-rule="evenodd" d="M7.53397 35.0648L8.51063 36.9757L8.306 37.0793L8.15245 36.7784C8.08252 36.642 8.03992 36.5713 7.99575 36.5569C7.95171 36.5427 7.8753 36.5749 7.73802 36.6441L3.89484 38.5862C3.7531 38.6578 3.66647 38.7092 3.63855 38.7668C3.61337 38.8189 3.63366 38.8963 3.701 39.0281L3.85469 39.3288L3.65006 39.4322L2.67311 37.5206C2.27264 36.7369 2.1804 35.96 2.36977 35.2864C2.55987 34.6103 3.03244 34.0399 3.76043 33.6719C4.48973 33.3036 5.23313 33.2593 5.89565 33.5046C6.55573 33.7489 7.13334 34.2808 7.53397 35.0648ZM7.60045 35.9302L7.64333 35.9275L7.36014 35.3733C7.01103 34.6903 6.55472 34.2619 6.01149 34.0946C5.46711 33.9269 4.83006 34.0193 4.12048 34.3778L4.10997 34.3829C3.40917 34.7395 2.96394 35.1939 2.78133 35.7266C2.598 36.2612 2.67758 36.8805 3.02682 37.5638L3.30973 38.1173L3.33751 38.0843C3.38356 38.0347 3.44429 37.9918 3.52876 37.9493L7.37783 36.0041C7.46187 35.9614 7.53253 35.938 7.60045 35.9302Z" fill="white"/>
<path d="M6.34376 32.035L4.36209 32.7018L4.26769 32.4235L4.63061 32.3007C5.01454 32.1708 5.29644 31.9426 5.4625 31.6701C5.63447 31.3879 5.68238 31.0569 5.59072 30.7383C5.50625 30.4445 5.34048 30.2277 5.12549 30.1056C4.91064 29.9839 4.6437 29.9549 4.35662 30.0368C4.07356 30.1172 3.88218 30.3028 3.74101 30.5432C3.59481 30.7925 3.5004 31.1033 3.41478 31.42C3.31736 31.7821 3.21476 32.1529 3.02884 32.468C2.83889 32.7904 2.56533 33.0497 2.13003 33.1738C1.7615 33.2785 1.41124 33.2173 1.12099 33.0182C0.835349 32.8223 0.609712 32.4929 0.484661 32.0583C0.421057 31.8375 0.405947 31.6379 0.419761 31.4589C0.433576 31.2806 0.47617 31.123 0.528262 30.9848L0.534019 30.9708C0.430198 31.0085 0.325085 31.0444 0.220066 31.0803L0.217889 31.081C0.167319 31.0983 0.115841 31.1159 0.0654759 31.1333L0 30.9064L1.79791 30.3032L1.8923 30.5816L1.52219 30.7062C1.24273 30.8011 0.989898 30.9774 0.846716 31.2208C0.726127 31.4254 0.683676 31.6804 0.769153 31.9778L0.770305 31.9816C0.846861 32.2448 0.973351 32.4292 1.14301 32.5283C1.31224 32.627 1.52967 32.6427 1.78798 32.5692L1.79071 32.5685C2.05592 32.4922 2.22717 32.3158 2.35222 32.0845C2.48273 31.8427 2.56562 31.537 2.65067 31.2209C2.75082 30.8496 2.8658 30.4617 3.07115 30.1304C3.28038 29.7928 3.58056 29.5178 4.04695 29.3853L4.05802 29.382C4.46037 29.2711 4.84301 29.3428 5.16161 29.566C5.4779 29.7877 5.72915 30.159 5.86989 30.6478L5.87305 30.6588C5.93536 30.8796 5.95709 31.0821 5.94486 31.2849C5.93234 31.4894 5.88471 31.6931 5.80888 31.9151C5.80211 31.934 5.78873 31.9602 5.77218 31.9875C5.93021 31.9326 6.08912 31.8794 6.24786 31.8264L6.3462 31.7935L6.42161 32.009L6.34376 32.035Z" fill="white"/>
<path d="M4.566 19.2755L4.50556 19.4953L4.03673 19.3682C3.72532 19.2837 3.53322 19.317 3.4096 19.4143C3.28398 19.5129 3.21865 19.6842 3.16843 19.8678L3.11245 20.072L5.1416 20.6218C5.22521 20.644 5.2973 20.6827 5.35731 20.7297C5.37875 20.7463 5.39876 20.7643 5.41718 20.7832L5.76023 19.5314C5.84758 19.2127 5.84845 18.9619 5.75074 18.767C5.6536 18.5731 5.45444 18.4277 5.14175 18.3179L4.51434 18.0968L4.58801 17.828L6.63861 18.5233L6.56191 18.7389L6.29023 18.6459L6.28979 18.6572C6.28692 18.7122 6.27483 18.7715 6.25828 18.8325L5.36033 22.108L5.13916 22.0479L5.22837 21.7223C5.26867 21.5752 5.28493 21.4941 5.26205 21.4537C5.23874 21.4134 5.16031 21.3862 5.01195 21.3458L0.789156 20.2015C0.640793 20.1613 0.559344 20.1453 0.518908 20.1682C0.478184 20.1912 0.450844 20.2692 0.410408 20.4167L0.321332 20.742L0.100299 20.682L0.893484 17.788C0.909745 17.7268 0.929892 17.6695 0.955075 17.6212L0.960685 17.6109L0.679215 17.5538L0.723105 17.3301L2.84709 17.7577L2.7691 18.042L2.18932 17.9198C1.8228 17.842 1.55745 17.8705 1.36519 17.996C1.17251 18.1217 1.0453 18.35 0.957808 18.6698L0.726991 19.5121C0.752318 19.5052 0.778651 19.4999 0.805849 19.4963C0.881829 19.486 0.963423 19.4893 1.04674 19.5118L2.82752 19.9947L2.8835 19.7905C2.93387 19.6069 2.96639 19.4266 2.91012 19.2784C2.85486 19.133 2.70823 19.0081 2.39726 18.9238L2.07031 18.8354L2.13061 18.6156L4.566 19.2755Z" fill="white"/>
<path d="M7.84292 15.4291L6.4088 18.2498L6.20403 18.1471L6.35699 17.8461C6.42434 17.7135 6.44722 17.6362 6.42434 17.5858C6.39959 17.5312 6.31598 17.4818 6.1751 17.411L2.30861 15.467C2.17176 15.398 2.09693 15.3668 2.05506 15.3813C2.01246 15.3957 1.97073 15.468 1.90094 15.6054L1.74797 15.9066L1.5432 15.8033L2.46331 13.994L2.66794 14.097L2.51497 14.3977C2.44489 14.5355 2.41035 14.6139 2.42359 14.6588C2.43625 14.7023 2.50489 14.7445 2.64102 14.8129L6.49428 16.7504C6.5717 16.7895 6.63458 16.8414 6.6838 16.8993C6.7015 16.92 6.71732 16.9413 6.73157 16.9634L7.10773 16.2236C7.26113 15.9221 7.35912 15.6576 7.34646 15.4299C7.33423 15.2127 7.21652 15.0218 6.94066 14.8531L6.24662 14.432L6.38649 14.157L8.33176 15.3123L8.20426 15.5107L7.88724 15.3236C7.87875 15.3532 7.86451 15.3867 7.84292 15.4291Z" fill="white"/>
<path fill-rule="evenodd" clip-rule="evenodd" d="M8.91297 9.14558L6.37441 12.3525L6.37973 12.3564C7.04499 12.8772 7.67456 13.1304 8.23088 13.1384C8.79771 13.1466 9.29144 12.8989 9.67062 12.4201C9.96475 12.0487 10.1479 11.6551 10.2226 11.2621C10.2986 10.8627 10.2626 10.4626 10.1176 10.086L10.0852 10.0014L10.3742 9.92674L10.3999 9.99529C10.5595 10.4211 10.5969 10.8738 10.5084 11.3255C10.4226 11.7635 10.2187 12.2013 9.89395 12.6131L9.8892 12.6192C9.39793 13.24 8.74706 13.6103 8.05374 13.6966C7.36834 13.7815 6.6425 13.5887 5.98875 13.0856L5.96184 13.0647C5.314 12.5559 4.94532 11.9129 4.86761 11.2328C4.79063 10.5595 4.99943 9.8519 5.50423 9.20425L5.52179 9.18178C5.9404 8.65304 6.51529 8.31576 7.12284 8.22733C7.70305 8.14247 8.31247 8.28371 8.84376 8.69969L8.87268 8.7223C8.93744 8.77281 8.97399 8.84694 8.98061 8.9245C8.98708 9.00005 8.96492 9.08004 8.91297 9.14558ZM5.29471 10.8114C5.37041 11.2688 5.65562 11.724 6.14704 12.1623L8.32586 9.32975C7.85055 8.96113 7.35452 8.7824 6.90166 8.79256C6.45096 8.80286 6.04084 9.00119 5.73592 9.38641C5.36249 9.85834 5.21658 10.3387 5.29471 10.8114Z" fill="white"/>
<path d="M8.32514 6.41315L8.24009 6.29295L9.56427 5.36569L9.69652 5.55229L9.32108 5.81487C9.40368 5.8472 9.48829 5.89929 9.55305 5.94465L13.2952 8.3076C13.3064 8.3149 13.3385 8.33694 13.3756 8.36656C13.3634 8.32964 13.3515 8.28714 13.3411 8.23864L12.4062 4.07195C12.3983 4.03618 12.3888 4.00413 12.3773 3.97493C12.3676 3.95032 12.356 3.928 12.3427 3.90896L12.3411 3.90653C12.3128 3.86661 12.276 3.84314 12.2313 3.84157C12.1758 3.83956 12.1051 3.86575 12.0179 3.92685L11.4336 4.33597L11.3016 4.14951L12.7462 3.13796L12.8782 3.32427L12.7393 3.42172C12.6658 3.47309 12.6344 3.52418 12.6291 3.59229C12.6228 3.67529 12.6482 3.78977 12.6855 3.95204L13.8746 9.01837L13.4816 9.33933L9.05544 6.49343C8.91082 6.40056 8.81124 6.33817 8.73123 6.31756C8.66532 6.30068 8.60618 6.31556 8.5289 6.36951L8.37219 6.4794L8.32514 6.41315Z" fill="white"/>
<path fill-rule="evenodd" clip-rule="evenodd" d="M19.2998 3.22782L15.4808 4.72147L15.4834 4.72762C15.7984 5.52409 16.2223 6.06328 16.7081 6.34604C17.1872 6.62465 17.7305 6.65384 18.2919 6.43419L18.3001 6.43104C18.7383 6.25846 19.0934 6.01191 19.3561 5.71184C19.6246 5.40518 19.797 5.04186 19.8627 4.64448L19.8777 4.55476L20.1652 4.63518L20.1526 4.70701C20.0741 5.15519 19.8764 5.56473 19.5705 5.9106C19.2729 6.24716 18.8724 6.52334 18.3793 6.71623L18.3647 6.72181C17.6302 7.00514 16.8864 6.9967 16.2485 6.72482C15.6061 6.45079 15.0724 5.91088 14.765 5.13415L14.7593 5.11971C14.4621 4.35815 14.4715 3.62205 14.7483 2.99873C15.0269 2.37182 15.5758 1.86083 16.3547 1.55617C16.9693 1.31606 17.6196 1.3079 18.1797 1.51983C18.7417 1.73261 19.213 2.16634 19.4669 2.80827L19.4804 2.84232C19.5103 2.91831 19.5043 3.00016 19.4707 3.07042C19.4381 3.13868 19.3791 3.19606 19.3019 3.22682L19.2998 3.22782ZM15.3314 2.84876C15.1645 3.28191 15.1796 3.8181 15.3811 4.44314L18.6999 3.09174C18.4768 2.53509 18.1392 2.13171 17.7432 1.91334C17.3491 1.69598 16.8939 1.66135 16.435 1.84079C15.8735 2.06044 15.5038 2.40159 15.3314 2.84876Z" fill="white"/>
<path d="M20.8361 5.82345L20.8056 5.5975L21.1416 5.55271C21.2941 5.53239 21.3754 5.51579 21.4036 5.47887C21.432 5.44224 21.4267 5.35953 21.4064 5.20814L20.8489 1.07322C20.8427 1.03087 20.8223 0.995235 20.7922 0.972626C20.7618 0.949301 20.72 0.937996 20.6717 0.943577C20.5504 0.965253 20.4266 0.993827 20.3039 1.02214C20.2516 1.03419 20.1995 1.04622 20.1479 1.05762L20.0897 0.869168L20.7094 0.652518C20.8469 0.605582 20.9675 0.531458 21.0434 0.433866C21.1065 0.352873 21.1391 0.253423 21.1237 0.138373L21.1094 0.029332L21.3289 0L21.4678 1.02986L21.5002 1.28887C21.5684 0.952304 21.7245 0.661249 21.943 0.443742C22.1629 0.224805 22.4458 0.0798457 22.7657 0.037203C23.1736 -0.0171737 23.5098 0.0536584 23.7586 0.222512C24.0188 0.39895 24.1815 0.681136 24.2296 1.03831L24.7321 4.76497C24.7524 4.91651 24.7691 4.9975 24.8062 5.0254C24.8432 5.05374 24.9261 5.04844 25.0786 5.02798L25.4219 4.98233L25.4524 5.20814L23.4316 5.47745L23.4011 5.2515L24.0539 5.16464C24.0418 5.13444 24.0334 5.09724 24.0264 5.04358L23.5161 1.25896C23.4702 0.91825 23.388 0.664539 23.2585 0.507276C23.1381 0.361032 22.9706 0.299214 22.7457 0.328835C22.4006 0.374912 22.1172 0.581686 21.9368 0.900362C21.7516 1.22705 21.6729 1.67094 21.7417 2.18165L22.1364 5.11083C22.1568 5.26166 22.1745 5.34179 22.2131 5.36984C22.2524 5.39889 22.3371 5.3933 22.4904 5.37298L22.8264 5.32834L22.8567 5.55414L20.8361 5.82345Z" fill="white"/>
<path d="M29.3848 5.79212L27.4541 5.47258L27.4917 5.24763L27.8261 5.30287C27.9786 5.32805 28.062 5.33721 28.0991 5.31188C28.1356 5.28684 28.1545 5.20857 28.1797 5.05803L28.9006 0.750397C28.9258 0.600002 28.9336 0.519867 28.9071 0.484093C28.8802 0.448176 28.7986 0.430002 28.6463 0.404817L28.3116 0.349584L28.3492 0.124636L30.3606 0.457192L30.3203 0.696736L29.9859 0.641356C29.8327 0.616171 29.7476 0.606728 29.7082 0.632629C29.6701 0.657814 29.6501 0.735513 29.6252 0.884763L28.9065 5.17837C28.8815 5.32805 28.875 5.40776 28.9031 5.4441C28.9317 5.48117 29.0153 5.49962 29.1684 5.52495L29.503 5.58033L29.4654 5.80528L29.3848 5.79212Z" fill="white"/>
<path d="M30.2507 3.93758L30.5353 4.01614L30.4339 4.38347C30.3267 4.77255 30.3586 5.13273 30.4923 5.4225C30.6309 5.72214 30.8796 5.94737 31.196 6.05054C31.4883 6.14585 31.762 6.13082 31.9844 6.02207C32.2062 5.91331 32.3797 5.70998 32.4725 5.42836C32.5643 5.1499 32.5172 4.88789 32.396 4.63675C32.2704 4.37661 32.0646 4.12447 31.849 3.87648C31.6019 3.59258 31.3503 3.2998 31.1927 2.97125C31.0309 2.63426 30.9686 2.26393 31.1096 1.83578C31.2291 1.47317 31.4767 1.21918 31.8054 1.09182C32.1285 0.966757 32.529 0.965755 32.9608 1.10656C33.1805 1.17797 33.3552 1.27756 33.4965 1.38932C33.6367 1.50051 33.744 1.62414 33.8301 1.74463L33.8387 1.75694C33.8662 1.64843 33.8957 1.53979 33.9253 1.4312C33.9389 1.38115 33.9528 1.33015 33.9662 1.28014L34.1922 1.35369L33.6859 3.17202L33.4011 3.0936L33.5049 2.71898C33.5827 2.43536 33.5778 2.12827 33.4555 1.87428C33.3526 1.66006 33.1641 1.4819 32.869 1.38589C32.6052 1.29989 32.3793 1.3006 32.2007 1.38503C32.0234 1.46931 31.8882 1.63917 31.8047 1.89245L31.8031 1.89717C31.7188 2.15818 31.7696 2.39729 31.8918 2.62925C32.0197 2.87237 32.2278 3.11206 32.4433 3.35948C32.6967 3.65053 32.9555 3.9632 33.1156 4.31722C33.2793 4.67854 33.3397 5.07978 33.1887 5.53826C33.0571 5.9375 32.7809 6.21639 32.4128 6.35477C32.0511 6.49071 31.6012 6.48942 31.1154 6.33116C30.8913 6.25804 30.7072 6.16145 30.5425 6.03524C30.3789 5.90988 30.2362 5.75663 30.094 5.56989C30.0819 5.55372 30.0678 5.52824 30.0544 5.49962C30.0207 5.62715 29.9851 5.7545 29.9495 5.88187L29.9488 5.88424C29.9305 5.94987 29.9122 6.0155 29.8941 6.08117L29.6725 6.02207L30.2507 3.93758Z" fill="white"/>
<path d="M38.7167 7.61087L39.2064 4.94727C39.2112 4.9178 39.2172 4.89018 39.2243 4.86442L39.1529 4.91465L35.3827 7.43114L35.1152 7.26143L39.568 4.27214L40.1606 4.64806L40.0693 4.7903C40.0321 4.84811 39.9949 4.91894 39.9651 4.98662C39.9363 5.05159 39.9147 5.11284 39.9074 5.15433L39.083 9.64656L39.0826 9.64866C39.0516 9.82724 39.0315 9.9431 39.0424 10.0205C39.0513 10.0839 39.0873 10.1281 39.167 10.1787L39.2853 10.2539L39.1622 10.446L37.8405 9.60706L37.9638 9.41517L38.357 9.66473L38.3575 9.62738C38.3607 9.54696 38.3751 9.46053 38.3875 9.39142L38.6592 7.91395L37.3184 7.0631C37.3348 7.13407 37.3419 7.20791 37.3402 7.28175C37.3358 7.45861 37.2814 7.63834 37.1862 7.78688C36.9962 8.06896 36.7699 8.35586 36.5477 8.63751C36.4407 8.77321 36.3346 8.90769 36.234 9.03983L36.0489 8.89459L36.2679 8.59924C36.239 8.58807 36.2071 8.57033 36.1668 8.54486L33.0658 6.577L33.1892 6.38482L33.4748 6.56598C33.6009 6.64611 33.6757 6.67645 33.7285 6.65856C33.7858 6.63953 33.8435 6.56197 33.9284 6.42961L36.2593 2.79782C36.3418 2.66918 36.3806 2.59849 36.3703 2.55527C36.3598 2.51148 36.2918 2.46297 36.1615 2.38041L35.8758 2.19896L35.9988 2.00693L37.7176 3.09761L37.5943 3.28964L37.3085 3.10834C37.1777 3.02534 37.103 2.98342 37.0564 2.99186C37.0113 3.0003 36.9624 3.06369 36.8804 3.19162L34.5574 6.81125C34.5106 6.88394 34.4525 6.94075 34.3897 6.98382C34.3671 6.99913 34.3438 7.01258 34.3204 7.02475L35.445 7.73837C35.7312 7.9201 35.9829 8.04145 36.2104 8.05075C36.4283 8.05948 36.6316 7.9616 36.8342 7.70832L36.9828 7.52186L37.0041 7.49024C37.0867 7.36188 37.1149 7.23009 37.0892 7.10717C37.0634 6.98468 36.984 6.86748 36.8516 6.76674L36.6819 6.65913L36.9226 6.47211L38.7167 7.61087Z" fill="white"/>
<path d="M40.33 12.0725L39.0553 10.5957L39.2293 10.4472L39.4502 10.7032C39.5503 10.8192 39.6085 10.8779 39.6548 10.8813C39.7014 10.8849 39.7681 10.8355 39.8849 10.736L43.0664 8.02027C43.1004 7.99122 43.1198 7.95358 43.1223 7.91438C43.1246 7.87688 43.1113 7.83639 43.0805 7.7999C42.9972 7.71175 42.9068 7.62524 42.8173 7.53949C42.7776 7.50149 42.7381 7.46363 42.6993 7.42585L42.8265 7.27445L43.3469 7.67326C43.461 7.76184 43.5892 7.82222 43.7134 7.83238C43.8163 7.84068 43.9178 7.81392 44.0061 7.73851L44.0903 7.6671L44.2349 7.83439L43.4417 8.51123L43.241 8.67937C43.562 8.55287 43.8926 8.5244 44.1949 8.58807C44.4994 8.65204 44.7758 8.80916 44.9862 9.05285C45.254 9.36308 45.3775 9.68191 45.3706 9.98141C45.3635 10.2949 45.2142 10.5844 44.9392 10.8192L42.0702 13.2682C41.9535 13.3678 41.8945 13.4256 41.891 13.4717C41.8874 13.518 41.9371 13.5841 42.0374 13.7002L42.2629 13.9615L42.0891 14.1103L40.7608 12.5716L40.935 12.4231L41.3638 12.9202C41.3828 12.8934 41.4098 12.8659 41.451 12.831L44.3647 10.344C44.6273 10.1199 44.7964 9.91315 44.8583 9.72011C44.916 9.53981 44.8769 9.36623 44.7291 9.1948C44.4991 8.9285 44.1644 8.80544 43.7907 8.83292C43.4188 8.85996 43.0077 9.03596 42.6196 9.36723L40.3645 11.292C40.2483 11.3912 40.1906 11.4497 40.1878 11.4971C40.1849 11.5453 40.2357 11.6133 40.3366 11.7299L40.5574 11.9858L40.3832 12.134L40.33 12.0725Z" fill="white"/>
<path fill-rule="evenodd" clip-rule="evenodd" d="M43.1519 16.0083L42.1753 14.0974L42.3799 13.9941L42.5333 14.2946C42.6032 14.4311 42.6458 14.5021 42.69 14.5163C42.7343 14.5307 42.8107 14.4985 42.9482 14.429L46.7907 12.487C46.9325 12.4152 47.0194 12.364 47.0473 12.3063C47.0725 12.2541 47.0521 12.1766 46.9847 12.0447L46.8313 11.7444L47.0358 11.6412L48.0128 13.5527C48.4131 14.3363 48.5053 15.1133 48.316 15.7867C48.126 16.4631 47.6533 17.0335 46.9254 17.4012C46.1961 17.7697 45.4527 17.8139 44.7902 17.5685C44.1301 17.3243 43.5525 16.7924 43.1519 16.0083ZM43.0854 15.1429L43.0424 15.1456L43.3257 15.6998C43.6748 16.3828 44.1312 16.8113 44.6744 16.9785C45.2186 17.1462 45.8558 17.0541 46.5654 16.6953L46.572 16.6921C47.275 16.3353 47.7216 15.8803 47.9045 15.3467C48.0877 14.8119 48.0082 14.1926 47.6589 13.5094L47.376 12.9558L47.3484 12.9887C47.3022 13.0388 47.2415 13.0813 47.1574 13.1238L43.3078 15.0692C43.2234 15.1116 43.1531 15.1352 43.0854 15.1429Z" fill="white"/>
<path d="M46.4589 18.4599L46.5396 18.7428L46.1708 18.8481C45.7814 18.9591 45.4887 19.1736 45.3097 19.4379C45.1242 19.7118 45.0602 20.0399 45.1362 20.3625C45.2065 20.6601 45.3615 20.8846 45.5703 21.0169C45.779 21.1487 46.044 21.1901 46.3349 21.1225C46.6217 21.0554 46.8218 20.8793 46.9745 20.6457C47.1327 20.4035 47.242 20.0978 47.3429 19.7857C47.4579 19.4286 47.5786 19.0627 47.7788 18.7575C47.9841 18.4447 48.2702 18.1986 48.711 18.096C49.0844 18.0088 49.4312 18.0868 49.7114 18.2996C49.9872 18.5091 50.1965 18.8487 50.3004 19.2888C50.3529 19.5121 50.3584 19.712 50.3359 19.8904C50.3135 20.068 50.2631 20.2234 50.2045 20.3586L50.1982 20.3728C50.311 20.3377 50.4252 20.3048 50.5392 20.272C50.5843 20.2589 50.6294 20.2459 50.6744 20.2328L50.7288 20.4631L48.9035 20.9792L48.8228 20.6962L49.1985 20.5894C49.4824 20.5083 49.7436 20.3446 49.8983 20.1082C50.0284 19.9093 50.0834 19.6567 50.0124 19.3559C49.9487 19.0862 49.8301 18.8942 49.6636 18.7868C49.4996 18.6811 49.2838 18.6552 49.0234 18.7159C48.7528 18.779 48.5725 18.9471 48.4363 19.1728C48.2937 19.4089 48.1962 19.7097 48.0962 20.0209C47.9779 20.3878 47.8441 20.7703 47.6235 21.0906C47.3982 21.4177 47.085 21.678 46.6127 21.788C46.2016 21.8839 45.8184 21.7943 45.508 21.5538C45.2026 21.3172 44.9697 20.9344 44.8531 20.4396C44.7993 20.2115 44.7865 20.0047 44.8091 19.7997C44.8315 19.5953 44.8888 19.3943 44.9754 19.1764C44.9832 19.1575 44.9977 19.1323 45.0154 19.1062C44.8806 19.1461 44.7451 19.1843 44.6096 19.2225C44.5513 19.239 44.491 19.2559 44.4328 19.2725L44.3679 19.0534L46.4589 18.4599Z" fill="white"/>
<path d="M3.28512 25.5204C3.28512 25.0307 2.88594 24.6338 2.39365 24.6338C1.90122 24.6338 1.50218 25.0307 1.50218 25.5204C1.50218 26.0098 1.90122 26.4067 2.39365 26.4067C2.88594 26.4067 3.28512 26.0098 3.28512 25.5204Z" fill="white"/>
<path d="M48.4249 24.6338C48.9172 24.6338 49.3164 25.0307 49.3164 25.5204C49.3164 26.0098 48.9172 26.4067 48.4249 26.4067C47.9325 26.4067 47.5334 26.0098 47.5334 25.5204C47.5334 25.0307 47.9325 24.6338 48.4249 24.6338Z" fill="white"/>
<path d="M21.4354 39.5754H28.9923V39.3104H27.9552C26.5337 39.3104 26.3548 39.1922 26.3548 37.7778V13.5935C26.3548 12.1789 26.5327 12.0612 27.9552 12.0612H28.9923V11.7368H21.4354V12.0021H22.4725C23.895 12.0021 24.0434 12.121 24.0434 13.5347V37.7778C24.0434 39.1912 23.894 39.3104 22.4725 39.3104H21.4354V39.5754Z" fill="white"/>
<path d="M30.3814 30.1798V20.7201H30.1147V21.7517C30.1147 24.2737 28.889 24.7818 27.4473 24.8622V25.4201C28.8895 25.5056 30.1147 26.037 30.1147 28.5588V30.1798H30.3814Z" fill="white"/>
<path d="M22.951 24.8755H20.5297V17.1547C20.5297 16.5064 20.2331 15.9759 19.8776 15.6222V15.5927H22.951V15.0622H15.6103V15.3276H16.6473C18.0697 15.3276 18.2182 15.4749 18.2182 16.8896V34.4233C18.2182 35.8377 18.0697 35.985 16.6473 35.985H15.6103V36.2503H22.951V35.7198H19.8776V35.69C20.2331 35.3366 20.5297 34.8061 20.5297 34.158V25.406H22.951V24.8755Z" fill="white"/>
<path d="M27.4473 15.5927H28.0307C30.8757 15.5927 32.4121 16.6838 32.5944 19.8657L32.7129 21.9284H33.2462L32.7129 13.9424L32.4462 13.9623L32.535 15.3276H32.5056C32.2981 15.1213 31.883 15.0622 31.409 15.0622H27.4473V15.5927Z" fill="white"/>
<path d="M27.4473 36.2503H33.0093C33.4836 36.2503 33.8983 36.1914 34.1058 35.985H34.1356L34.0467 37.3504L34.3135 37.37L34.8171 29.3842H34.3428L34.165 31.7416C33.9518 34.5699 32.5941 35.7198 29.7496 35.7198H27.4473V36.2503Z" fill="white"/>
</svg>
