<svg width="51" height="50" viewBox="0 0 51 50" fill="none" xmlns="http://www.w3.org/2000/svg">
<path d="M47.9677 31.7286L45.6701 31.1024L45.7289 30.8869L46.186 31.0117C46.4896 31.0942 46.6768 31.0617 46.7974 30.9665C46.9198 30.8697 46.9835 30.7019 47.0325 30.5219L47.0871 30.3217L45.1088 29.7824C45.0273 29.7608 44.957 29.723 44.8985 29.6769C44.8776 29.6604 44.8581 29.643 44.8402 29.6245L44.5057 30.8515C44.4206 31.164 44.4197 31.4098 44.515 31.601C44.6097 31.7911 44.8037 31.9337 45.1087 32.0411L45.7205 32.2582L45.6485 32.5219L43.6494 31.8398L43.7242 31.6287L43.9889 31.7196L43.9894 31.7085C43.9921 31.6559 44.004 31.5972 44.0206 31.5368L44.8957 28.3257L45.1113 28.3843L45.0242 28.7036C44.9849 28.8481 44.9691 28.9274 44.9914 28.9669C45.0143 29.0066 45.0906 29.0331 45.2352 29.0727L49.352 30.1946C49.4967 30.2339 49.5761 30.2497 49.6155 30.2272C49.6552 30.2047 49.6819 30.1283 49.7213 29.9835L49.8081 29.6649L50.0236 29.7237L49.2503 32.5609C49.2338 32.6214 49.2143 32.6779 49.1903 32.7243L49.185 32.7343L49.4592 32.7906L49.4166 33.0098L47.3457 32.5906L47.4219 32.3117L47.987 32.4314C48.3442 32.5077 48.603 32.4799 48.7903 32.3569C48.9783 32.2333 49.1022 32.0097 49.1876 31.6963L49.4127 30.8707C49.388 30.8774 49.3623 30.8826 49.3358 30.8861C49.2617 30.8962 49.1822 30.8928 49.1009 30.8708L47.3648 30.3973L47.3103 30.5977C47.2612 30.7775 47.2295 30.9541 47.2843 31.0996C47.3382 31.2424 47.4811 31.3646 47.7843 31.4471L48.1032 31.5341L48.0443 31.7496L47.9677 31.7286Z" fill="white"/>
<path d="M42.5042 34.9453L43.9023 32.1799L44.102 32.2807L43.9528 32.5755C43.887 32.7058 43.8649 32.7813 43.8872 32.8307C43.9114 32.8843 43.9927 32.9327 44.13 33.0021L47.8996 34.9078C48.0332 34.9753 48.106 35.006 48.1468 34.9917C48.1885 34.9773 48.2292 34.9067 48.2972 34.772L48.4463 34.4768L48.646 34.5781L47.7491 36.3518L47.5496 36.2512L47.6986 35.9562C47.7669 35.8208 47.8006 35.7442 47.7877 35.7C47.7753 35.6574 47.7085 35.616 47.5757 35.5491L43.8189 33.6497C43.7434 33.6115 43.6822 33.5606 43.6341 33.5038C43.617 33.4837 43.6014 33.4627 43.5875 33.4412L43.2208 34.1662C43.0714 34.4621 42.9758 34.7212 42.9883 34.9443C43.0001 35.1572 43.115 35.3445 43.3841 35.5098L44.0606 35.9231L43.9242 36.1925L42.0279 35.06L42.1521 34.8652L42.4613 35.0487C42.4694 35.0195 42.4831 34.9867 42.5042 34.9453Z" fill="white"/>
<path fill-rule="evenodd" clip-rule="evenodd" d="M41.4641 41.029L43.9356 37.8898L43.9304 37.8859C43.2818 37.3754 42.668 37.1271 42.1257 37.1192C41.5731 37.1109 41.0917 37.3539 40.7221 37.8235C40.4353 38.1877 40.2566 38.5735 40.1838 38.9586C40.1097 39.35 40.1446 39.7425 40.286 40.1119L40.3179 40.1944L40.0361 40.2679L40.0109 40.2007C39.8554 39.7829 39.8189 39.3395 39.9052 38.8963C39.9892 38.4649 40.1895 38.0339 40.5088 37.6283C40.9935 37.0126 41.6373 36.6478 42.3224 36.5691C42.9834 36.4934 43.6818 36.6836 44.3115 37.1713L44.3336 37.1882C44.9678 37.6878 45.3285 38.3194 45.4044 38.9877C45.4793 39.6477 45.2759 40.3413 44.7838 40.9764L44.7667 40.9984C44.3584 41.5169 43.7979 41.8471 43.2056 41.9343C42.64 42.0172 42.0459 41.8786 41.5279 41.4709L41.4954 41.4452C41.4347 41.3954 41.4008 41.3246 41.3945 41.2504C41.3883 41.1763 41.4101 41.0977 41.4604 41.0337L41.4641 41.029ZM44.988 39.4009C44.9144 38.9523 44.6362 38.5059 44.1571 38.0761L42.0328 40.8533C42.4963 41.2147 42.9799 41.3897 43.4214 41.3797C43.8607 41.3699 44.2605 41.1754 44.5578 40.7976C44.9218 40.3351 45.0642 39.8641 44.988 39.4009Z" fill="white"/>
<path d="M42.0907 43.7132L42.1737 43.831L40.8826 44.7398L40.7538 44.5569L41.1198 44.2994C41.0393 44.2677 40.9568 44.2167 40.8937 44.1722L37.2455 41.8553C37.2347 41.8479 37.2034 41.8265 37.1671 41.7975C37.1792 41.8334 37.1908 41.8751 37.2008 41.9226L38.1118 46.0076C38.1194 46.0423 38.1285 46.0737 38.1396 46.1017C38.1493 46.1262 38.1601 46.1475 38.1722 46.1654L38.1752 46.1698C38.203 46.2094 38.2388 46.2324 38.2824 46.2339C38.335 46.2357 38.4022 46.2112 38.4846 46.1544C38.6208 46.057 38.7581 45.9608 38.8953 45.8646L39.0601 45.7491L39.189 45.932L37.7803 46.9236L37.6517 46.7406L37.7869 46.6452C37.8586 46.5947 37.8893 46.5446 37.8944 46.4779C37.9006 46.3968 37.8759 46.2841 37.8395 46.1255L36.6809 41.158L37.0643 40.8434L41.3792 43.6342C41.52 43.7254 41.6174 43.7865 41.695 43.8066C41.7591 43.8231 41.8166 43.8087 41.892 43.7558L42.0452 43.6479L42.0907 43.7132Z" fill="white"/>
<path fill-rule="evenodd" clip-rule="evenodd" d="M31.3773 46.8353L35.1006 45.3713L35.098 45.3649C34.791 44.5842 34.3779 44.0555 33.9041 43.7784C33.4372 43.5052 32.9075 43.4766 32.3602 43.6916L32.3522 43.6948C31.925 43.8643 31.5786 44.1057 31.3226 44.3997C31.0608 44.7007 30.8928 45.0567 30.8285 45.4464L30.8141 45.5341L30.5339 45.4553L30.5461 45.3849C30.6227 44.9455 30.8153 44.544 31.1136 44.2052C31.4038 43.8752 31.7943 43.6043 32.275 43.4153C32.9957 43.1321 33.7263 43.1388 34.3525 43.4072C34.9786 43.6756 35.4989 44.2052 35.7984 44.9668C36.0937 45.7181 36.0863 46.4452 35.8146 47.0602C35.543 47.6748 35.0078 48.1755 34.2484 48.4742C33.6346 48.7156 32.9841 48.7176 32.4291 48.494C31.8988 48.2798 31.4557 47.8603 31.2144 47.2465L31.2014 47.2131C31.1719 47.1385 31.1778 47.0581 31.2107 46.9892C31.2431 46.922 31.3014 46.8652 31.3773 46.8353ZM35.246 47.2072C35.4089 46.7823 35.3943 46.2565 35.1977 45.6437L31.9621 46.9686C32.1795 47.5145 32.5086 47.9098 32.8948 48.1242C33.2791 48.3373 33.7227 48.3712 34.1701 48.1953C34.7176 47.9801 35.0779 47.6456 35.246 47.2072Z" fill="white"/>
<path d="M27.9598 44.5441L29.8512 44.2906L29.881 44.5121L29.5534 44.556C29.4046 44.5762 29.3253 44.5924 29.2978 44.6283C29.2702 44.6645 29.2753 44.7451 29.2953 44.8938L29.8385 48.9477C29.8446 48.9892 29.8646 49.0243 29.8939 49.0466C29.9235 49.0693 29.964 49.0805 30.0109 49.0748C30.1291 49.0535 30.2494 49.0257 30.3688 48.9981L30.3693 48.9979L30.3698 48.9978L30.3706 48.9977C30.4213 48.9859 30.4718 48.9743 30.522 48.9631L30.5788 49.1477L29.9746 49.3604C29.8407 49.4063 29.723 49.4791 29.6489 49.5745C29.5874 49.654 29.5556 49.7514 29.5705 49.8642L29.5851 49.9714L29.3706 50L29.2352 48.9903L29.2037 48.7363C29.137 49.0662 28.9849 49.3517 28.772 49.565C28.5576 49.7796 28.2818 49.9214 27.9697 49.9635L27.9625 49.9644C27.5609 50.0167 27.2313 49.944 26.989 49.7729C26.7428 49.599 26.5886 49.3263 26.5426 48.9822L26.053 45.3286C26.033 45.1798 26.0168 45.1006 25.9808 45.0729C25.9446 45.0455 25.8638 45.0505 25.7151 45.0703L25.3805 45.1155L25.3507 44.8938L27.3208 44.6298L27.3506 44.8513L26.7142 44.9368C26.726 44.9664 26.7338 45.0028 26.741 45.0555L27.2383 48.7657C27.2829 49.0999 27.3632 49.3485 27.4894 49.5025C27.607 49.6459 27.7702 49.7068 27.9893 49.6773C28.326 49.6323 28.602 49.4296 28.778 49.1171C28.9584 48.7971 29.0353 48.362 28.9683 47.8611L28.5833 44.9894C28.5635 44.8415 28.5461 44.763 28.5087 44.7352C28.4705 44.707 28.3877 44.7123 28.2383 44.7324L27.9109 44.7763L27.8813 44.5548L27.9598 44.5441Z" fill="white"/>
<path d="M23.3707 44.6349L23.3339 44.8554L23.0079 44.8011C22.859 44.7764 22.7779 44.7673 22.7417 44.7924C22.706 44.817 22.6876 44.8936 22.663 45.041L21.9602 49.2646C21.9356 49.4118 21.9281 49.4905 21.9539 49.5253C21.9802 49.5607 22.0596 49.5786 22.2082 49.6031L22.5345 49.6574L22.4979 49.8781L20.5369 49.5516L20.5762 49.3171L20.9021 49.3714C21.0515 49.3962 21.1346 49.4053 21.173 49.3798C21.2102 49.3552 21.2295 49.279 21.254 49.1323L21.9546 44.9233C21.979 44.7766 21.9853 44.6984 21.9579 44.6628C21.93 44.6263 21.8485 44.6083 21.6991 44.5834L21.3731 44.5291L21.4097 44.3087L23.3707 44.6349Z" fill="white"/>
<path d="M21.1865 44.2453L20.6443 46.2112L20.3668 46.1346L20.4657 45.7742C20.57 45.393 20.5389 45.0396 20.4084 44.7558C20.2739 44.4629 20.0327 44.2428 19.7258 44.141L19.7224 44.1401C19.4373 44.0468 19.1706 44.0612 18.9538 44.1681C18.7387 44.274 18.5701 44.4719 18.4793 44.7461L18.478 44.7502C18.3885 45.0232 18.4345 45.2799 18.5527 45.526C18.675 45.781 18.8757 46.0282 19.0859 46.2714C19.3268 46.5497 19.5722 46.8366 19.7259 47.1588C19.8836 47.4891 19.9443 47.8523 19.8069 48.272C19.6906 48.6274 19.4493 48.8767 19.1287 49.0016C18.8139 49.124 18.4233 49.125 18.0023 48.9872C17.7881 48.917 17.6178 48.8195 17.48 48.7097C17.3435 48.6012 17.2388 48.4801 17.1551 48.362L17.1464 48.3492C17.1201 48.4549 17.0914 48.5606 17.0627 48.6662C17.0491 48.7165 17.0355 48.7668 17.0221 48.8169L16.8018 48.7448L17.2954 46.962L17.573 47.0392L17.4717 47.4066C17.396 47.6844 17.4006 47.9854 17.52 48.2347C17.6203 48.4443 17.8039 48.619 18.0918 48.7131C18.3498 48.7979 18.571 48.7972 18.7451 48.7131C18.9173 48.6303 19.0483 48.464 19.1294 48.2163C19.2137 47.9589 19.1643 47.7231 19.0445 47.494C18.9197 47.2556 18.7167 47.0208 18.5066 46.7785C18.2596 46.4929 18.0074 46.1866 17.8511 45.8395C17.6931 45.4885 17.6336 45.0995 17.7757 44.6552L17.7798 44.6424C17.9082 44.251 18.1774 43.9773 18.5361 43.8417C18.8887 43.7084 19.3272 43.7098 19.8008 43.865C20.0193 43.9365 20.199 44.0313 20.3595 44.1548C20.519 44.2775 20.6583 44.4278 20.7969 44.611L20.7974 44.612C20.8091 44.628 20.8223 44.6518 20.8353 44.6798C20.8711 44.5444 20.9087 44.4092 20.9463 44.2742C20.9615 44.2195 20.9767 44.1648 20.9918 44.1102L21.2078 44.1676L21.1865 44.2453Z" fill="white"/>
<path d="M12.4335 42.6102L11.9561 45.2216C11.9514 45.2505 11.9455 45.2777 11.9387 45.3027L12.0084 45.2533L15.684 42.7861L15.9448 42.9526C15.3923 43.3257 14.8396 43.6987 14.287 44.0716L14.2663 44.0856L14.2654 44.0862C13.378 44.685 12.4905 45.2839 11.6037 45.8834L11.0259 45.5146L11.115 45.3753C11.1511 45.3186 11.1874 45.2491 11.2166 45.1828C11.2445 45.1191 11.2655 45.0591 11.2728 45.0184L12.0764 40.6143C12.107 40.4378 12.1267 40.3239 12.1161 40.2476C12.1073 40.1855 12.0722 40.1422 11.9946 40.0924L11.8793 40.019L11.9993 39.8305L13.2878 40.653L13.1676 40.8413L12.7843 40.5965L12.7836 40.6329C12.7805 40.7119 12.7667 40.7965 12.7545 40.8644L12.4896 42.3129L13.7967 43.1472C13.7807 43.0776 13.7739 43.0051 13.7756 42.9327C13.7797 42.7596 13.8327 42.5831 13.9256 42.4376C14.1118 42.1592 14.3347 41.8751 14.5532 41.5968L14.5534 41.5964C14.656 41.4657 14.7577 41.3362 14.854 41.2091L15.0345 41.3514L14.8208 41.6409C14.849 41.652 14.88 41.6694 14.9196 41.6944L17.9427 43.6236L17.8225 43.8119L17.544 43.6344C17.4211 43.5559 17.3481 43.5262 17.2965 43.5437C17.2407 43.5623 17.1845 43.6385 17.1016 43.7683L14.8292 47.3287C14.7488 47.4548 14.7111 47.5243 14.7212 47.5667C14.7314 47.6093 14.7976 47.657 14.9247 47.7381L15.2032 47.9157L15.0833 48.104L13.4076 47.0348L13.5279 46.8465L13.8064 47.0242C13.934 47.1057 14.0068 47.1468 14.0523 47.1385C14.0962 47.1302 14.1438 47.0679 14.2239 46.9425L16.4886 43.3941C16.534 43.3229 16.5907 43.267 16.652 43.2248C16.674 43.2098 16.6966 43.1965 16.7195 43.1847L15.6233 42.4849C15.3441 42.3067 15.0987 42.1879 14.877 42.1788C14.6648 42.1702 14.4663 42.2662 14.2689 42.5145L14.1243 42.697L14.1032 42.7283C14.0227 42.8542 13.9952 42.9835 14.0203 43.104C14.0453 43.224 14.1227 43.339 14.2518 43.4376L14.4173 43.5431L14.1828 43.7265L12.4335 42.6102Z" fill="white"/>
<path d="M10.8321 38.2359L12.0749 39.6837L11.9053 39.8293L11.6899 39.5784C11.5923 39.4647 11.5355 39.4071 11.4903 39.4036C11.4448 39.4002 11.3799 39.4486 11.266 39.5462L8.16429 42.2088C8.13132 42.2372 8.11238 42.2742 8.11 42.3125C8.10761 42.3493 8.12052 42.389 8.15068 42.4247C8.23342 42.5127 8.32315 42.5991 8.41203 42.6847C8.44912 42.7204 8.48608 42.756 8.52231 42.7914L8.39829 42.9399L7.891 42.549C7.77975 42.462 7.65475 42.4028 7.53368 42.393C7.43337 42.3846 7.33447 42.4108 7.24819 42.4849L7.16626 42.5551L7.02541 42.3909L7.79855 41.7272L7.99426 41.5624C7.68113 41.6865 7.35902 41.7144 7.06427 41.652C6.76727 41.5893 6.49792 41.4353 6.29281 41.1962C6.03159 40.8922 5.91136 40.5796 5.9181 40.286C5.92497 39.9786 6.07045 39.695 6.33855 39.4646L9.13566 37.0637C9.24929 36.966 9.30682 36.9093 9.31032 36.8642C9.31369 36.8189 9.26529 36.7538 9.1675 36.64L8.94781 36.3838L9.11728 36.2381L10.4122 37.7465L10.2424 37.8922L9.82435 37.4051C9.80611 37.4309 9.77959 37.4575 9.73919 37.4922L6.89873 39.9305C6.64256 40.1502 6.47771 40.3528 6.41753 40.5422C6.36113 40.7188 6.39915 40.889 6.54351 41.057C6.76755 41.3181 7.09387 41.4388 7.45821 41.412C7.82072 41.3853 8.22167 41.2129 8.60003 40.8881L10.7984 39.0011C10.9117 38.9039 10.968 38.8463 10.9708 38.8C10.9735 38.7526 10.9239 38.6863 10.8257 38.5718L10.6105 38.3209L10.7803 38.1755L10.8321 38.2359Z" fill="white"/>
<path fill-rule="evenodd" clip-rule="evenodd" d="M8.03802 34.3772L8.99018 36.2507L8.79069 36.3522L8.64099 36.0572C8.57281 35.9235 8.53129 35.8542 8.48822 35.84C8.44529 35.8262 8.3708 35.8577 8.23696 35.9256L4.49022 37.8296C4.35203 37.8998 4.26758 37.9502 4.24036 38.0067C4.21581 38.0578 4.23559 38.1337 4.30125 38.2629L4.45108 38.5576L4.25159 38.659L3.29915 36.7849C2.90872 36.0165 2.8188 35.2549 3.00342 34.5945C3.18874 33.9317 3.64946 33.3725 4.35919 33.0117C5.07018 32.6505 5.79492 32.6072 6.44082 32.8476C7.08433 33.0871 7.64746 33.6086 8.03802 34.3772ZM8.10284 35.2257L8.14465 35.223L7.86856 34.6797C7.52821 34.0101 7.08335 33.5901 6.55375 33.4261C6.02303 33.2616 5.40197 33.3523 4.71019 33.7037L4.69995 33.7088C4.01674 34.0584 3.58268 34.5038 3.40465 35.0261C3.22592 35.5502 3.3035 36.1574 3.64399 36.8273L3.9198 37.3699L3.94687 37.3375C3.99177 37.289 4.05097 37.2469 4.13332 37.2052L7.88581 35.2981C7.96774 35.2563 8.03662 35.2333 8.10284 35.2257Z" fill="white"/>
<path d="M6.87768 31.4069L4.94574 32.0606L4.85371 31.7878L5.20752 31.6674C5.58182 31.54 5.85665 31.3162 6.01854 31.0491C6.18619 30.7725 6.23291 30.448 6.14354 30.1355C6.06119 29.8475 5.89958 29.635 5.68998 29.5153C5.48053 29.3959 5.22029 29.3676 4.94041 29.4478C4.66446 29.5267 4.47787 29.7086 4.34025 29.9443C4.19771 30.1887 4.10568 30.4934 4.02221 30.8039C3.92723 31.159 3.82721 31.5225 3.64595 31.8314C3.46077 32.1475 3.19407 32.4017 2.76969 32.5233C2.41041 32.626 2.06894 32.5659 1.78598 32.3708C1.5075 32.1787 1.28753 31.8558 1.16561 31.4297C1.10361 31.2133 1.08888 31.0176 1.10234 30.842C1.11581 30.6672 1.15734 30.5128 1.20812 30.3773L1.21373 30.3635C1.11252 30.4005 1.01004 30.4357 0.907659 30.4709L0.907029 30.4711L0.906618 30.4712L0.905985 30.4714L0.905537 30.4716L0.904685 30.4719C0.855384 30.4888 0.80605 30.5058 0.756948 30.5229L0.693115 30.3004L2.44591 29.7091L2.53793 29.9819L2.17711 30.1041C1.90466 30.1971 1.65817 30.37 1.51858 30.6086C1.40102 30.8092 1.35963 31.0592 1.44297 31.3507L1.44409 31.3545C1.51873 31.6125 1.64204 31.7934 1.80744 31.8904C1.97243 31.9872 2.1844 32.0027 2.43622 31.9306L2.43889 31.9299C2.69745 31.8551 2.86439 31.6821 2.98631 31.4554C3.11355 31.2183 3.19436 30.9186 3.27727 30.6087C3.37491 30.2447 3.487 29.8644 3.6872 29.5396C3.89118 29.2086 4.18383 28.939 4.63851 28.8091L4.64931 28.8059C5.04156 28.6971 5.41459 28.7674 5.7252 28.9863C6.03356 29.2036 6.2785 29.5677 6.41571 30.0469L6.41879 30.0577C6.47954 30.2742 6.50072 30.4727 6.4888 30.6715C6.47659 30.8719 6.43016 31.0717 6.35622 31.2893L6.3558 31.2907C6.34921 31.3092 6.33658 31.3335 6.32045 31.3603C6.47451 31.3065 6.62944 31.2544 6.7842 31.2023L6.88007 31.1701L6.95358 31.3813L6.87768 31.4069Z" fill="white"/>
<path d="M5.14453 18.8976L5.08561 19.1131L4.62854 18.9885C4.32496 18.9056 4.13767 18.9382 4.01716 19.0336C3.89469 19.1303 3.83099 19.2982 3.78203 19.4782L3.72746 19.6784L5.7057 20.2174C5.7872 20.2392 5.85749 20.2772 5.91599 20.3232C5.93689 20.3395 5.9564 20.3571 5.97435 20.3757L6.3088 19.1484C6.39396 18.836 6.3948 18.5901 6.29955 18.399C6.20485 18.2089 6.01069 18.0663 5.70584 17.9587L5.09417 17.742L5.166 17.4784L7.16514 18.1601L7.09036 18.3715L6.8255 18.2803L6.82507 18.2914C6.82227 18.3452 6.81048 18.4035 6.79435 18.4632L5.91894 21.6745L5.70331 21.6156L5.79029 21.2964C5.82957 21.1522 5.84543 21.0726 5.82312 21.0331C5.80039 20.9935 5.72393 20.9669 5.57929 20.9273L1.46247 19.8054C1.31783 19.766 1.23842 19.7503 1.199 19.7727C1.1593 19.7953 1.13265 19.8717 1.09322 20.0164L1.00638 20.3353L0.790897 20.2765L1.56418 17.4392C1.58003 17.3792 1.59967 17.3231 1.62422 17.2757L1.62969 17.2656L1.35529 17.2096L1.39808 16.9903L3.46876 17.4095L3.39273 17.6883L2.8275 17.5685C2.47018 17.4921 2.21148 17.5201 2.02405 17.6431C1.8362 17.7664 1.71218 17.9902 1.62689 18.3037L1.40186 19.1295C1.42655 19.1227 1.45223 19.1175 1.47874 19.114C1.55282 19.1039 1.63236 19.1072 1.71359 19.1292L3.44969 19.6027L3.50426 19.4025C3.55336 19.2225 3.58507 19.0457 3.53021 18.9004C3.47634 18.7578 3.33338 18.6354 3.03021 18.5527L2.71147 18.466L2.77026 18.2505L5.14453 18.8976Z" fill="white"/>
<path d="M8.33923 15.1266L6.94109 17.892L6.74146 17.7912L6.89059 17.4962C6.95624 17.3662 6.97855 17.2904 6.95625 17.241C6.93212 17.1874 6.85061 17.139 6.71326 17.0696L2.9438 15.1637C2.81038 15.0961 2.73743 15.0655 2.6966 15.0797C2.65508 15.0939 2.61439 15.1647 2.54635 15.2994L2.39723 15.5947L2.19759 15.4934L3.09461 13.7196L3.2941 13.8206L3.14497 14.1153C3.07665 14.2504 3.04298 14.3273 3.05589 14.3714C3.06823 14.414 3.13515 14.4554 3.26787 14.5225L7.02443 16.422C7.0999 16.4603 7.16121 16.5112 7.20919 16.5679C7.22645 16.5882 7.24188 16.6091 7.25576 16.6308L7.62249 15.9054C7.77204 15.6099 7.86757 15.3506 7.85523 15.1274C7.8433 14.9144 7.72854 14.7273 7.45961 14.5619L6.78299 14.149L6.91935 13.8794L8.8158 15.0121L8.6915 15.2065L8.38244 15.0232C8.37416 15.0522 8.36027 15.085 8.33923 15.1266Z" fill="white"/>
<path fill-rule="evenodd" clip-rule="evenodd" d="M9.38243 8.96625L6.90757 12.1103L6.91276 12.1141C7.56132 12.6248 8.17509 12.8729 8.71745 12.8808C9.27006 12.8888 9.75139 12.6459 10.1211 12.1765C10.4078 11.8125 10.5864 11.4265 10.6592 11.0413C10.7333 10.6497 10.6982 10.2575 10.5568 9.88824L10.5252 9.80533L10.8069 9.7321L10.8321 9.7993C10.9876 10.2168 11.0241 10.6605 10.9378 11.1034C10.8542 11.5329 10.6554 11.962 10.3388 12.3658L10.3342 12.3718C9.85521 12.9804 9.22068 13.3435 8.54476 13.4281C7.87655 13.5112 7.16893 13.3223 6.53159 12.829L6.50535 12.8085C5.87376 12.3097 5.51434 11.6793 5.43858 11.0125C5.36353 10.3525 5.56709 9.65873 6.05923 9.02377L6.07634 9.00175C6.48445 8.48337 7.04491 8.15271 7.63722 8.06601C8.20287 7.98282 8.797 8.12128 9.31495 8.52911L9.34315 8.55127C9.40628 8.60079 9.44191 8.67347 9.44837 8.74951C9.45468 8.82358 9.43308 8.902 9.38243 8.96625ZM5.85497 10.5994C5.92876 11.0479 6.20681 11.4942 6.68591 11.9239L8.81004 9.14681C8.34666 8.78542 7.86308 8.6102 7.42159 8.62016C6.9822 8.63026 6.58237 8.8247 6.2851 9.20236C5.92104 9.66504 5.77879 10.136 5.85497 10.5994Z" fill="white"/>
<path d="M8.80934 6.2874L8.72643 6.16956L10.0174 5.26048L10.1463 5.44342L9.7803 5.70085C9.86082 5.73255 9.94331 5.78362 10.0064 5.82809L13.6547 8.14471C13.6656 8.15187 13.6969 8.17347 13.7331 8.20251C13.7212 8.16632 13.7096 8.12465 13.6994 8.07709L12.788 3.99211C12.7803 3.95703 12.771 3.92561 12.7598 3.89699C12.7504 3.87286 12.739 3.85098 12.7261 3.83232L12.7246 3.82993C12.6969 3.79079 12.661 3.76779 12.6175 3.76624C12.5634 3.76428 12.4945 3.78995 12.4095 3.84985L11.8398 4.25095L11.7111 4.06815L13.1195 3.07643L13.2481 3.25909L13.1128 3.35463C13.0411 3.40499 13.0105 3.45507 13.0053 3.52185C12.9991 3.60322 13.024 3.71546 13.0603 3.87455L14.2195 8.84154L13.8364 9.15621L9.52132 6.36611C9.38032 6.27506 9.28324 6.21389 9.20524 6.19369C9.14099 6.17714 9.08333 6.19173 9.008 6.24462L8.85522 6.35236L8.80934 6.2874Z" fill="white"/>
<path fill-rule="evenodd" clip-rule="evenodd" d="M19.5086 3.16453L15.7854 4.62889L15.788 4.63492C16.0951 5.41578 16.5083 5.94439 16.982 6.22161C17.449 6.49475 17.9787 6.52337 18.526 6.30803L18.534 6.30494C18.9612 6.13575 19.3074 5.89403 19.5635 5.59984C19.8252 5.2992 19.9933 4.943 20.0574 4.55341L20.072 4.46545L20.3523 4.54429L20.34 4.61472C20.2635 5.05411 20.0707 5.45562 19.7725 5.7947C19.4824 6.12467 19.0919 6.39543 18.6112 6.58454L18.597 6.59001C17.881 6.86779 17.1558 6.85951 16.5339 6.59296C15.9076 6.3243 15.3873 5.79498 15.0876 5.03348L15.082 5.01932C14.7923 4.27269 14.8014 3.55103 15.0714 2.93993C15.343 2.32531 15.878 1.82434 16.6374 1.52566C17.2366 1.29025 17.8706 1.28226 18.4166 1.49003C18.9646 1.69864 19.424 2.12386 19.6715 2.7532L19.6847 2.78659C19.7138 2.86109 19.708 2.94133 19.6753 3.01021C19.6434 3.07713 19.5859 3.13339 19.5107 3.16355L19.5086 3.16453ZM15.6398 2.7929C15.4771 3.21756 15.4918 3.74323 15.6882 4.35602L18.9237 3.03112C18.7063 2.48539 18.3772 2.08991 17.9911 1.87583C17.6068 1.66272 17.1631 1.62877 16.7157 1.8047C16.1683 2.02004 15.8079 2.3545 15.6398 2.7929Z" fill="white"/>
<path d="M21.0063 5.70927L20.9766 5.48775L21.3042 5.44383C21.4529 5.42391 21.5322 5.40764 21.5596 5.37145C21.5873 5.33553 21.5821 5.25444 21.5623 5.10602L21.0188 1.05218C21.0128 1.01065 20.9929 0.975721 20.9636 0.953555C20.934 0.930688 20.8931 0.919604 20.8461 0.925076C20.7279 0.946327 20.6071 0.97434 20.4875 1.0021C20.4365 1.01392 20.3857 1.0257 20.3355 1.03689L20.2787 0.852125L20.8829 0.639723C21.0169 0.593708 21.1344 0.521037 21.2085 0.425359C21.2699 0.345954 21.3018 0.248454 21.2868 0.13566L21.2728 0.0287568L21.4868 0L21.6222 1.00967L21.6538 1.2636C21.7203 0.933632 21.8725 0.648283 22.0855 0.435041C22.2998 0.220397 22.5756 0.0782801 22.8875 0.0364735C23.2852 -0.0168369 23.6129 0.0526062 23.8555 0.218149C24.1091 0.391128 24.2678 0.667781 24.3147 1.01795L24.8046 4.67154C24.8244 4.82011 24.8406 4.89951 24.8768 4.92687C24.9129 4.95464 24.9937 4.94945 25.1424 4.92939L25.4771 4.88464L25.5069 5.10602L23.5368 5.37005L23.507 5.14853L24.1434 5.06337C24.1316 5.03377 24.1235 4.99729 24.1166 4.94468L23.6191 1.23428C23.5744 0.900245 23.4943 0.651509 23.368 0.49733C23.2506 0.353953 23.0873 0.293347 22.868 0.322388C22.5316 0.367561 22.2554 0.57028 22.0794 0.882708C21.8989 1.20299 21.8221 1.63817 21.8892 2.13887L22.274 5.01062C22.2939 5.15849 22.3112 5.23705 22.3488 5.26455C22.3871 5.29303 22.4697 5.28755 22.6191 5.26763L22.9467 5.22386L22.9763 5.44524L21.0063 5.70927Z" fill="white"/>
<path d="M29.3406 5.67854L27.4583 5.36527L27.4949 5.14474L27.821 5.19889C27.9697 5.22358 28.0509 5.23256 28.0871 5.20773C28.1227 5.18318 28.1411 5.10644 28.1656 4.95885L28.8685 0.735683C28.8931 0.588238 28.9006 0.509674 28.8748 0.474601C28.8486 0.439388 28.769 0.42157 28.6206 0.396879L28.2943 0.342729L28.3309 0.122193L30.2919 0.448228L30.2526 0.683074L29.9266 0.62878C29.7772 0.604089 29.6943 0.594832 29.6558 0.620224C29.6186 0.644915 29.5991 0.721091 29.5749 0.867415L28.8743 5.07684C28.8498 5.22358 28.8435 5.30172 28.8709 5.33736C28.8988 5.37369 28.9803 5.39179 29.1296 5.41662L29.4558 5.47091L29.4191 5.69145L29.3406 5.67854Z" fill="white"/>
<path d="M30.1847 3.86038L30.4622 3.9374L30.3633 4.29752C30.2588 4.67897 30.2899 5.03208 30.4203 5.31617C30.5554 5.60994 30.7978 5.83076 31.1063 5.93191C31.3912 6.02534 31.658 6.01061 31.8749 5.90399C32.0911 5.79737 32.2603 5.59801 32.3508 5.32192C32.4403 5.04892 32.3943 4.79205 32.2762 4.54584C32.1537 4.29079 31.9531 4.0436 31.7429 3.80047C31.502 3.52214 31.2567 3.2351 31.1031 2.91299C30.9454 2.58261 30.8846 2.21954 31.0221 1.79979C31.1385 1.44429 31.38 1.19527 31.7004 1.07041C32.0154 0.947801 32.4058 0.946819 32.8268 1.08487C33.041 1.15487 33.2113 1.25251 33.3491 1.36208C33.4857 1.47109 33.5904 1.5923 33.6743 1.71042L33.6827 1.72249C33.7095 1.61611 33.7383 1.5096 33.7671 1.40314L33.7673 1.40265L33.7674 1.40221C33.7806 1.35313 33.7939 1.30407 33.807 1.25504L34.0273 1.32715L33.5337 3.10982L33.2561 3.03294L33.3572 2.66566C33.4331 2.38761 33.4284 2.08654 33.3091 1.83753C33.2088 1.62751 33.025 1.45285 32.7373 1.35871C32.4801 1.2744 32.2599 1.2751 32.0858 1.35787C31.9129 1.4405 31.7811 1.60703 31.6997 1.85534L31.6982 1.85997C31.616 2.11586 31.6655 2.35029 31.7846 2.5777C31.9093 2.81605 32.1122 3.05104 32.3223 3.2936C32.5694 3.57895 32.8216 3.88549 32.9778 4.23257C33.1373 4.5868 33.1962 4.98018 33.049 5.42967C32.9207 5.82108 32.6514 6.0945 32.2926 6.23016C31.9399 6.36344 31.5013 6.36218 31.0277 6.20702C30.8093 6.13533 30.6297 6.04063 30.4692 5.9169C30.3097 5.794 30.1705 5.64375 30.0319 5.46067L30.0314 5.45969C30.0196 5.44384 30.0064 5.41985 29.9934 5.39179C29.9604 5.51682 29.9258 5.64167 29.8911 5.76654L29.8908 5.7677L29.8904 5.76887C29.8726 5.83321 29.8547 5.89755 29.8371 5.96193L29.621 5.90399L30.1847 3.86038Z" fill="white"/>
<path d="M38.4383 7.46164L38.9157 4.85027C38.9203 4.82137 38.9262 4.79429 38.9331 4.76904L38.8635 4.81828L35.1879 7.28543L34.9271 7.11905L39.2682 4.18837L39.846 4.55692L39.7569 4.69637C39.7207 4.75305 39.6843 4.82249 39.6553 4.88885C39.6272 4.95254 39.6062 5.01258 39.5991 5.05327L38.7953 9.45741L38.795 9.45947C38.7648 9.63455 38.7451 9.74814 38.7558 9.82399C38.7645 9.88614 38.7995 9.92949 38.8773 9.97915L38.9926 10.0528L38.8726 10.2412L37.5841 9.41869L37.7043 9.23056L38.0876 9.47523L38.0881 9.43861C38.0912 9.35977 38.1052 9.27503 38.1173 9.20727L38.3822 7.75877L37.0751 6.9246C37.0911 6.99419 37.0979 7.06658 37.0963 7.13897C37.0921 7.31237 37.039 7.48857 36.9462 7.63419C36.761 7.91074 36.5403 8.19202 36.3237 8.46815C36.2194 8.60119 36.1159 8.73303 36.0179 8.86258L35.8374 8.72018L36.051 8.43062C36.0228 8.41968 35.9916 8.40228 35.9523 8.37731L32.9292 6.44804L33.0494 6.25963L33.3279 6.43723C33.4508 6.5158 33.5238 6.54554 33.5753 6.528C33.6311 6.50934 33.6873 6.43331 33.7701 6.30354L36.0425 2.74296C36.1229 2.61684 36.1608 2.54753 36.1507 2.50517C36.1405 2.46224 36.0742 2.41468 35.9471 2.33373L35.6687 2.15585L35.7886 1.96758L37.4642 3.03687L37.344 3.22514L37.0654 3.04739C36.9379 2.96602 36.8651 2.92492 36.8196 2.93319C36.7757 2.94147 36.728 3.00362 36.648 3.12904L34.3833 6.67769C34.3377 6.74896 34.2811 6.80465 34.2199 6.84688C34.1979 6.86189 34.1751 6.87508 34.1523 6.88701L35.2486 7.58664C35.5277 7.76481 35.773 7.88377 35.9948 7.89289C36.2072 7.90145 36.4055 7.80549 36.603 7.55717L36.7479 7.37438L36.7687 7.34337C36.8492 7.21753 36.8767 7.08832 36.8516 6.96781C36.8265 6.84773 36.749 6.73283 36.62 6.63406L36.4546 6.52856L36.6891 6.3452L38.4383 7.46164Z" fill="white"/>
<path d="M40.0111 11.8358L38.7684 10.388L38.938 10.2423L39.1534 10.4933C39.251 10.6071 39.3077 10.6646 39.3528 10.668C39.3983 10.6715 39.4632 10.6231 39.5772 10.5254L42.6788 7.86301C42.712 7.83453 42.7309 7.79763 42.7333 7.75919C42.7355 7.72244 42.7226 7.68273 42.6926 7.64696C42.6113 7.56054 42.5232 7.47573 42.4359 7.39165C42.3972 7.3544 42.3587 7.31729 42.321 7.28024L42.445 7.13181L42.9523 7.5228C43.0635 7.60964 43.1885 7.66885 43.3096 7.67881C43.4099 7.68694 43.5088 7.66071 43.5949 7.58677L43.677 7.51677L43.818 7.68077L43.0447 8.34434L42.849 8.50919C43.162 8.38517 43.4843 8.35725 43.779 8.41968C44.0759 8.48239 44.3454 8.63643 44.5505 8.87534C44.8115 9.17949 44.9319 9.49206 44.9252 9.78569C44.9183 10.0931 44.7727 10.3769 44.5046 10.6071L41.7076 13.008C41.5938 13.1057 41.5363 13.1623 41.533 13.2075C41.5294 13.253 41.5778 13.3178 41.6756 13.4316L41.8955 13.6877L41.726 13.8336L40.4311 12.3251L40.6009 12.1795L41.0189 12.6668C41.0374 12.6406 41.0638 12.6137 41.1039 12.5794L43.9445 10.1412C44.2006 9.92149 44.3654 9.71877 44.4257 9.52952C44.482 9.35276 44.4438 9.18258 44.2998 9.01451C44.0756 8.75343 43.7493 8.63278 43.3849 8.65972C43.0224 8.68623 42.6216 8.85879 42.2432 9.18356L40.0448 11.0706C39.9314 11.1678 39.8751 11.2252 39.8725 11.2717C39.8697 11.3189 39.9192 11.3856 40.0175 11.4999L40.2327 11.7507L40.063 11.8961L40.0111 11.8358Z" fill="white"/>
<path fill-rule="evenodd" clip-rule="evenodd" d="M42.7622 15.6944L41.81 13.821L42.0095 13.7197L42.1591 14.0143C42.2272 14.1482 42.2688 14.2177 42.3118 14.2316C42.3551 14.2458 42.4296 14.2142 42.5635 14.1461L46.3097 12.2422C46.4479 12.1718 46.5326 12.1215 46.5598 12.065C46.5844 12.0138 46.5645 11.9379 46.4988 11.8085L46.3493 11.5141L46.5486 11.4129L47.501 13.2869C47.8913 14.0552 47.9813 14.8169 47.7966 15.4771C47.6115 16.1403 47.1506 16.6995 46.441 17.06C45.73 17.4213 45.0053 17.4646 44.3594 17.224C43.7159 16.9846 43.1527 16.4631 42.7622 15.6944ZM42.6974 14.846L42.6554 14.8486L42.9316 15.392C43.272 16.0616 43.7169 16.4816 44.2465 16.6456C44.777 16.81 45.3982 16.7197 46.09 16.368L46.0965 16.3648C46.7818 16.015 47.2172 15.5689 47.3956 15.0457C47.5741 14.5215 47.4966 13.9143 47.1561 13.2446L46.8803 12.7018L46.8533 12.734C46.8083 12.7831 46.7491 12.8248 46.6672 12.8665L42.9141 14.7737C42.8319 14.8152 42.7633 14.8384 42.6974 14.846Z" fill="white"/>
<path d="M45.9862 18.0979L46.0649 18.3753L45.7053 18.4785C45.3257 18.5874 45.0404 18.7977 44.8658 19.0568C44.685 19.3253 44.6226 19.647 44.6966 19.9632C44.7652 20.255 44.9163 20.4751 45.1199 20.6048C45.3233 20.734 45.5817 20.7747 45.8653 20.7083C46.1449 20.6425 46.34 20.4699 46.4889 20.2409C46.643 20.0035 46.7497 19.7037 46.848 19.3977C46.9601 19.0477 47.0778 18.689 47.2729 18.3897C47.4731 18.083 47.752 17.8417 48.1817 17.7411C48.5458 17.6557 48.8839 17.7322 49.157 17.9408C49.426 18.1462 49.63 18.4791 49.7313 18.9106C49.7825 19.1295 49.7878 19.3255 49.7659 19.5004C49.744 19.6745 49.6949 19.8269 49.6378 19.9594L49.6316 19.9733C49.7416 19.9389 49.853 19.9067 49.9641 19.8745C50.0081 19.8617 50.052 19.849 50.0959 19.8361L50.1489 20.0618L48.3694 20.5679L48.2907 20.2904L48.657 20.1857C48.9338 20.1062 49.1885 19.9457 49.3393 19.7139C49.4661 19.5189 49.5197 19.2713 49.4505 18.9764C49.3884 18.712 49.2728 18.5237 49.1105 18.4185C48.9505 18.3148 48.7402 18.2894 48.4863 18.3489C48.2226 18.4108 48.0468 18.5756 47.9139 18.7968C47.7749 19.0283 47.6799 19.3232 47.5824 19.6283C47.4671 19.988 47.3366 20.363 47.1216 20.677C46.9019 20.9977 46.5966 21.2529 46.1362 21.3608C45.7354 21.4548 45.3618 21.367 45.0592 21.1311C44.7615 20.8992 44.5343 20.524 44.4207 20.0388C44.3682 19.8152 44.3557 19.6125 44.3778 19.4115C44.3997 19.2111 44.4555 19.014 44.5399 18.8003L44.5405 18.7994C44.5481 18.7808 44.5617 18.7571 44.5789 18.7316C44.4475 18.7707 44.3153 18.8082 44.1833 18.8456L44.1817 18.8461C44.1248 18.8622 44.0677 18.8784 44.0109 18.8946L43.9476 18.6798L45.9862 18.0979Z" fill="white"/>
<path d="M3.8958 25.02C3.8958 24.5399 3.50664 24.1507 3.0267 24.1507C2.54663 24.1507 2.1576 24.5399 2.1576 25.02C2.1576 25.4998 2.54663 25.8889 3.0267 25.8889C3.50664 25.8889 3.8958 25.4998 3.8958 25.02Z" fill="white"/>
<path d="M47.9028 24.1507C48.3828 24.1507 48.7719 24.5399 48.7719 25.02C48.7719 25.4998 48.3828 25.8889 47.9028 25.8889C47.4228 25.8889 47.0337 25.4998 47.0337 25.02C47.0337 24.5399 47.4228 24.1507 47.9028 24.1507Z" fill="white"/>
</svg>
