<svg width="50" height="50" viewBox="0 0 50 50" fill="none" xmlns="http://www.w3.org/2000/svg">
<path d="M21.3252 38.653H28.6924V38.3932H27.6813C26.2956 38.3932 26.1212 38.2774 26.1212 36.8907V13.1806C26.1212 11.7937 26.2946 11.6784 27.6813 11.6784H28.6924V11.3604H21.3252V11.6205H22.3363C23.723 11.6205 23.8677 11.737 23.8677 13.123V36.8907C23.8677 38.2764 23.7221 38.3932 22.3363 38.3932H21.3252V38.653Z" fill="white"/>
<path d="M30.0466 29.4417V20.1675H29.7867V21.1789C29.7867 23.6513 28.5917 24.1495 27.1863 24.2284V24.7754C28.5923 24.8591 29.7867 25.3802 29.7867 27.8525V29.4417H30.0466Z" fill="white"/>
<path d="M22.8027 24.2414H20.4422V16.672C20.4422 16.0364 20.1531 15.5163 19.8064 15.1695V15.1406H22.8027V14.6206H15.6462V14.8807H16.6572C18.0439 14.8807 18.1887 15.0252 18.1887 16.4121V33.602C18.1887 34.9887 18.0439 35.133 16.6572 35.133H15.6462V35.3931H22.8027V34.8731H19.8064V34.8439C20.1531 34.4974 20.4422 33.9773 20.4422 33.3419V24.7615H22.8027V24.2414Z" fill="white"/>
<path d="M27.1863 15.1406H27.755C30.5285 15.1406 32.0264 16.2103 32.2042 19.3298L32.3196 21.3521H32.8396L32.3196 13.5226L32.0597 13.5421L32.1462 14.8807H32.1176C31.9153 14.6785 31.5106 14.6206 31.0485 14.6206H27.1863V15.1406Z" fill="white"/>
<path d="M27.1863 35.3931H32.6086C33.071 35.3931 33.4753 35.3354 33.6776 35.133H33.7067L33.62 36.4717L33.8801 36.4909L34.3711 28.6617H33.9087L33.7353 30.9728C33.5275 33.7457 32.2039 34.8731 29.4308 34.8731H27.1863V35.3931Z" fill="white"/>
<path d="M47.5466 31.7286L45.2491 31.1024L45.3079 30.8869L45.765 31.0117C46.0685 31.0942 46.2558 31.0617 46.3763 30.9665C46.4988 30.8697 46.5625 30.7019 46.6115 30.5219L46.666 30.3217L44.6878 29.7824C44.6063 29.7608 44.536 29.723 44.4775 29.6769C44.4566 29.6604 44.4371 29.643 44.4191 29.6245L44.0847 30.8515C43.9995 31.164 43.9987 31.4098 44.0939 31.601C44.1886 31.7911 44.3827 31.9337 44.6877 32.0411L45.2995 32.2582L45.2275 32.5219L43.2284 31.8398L43.3031 31.6287L43.5679 31.7196L43.5684 31.7085C43.5711 31.6559 43.583 31.5972 43.5996 31.5368L44.4747 28.3257L44.6903 28.3843L44.6032 28.7036C44.5639 28.8481 44.5481 28.9274 44.5704 28.9669C44.5932 29.0066 44.6696 29.0331 44.8142 29.0727L48.931 30.1946C49.0757 30.2339 49.1551 30.2497 49.1945 30.2272C49.2342 30.2047 49.2608 30.1283 49.3003 29.9835L49.3871 29.6649L49.6026 29.7237L48.8293 32.5609C48.8128 32.6214 48.7933 32.6779 48.7693 32.7243L48.7639 32.7343L49.0382 32.7906L48.9956 33.0098L46.9247 32.5906L47.0009 32.3117L47.566 32.4314C47.9232 32.5077 48.182 32.4799 48.3693 32.3569C48.5573 32.2333 48.6812 32.0097 48.7666 31.6963L48.9916 30.8707C48.9669 30.8774 48.9413 30.8826 48.9148 30.8861C48.8407 30.8962 48.7611 30.8928 48.6799 30.8708L46.9438 30.3973L46.8892 30.5977C46.8401 30.7775 46.8084 30.9541 46.8633 31.0996C46.9172 31.2424 47.0601 31.3646 47.3633 31.4471L47.6822 31.5341L47.6232 31.7496L47.5466 31.7286Z" fill="white"/>
<path d="M42.0832 34.9453L43.4813 32.1799L43.6809 32.2807L43.5318 32.5755C43.466 32.7058 43.4438 32.7813 43.4661 32.8307C43.4904 32.8843 43.5716 32.9327 43.709 33.0021L47.4786 34.9078C47.6122 34.9753 47.685 35.006 47.7258 34.9917C47.7675 34.9773 47.8081 34.9067 47.8762 34.772L48.0253 34.4768L48.2249 34.5781L47.3281 36.3518L47.1286 36.2512L47.2776 35.9562C47.3459 35.8208 47.3796 35.7442 47.3666 35.7C47.3543 35.6574 47.2875 35.616 47.1547 35.5491L43.3978 33.6497C43.3224 33.6115 43.2612 33.5606 43.2131 33.5038C43.196 33.4837 43.1804 33.4627 43.1665 33.4412L42.7998 34.1662C42.6504 34.4621 42.5548 34.7212 42.5673 34.9443C42.5791 35.1572 42.694 35.3445 42.9631 35.5098L43.6395 35.9231L43.5032 36.1925L41.6069 35.06L41.731 34.8652L42.0402 35.0487C42.0484 35.0195 42.0621 34.9867 42.0832 34.9453Z" fill="white"/>
<path fill-rule="evenodd" clip-rule="evenodd" d="M41.0431 41.029L43.5145 37.8898L43.5094 37.8859C42.8608 37.3754 42.247 37.1271 41.7047 37.1192C41.1521 37.1109 40.6707 37.3539 40.3011 37.8235C40.0143 38.1877 39.8356 38.5735 39.7628 38.9586C39.6887 39.35 39.7236 39.7425 39.865 40.1119L39.8969 40.1944L39.615 40.2679L39.5899 40.2007C39.4343 39.7829 39.3979 39.3395 39.4841 38.8963C39.5682 38.4649 39.7685 38.0339 40.0878 37.6283C40.5725 37.0126 41.2163 36.6478 41.9013 36.5691C42.5624 36.4934 43.2608 36.6836 43.8905 37.1713L43.9126 37.1882C44.5468 37.6878 44.9075 38.3194 44.9834 38.9877C45.0583 39.6477 44.8549 40.3413 44.3627 40.9764L44.3456 40.9984C43.9374 41.5169 43.3769 41.8471 42.7846 41.9343C42.219 42.0172 41.6248 41.8786 41.1069 41.4709L41.0743 41.4452C41.0137 41.3954 40.9798 41.3246 40.9735 41.2504C40.9673 41.1763 40.989 41.0977 41.0394 41.0337L41.0431 41.029ZM44.567 39.4009C44.4934 38.9523 44.2152 38.5059 43.7361 38.0761L41.6118 40.8533C42.0753 41.2147 42.5589 41.3897 43.0004 41.3797C43.4396 41.3699 43.8395 41.1754 44.1367 40.7976C44.5008 40.3351 44.6432 39.8641 44.567 39.4009Z" fill="white"/>
<path d="M41.6697 43.7132L41.7526 43.831L40.4615 44.7398L40.3328 44.5569L40.6988 44.2994C40.6182 44.2677 40.5358 44.2167 40.4726 44.1722L36.8245 41.8553C36.8137 41.8479 36.7824 41.8265 36.7461 41.7975C36.7582 41.8334 36.7698 41.8751 36.7798 41.9226L37.6908 46.0076C37.6984 46.0423 37.7075 46.0737 37.7186 46.1017C37.7283 46.1262 37.7391 46.1475 37.7511 46.1654L37.7542 46.1698C37.782 46.2094 37.8178 46.2324 37.8614 46.2339C37.914 46.2357 37.9812 46.2112 38.0636 46.1544C38.1998 46.057 38.3371 45.9608 38.4743 45.8646L38.639 45.7491L38.768 45.932L37.3593 46.9236L37.2307 46.7406L37.3659 46.6452C37.4376 46.5947 37.4683 46.5446 37.4734 46.4779C37.4795 46.3968 37.4548 46.2841 37.4185 46.1255L36.2598 41.158L36.6433 40.8434L40.9582 43.6342C41.099 43.7254 41.1964 43.7865 41.274 43.8066C41.3381 43.8231 41.3956 43.8087 41.4709 43.7558L41.6241 43.6479L41.6697 43.7132Z" fill="white"/>
<path fill-rule="evenodd" clip-rule="evenodd" d="M30.9563 46.8353L34.6796 45.3713L34.6769 45.3649C34.37 44.5842 33.9568 44.0555 33.4831 43.7784C33.0162 43.5052 32.4865 43.4766 31.9392 43.6916L31.9312 43.6948C31.504 43.8643 31.1576 44.1057 30.9016 44.3997C30.6398 44.7007 30.4717 45.0567 30.4075 45.4464L30.393 45.5341L30.1129 45.4553L30.1251 45.3849C30.2017 44.9455 30.3943 44.544 30.6926 44.2052C30.9828 43.8752 31.3732 43.6043 31.854 43.4153C32.5747 43.1321 33.3053 43.1388 33.9314 43.4072C34.5576 43.6756 35.0779 44.2052 35.3774 44.9668C35.6727 45.7181 35.6653 46.4452 35.3935 47.0602C35.1219 47.6748 34.5867 48.1755 33.8273 48.4742C33.2136 48.7156 32.563 48.7176 32.0081 48.494C31.4778 48.2798 31.0347 47.8603 30.7934 47.2465L30.7804 47.2131C30.7509 47.1385 30.7568 47.0581 30.7896 46.9892C30.822 46.922 30.8804 46.8652 30.9563 46.8353ZM34.825 47.2072C34.9878 46.7823 34.9732 46.2565 34.7767 45.6437L31.541 46.9686C31.7585 47.5145 32.0876 47.9098 32.4738 48.1242C32.8581 48.3373 33.3017 48.3712 33.7491 48.1953C34.2966 47.9801 34.6569 47.6456 34.825 47.2072Z" fill="white"/>
<path d="M27.5388 44.5441L29.4302 44.2906L29.46 44.5121L29.1324 44.556C28.9835 44.5762 28.9043 44.5924 28.8768 44.6283C28.8491 44.6645 28.8543 44.7451 28.8742 44.8938L29.4175 48.9477C29.4236 48.9892 29.4435 49.0243 29.4729 49.0466C29.5025 49.0693 29.543 49.0805 29.5899 49.0748C29.7081 49.0535 29.8284 49.0257 29.9478 48.9981L29.9483 48.9979L29.9488 48.9978L29.9495 48.9977C30.0003 48.9859 30.0508 48.9743 30.101 48.9631L30.1578 49.1477L29.5535 49.3604C29.4197 49.4063 29.302 49.4791 29.2279 49.5745C29.1663 49.654 29.1346 49.7514 29.1495 49.8642L29.1641 49.9714L28.9496 50L28.8142 48.9903L28.7826 48.7363C28.716 49.0662 28.5639 49.3517 28.351 49.565C28.1366 49.7796 27.8608 49.9214 27.5486 49.9635L27.5415 49.9644C27.1398 50.0167 26.8103 49.944 26.568 49.7729C26.3218 49.599 26.1676 49.3263 26.1216 48.9822L25.632 45.3286C25.6119 45.1798 25.5958 45.1006 25.5597 45.0729C25.5235 45.0455 25.4427 45.0505 25.294 45.0703L24.9594 45.1155L24.9297 44.8938L26.8998 44.6298L26.9295 44.8513L26.2932 44.9368C26.305 44.9664 26.3128 45.0028 26.32 45.0555L26.8173 48.7657C26.8619 49.0999 26.9422 49.3485 27.0684 49.5025C27.186 49.6459 27.3492 49.7068 27.5683 49.6773C27.905 49.6323 28.1809 49.4296 28.357 49.1171C28.5374 48.7971 28.6143 48.362 28.5472 47.8611L28.1623 44.9894C28.1425 44.8415 28.1251 44.763 28.0876 44.7352C28.0495 44.707 27.9667 44.7123 27.8173 44.7324L27.4899 44.7763L27.4603 44.5548L27.5388 44.5441Z" fill="white"/>
<path d="M22.9496 44.6349L22.9129 44.8554L22.5868 44.8011C22.438 44.7764 22.3569 44.7673 22.3207 44.7924C22.2849 44.817 22.2666 44.8936 22.242 45.041L21.5392 49.2646C21.5146 49.4118 21.507 49.4905 21.5328 49.5253C21.5592 49.5607 21.6386 49.5786 21.7872 49.6031L22.1135 49.6574L22.0769 49.8781L20.1159 49.5516L20.1552 49.3171L20.4811 49.3714C20.6305 49.3962 20.7135 49.4053 20.752 49.3798C20.7892 49.3552 20.8085 49.279 20.8329 49.1323L21.5335 44.9233C21.558 44.7766 21.5643 44.6984 21.5369 44.6628C21.509 44.6263 21.4275 44.6083 21.2781 44.5834L20.952 44.5291L20.9887 44.3087L22.9496 44.6349Z" fill="white"/>
<path d="M20.7655 44.2453L20.2232 46.2112L19.9457 46.1346L20.0446 45.7742C20.149 45.393 20.1179 45.0396 19.9874 44.7558C19.8529 44.4629 19.6117 44.2428 19.3048 44.141L19.3014 44.1401C19.0163 44.0468 18.7496 44.0612 18.5327 44.1681C18.3177 44.274 18.149 44.4719 18.0583 44.7461L18.057 44.7502C17.9675 45.0232 18.0135 45.2799 18.1316 45.526C18.254 45.781 18.4547 46.0282 18.6649 46.2714C18.9058 46.5497 19.1511 46.8366 19.3049 47.1588C19.4626 47.4891 19.5233 47.8523 19.3858 48.272C19.2695 48.6274 19.0282 48.8767 18.7077 49.0016C18.3929 49.124 18.0023 49.125 17.5813 48.9872C17.3671 48.917 17.1967 48.8195 17.059 48.7097C16.9225 48.6012 16.8178 48.4801 16.7341 48.362L16.7254 48.3492C16.699 48.4549 16.6704 48.5606 16.6417 48.6662C16.6281 48.7165 16.6144 48.7668 16.6011 48.8169L16.3808 48.7448L16.8744 46.962L17.152 47.0392L17.0507 47.4066C16.9749 47.6844 16.9796 47.9854 17.099 48.2347C17.1993 48.4443 17.3829 48.619 17.6708 48.7131C17.9288 48.7979 18.15 48.7972 18.3241 48.7131C18.4963 48.6303 18.6273 48.464 18.7084 48.2163C18.7927 47.9589 18.7433 47.7231 18.6235 47.494C18.4986 47.2556 18.2956 47.0208 18.0856 46.7785C17.8386 46.4929 17.5863 46.1866 17.43 45.8395C17.2721 45.4885 17.2126 45.0995 17.3547 44.6552L17.3588 44.6424C17.4871 44.251 17.7564 43.9773 18.1151 43.8417C18.4676 43.7084 18.9062 43.7098 19.3798 43.865C19.5982 43.9365 19.7779 44.0313 19.9384 44.1548C20.098 44.2775 20.2373 44.4278 20.3759 44.611L20.3764 44.612C20.3881 44.628 20.4013 44.6518 20.4143 44.6798C20.4501 44.5444 20.4877 44.4092 20.5252 44.2742C20.5404 44.2195 20.5557 44.1648 20.5707 44.1102L20.7868 44.1676L20.7655 44.2453Z" fill="white"/>
<path d="M12.0124 42.6102L11.535 45.2216C11.5304 45.2505 11.5245 45.2777 11.5176 45.3027L11.5874 45.2533L15.263 42.7861L15.5238 42.9526C14.9713 43.3257 14.4186 43.6987 13.866 44.0716L13.8453 44.0856L13.8444 44.0862C12.9569 44.685 12.0695 45.2839 11.1826 45.8834L10.6049 45.5146L10.694 45.3753C10.7301 45.3186 10.7664 45.2491 10.7956 45.1828C10.8235 45.1191 10.8445 45.0591 10.8518 45.0184L11.6554 40.6143C11.686 40.4378 11.7056 40.3239 11.6951 40.2476C11.6863 40.1855 11.6512 40.1422 11.5736 40.0924L11.4583 40.019L11.5782 39.8305L12.8668 40.653L12.7466 40.8413L12.3633 40.5965L12.3626 40.6329C12.3595 40.7119 12.3456 40.7965 12.3334 40.8644L12.0686 42.3129L13.3756 43.1472C13.3597 43.0776 13.3529 43.0051 13.3546 42.9327C13.3587 42.7596 13.4117 42.5831 13.5046 42.4376C13.6908 42.1592 13.9137 41.8751 14.1321 41.5968L14.1324 41.5964C14.235 41.4657 14.3367 41.3362 14.433 41.2091L14.6134 41.3514L14.3998 41.6409C14.428 41.652 14.459 41.6694 14.4985 41.6944L17.5217 43.6236L17.4014 43.8119L17.123 43.6344C17.0001 43.5559 16.9271 43.5262 16.8755 43.5437C16.8196 43.5623 16.7635 43.6385 16.6806 43.7683L14.4082 47.3287C14.3278 47.4548 14.2901 47.5243 14.3002 47.5667C14.3104 47.6093 14.3766 47.657 14.5037 47.7381L14.7822 47.9157L14.6623 48.104L12.9866 47.0348L13.1069 46.8465L13.3853 47.0242C13.513 47.1057 13.5858 47.1468 13.6313 47.1385C13.6752 47.1302 13.7227 47.0679 13.8028 46.9425L16.0675 43.3941C16.113 43.3229 16.1697 43.267 16.231 43.2248C16.253 43.2098 16.2756 43.1965 16.2985 43.1847L15.2022 42.4849C14.9231 42.3067 14.6777 42.1879 14.456 42.1788C14.2438 42.1702 14.0453 42.2662 13.8479 42.5145L13.7032 42.697L13.6822 42.7283C13.6017 42.8542 13.5742 42.9835 13.5993 43.104C13.6242 43.224 13.7017 43.339 13.8308 43.4376L13.9963 43.5431L13.7617 43.7265L12.0124 42.6102Z" fill="white"/>
<path d="M10.411 38.2359L11.6539 39.6837L11.4843 39.8293L11.2689 39.5784C11.1713 39.4647 11.1144 39.4071 11.0693 39.4036C11.0238 39.4002 10.9589 39.4486 10.845 39.5462L7.74327 42.2088C7.7103 42.2372 7.69136 42.2742 7.68897 42.3125C7.68659 42.3493 7.6995 42.389 7.72966 42.4247C7.8124 42.5127 7.90213 42.5991 7.991 42.6847C8.0281 42.7204 8.06505 42.756 8.10129 42.7914L7.97727 42.9399L7.46998 42.549C7.35873 42.462 7.23373 42.4028 7.11266 42.393C7.01235 42.3846 6.91345 42.4108 6.82717 42.4849L6.74524 42.5551L6.60439 42.3909L7.37753 41.7272L7.57324 41.5624C7.26011 41.6865 6.938 41.7144 6.64325 41.652C6.34625 41.5893 6.0769 41.4353 5.87179 41.1962C5.61057 40.8922 5.49034 40.5796 5.49708 40.286C5.50395 39.9786 5.64943 39.695 5.91753 39.4646L8.71464 37.0637C8.82827 36.966 8.88579 36.9093 8.8893 36.8642C8.89267 36.8189 8.84427 36.7538 8.74648 36.64L8.52679 36.3838L8.69626 36.2381L9.99114 37.7465L9.82139 37.8922L9.40333 37.4051C9.38509 37.4309 9.35857 37.4575 9.31817 37.4922L6.47771 39.9305C6.22154 40.1502 6.05669 40.3528 5.99651 40.5422C5.94011 40.7188 5.97813 40.889 6.12249 41.057C6.34653 41.3181 6.67285 41.4388 7.03719 41.412C7.3997 41.3853 7.80065 41.2129 8.17901 40.8881L10.3774 39.0011C10.4907 38.9039 10.547 38.8463 10.5498 38.8C10.5524 38.7526 10.5029 38.6863 10.4047 38.5718L10.1895 38.3209L10.3593 38.1755L10.411 38.2359Z" fill="white"/>
<path fill-rule="evenodd" clip-rule="evenodd" d="M7.617 34.3772L8.56916 36.2507L8.36967 36.3522L8.21997 36.0572C8.15179 35.9235 8.11027 35.8542 8.0672 35.84C8.02427 35.8262 7.94978 35.8577 7.81594 35.9256L4.0692 37.8296C3.93101 37.8998 3.84656 37.9502 3.81934 38.0067C3.79479 38.0578 3.81457 38.1337 3.88023 38.2629L4.03006 38.5576L3.83056 38.659L2.87813 36.7849C2.4877 36.0165 2.39778 35.2549 2.5824 34.5945C2.76772 33.9317 3.22844 33.3725 3.93817 33.0117C4.64916 32.6505 5.3739 32.6072 6.0198 32.8476C6.66331 33.0871 7.22644 33.6086 7.617 34.3772ZM7.68182 35.2257L7.72363 35.223L7.44754 34.6797C7.10719 34.0101 6.66233 33.5901 6.13273 33.4261C5.60201 33.2616 4.98095 33.3523 4.28917 33.7037L4.27893 33.7088C3.59572 34.0584 3.16166 34.5038 2.98363 35.0261C2.8049 35.5502 2.88248 36.1574 3.22297 36.8273L3.49878 37.3699L3.52585 37.3375C3.57075 37.289 3.62995 37.2469 3.7123 37.2052L7.46479 35.2981C7.54672 35.2563 7.6156 35.2333 7.68182 35.2257Z" fill="white"/>
<path d="M6.45666 31.4069L4.52472 32.0606L4.43269 31.7878L4.7865 31.6674C5.1608 31.54 5.43563 31.3162 5.59752 31.0491C5.76517 30.7725 5.81189 30.448 5.72252 30.1355C5.64017 29.8475 5.47856 29.635 5.26896 29.5153C5.05951 29.3959 4.79927 29.3676 4.51939 29.4478C4.24344 29.5267 4.05685 29.7086 3.91923 29.9443C3.77669 30.1887 3.68466 30.4934 3.60119 30.8039C3.50621 31.159 3.40619 31.5225 3.22493 31.8314C3.03975 32.1475 2.77305 32.4017 2.34867 32.5233C1.98939 32.626 1.64792 32.5659 1.36496 32.3708C1.08648 32.1787 0.866506 31.8558 0.744594 31.4297C0.682586 31.2133 0.667855 31.0176 0.681323 30.842C0.694791 30.6672 0.736316 30.5128 0.787101 30.3773L0.792713 30.3635C0.691498 30.4005 0.589022 30.4357 0.486638 30.4709L0.486008 30.4711L0.485598 30.4712L0.484964 30.4714L0.484517 30.4716L0.483665 30.4719C0.434363 30.4888 0.385029 30.5058 0.335928 30.5229L0.272095 30.3004L2.02489 29.7091L2.11691 29.9819L1.75609 30.1041C1.48364 30.1971 1.23715 30.37 1.09756 30.6086C0.98 30.8092 0.938614 31.0592 1.02195 31.3507L1.02307 31.3545C1.0977 31.6125 1.22102 31.7934 1.38642 31.8904C1.5514 31.9872 1.76338 32.0027 2.0152 31.9306L2.01787 31.9299C2.27643 31.8551 2.44337 31.6821 2.56528 31.4554C2.69253 31.2183 2.77334 30.9186 2.85625 30.6087C2.95389 30.2447 3.06598 29.8644 3.26618 29.5396C3.47016 29.2086 3.7628 28.939 4.21749 28.8091L4.22829 28.8059C4.62054 28.6971 4.99357 28.7674 5.30418 28.9863C5.61254 29.2036 5.85748 29.5677 5.99469 30.0469L5.99777 30.0577C6.05852 30.2742 6.0797 30.4727 6.06778 30.6715C6.05557 30.8719 6.00914 31.0717 5.9352 31.2893L5.93478 31.2907C5.92819 31.3092 5.91556 31.3335 5.89943 31.3603C6.05349 31.3065 6.20842 31.2544 6.36318 31.2023L6.45905 31.1701L6.53256 31.3813L6.45666 31.4069Z" fill="white"/>
<path d="M4.72351 18.8976L4.66459 19.1131L4.20752 18.9885C3.90393 18.9056 3.71665 18.9382 3.59614 19.0336C3.47367 19.1303 3.40997 19.2982 3.36101 19.4782L3.30644 19.6784L5.28467 20.2174C5.36618 20.2392 5.43647 20.2772 5.49497 20.3232C5.51587 20.3395 5.53538 20.3571 5.55333 20.3757L5.88778 19.1484C5.97294 18.836 5.97378 18.5901 5.87853 18.399C5.78383 18.2089 5.58967 18.0663 5.28481 17.9587L4.67315 17.742L4.74498 17.4784L6.74412 18.1601L6.66934 18.3715L6.40447 18.2803L6.40405 18.2914C6.40125 18.3452 6.38946 18.4035 6.37333 18.4632L5.49792 21.6745L5.28229 21.6156L5.36927 21.2964C5.40855 21.1522 5.42441 21.0726 5.4021 21.0331C5.37937 20.9935 5.30291 20.9669 5.15827 20.9273L1.04145 19.8054C0.896808 19.766 0.817403 19.7503 0.777982 19.7727C0.738279 19.7953 0.711625 19.8717 0.672204 20.0164L0.585363 20.3353L0.369877 20.2765L1.14316 17.4392C1.15901 17.3792 1.17865 17.3231 1.2032 17.2757L1.20867 17.2656L0.934265 17.2096L0.977055 16.9903L3.04774 17.4095L2.97171 17.6883L2.40648 17.5685C2.04916 17.4921 1.79046 17.5201 1.60303 17.6431C1.41518 17.7664 1.29116 17.9902 1.20587 18.3037L0.980843 19.1295C1.00553 19.1227 1.03121 19.1175 1.05772 19.114C1.1318 19.1039 1.21134 19.1072 1.29257 19.1292L3.02866 19.6027L3.08324 19.4025C3.13234 19.2225 3.16405 19.0457 3.10919 18.9004C3.05532 18.7578 2.91236 18.6354 2.60919 18.5527L2.29045 18.466L2.34924 18.2505L4.72351 18.8976Z" fill="white"/>
<path d="M7.91821 15.1266L6.52007 17.892L6.32044 17.7912L6.46957 17.4962C6.53522 17.3662 6.55753 17.2904 6.53523 17.241C6.5111 17.1874 6.42959 17.139 6.29224 17.0696L2.52278 15.1637C2.38936 15.0961 2.31641 15.0655 2.27558 15.0797C2.23406 15.0939 2.19337 15.1647 2.12533 15.2994L1.97621 15.5947L1.77657 15.4934L2.67359 13.7196L2.87308 13.8206L2.72395 14.1153C2.65563 14.2504 2.62196 14.3273 2.63487 14.3714C2.64721 14.414 2.71413 14.4554 2.84685 14.5225L6.60341 16.422C6.67888 16.4603 6.74019 16.5112 6.78817 16.5679C6.80543 16.5882 6.82086 16.6091 6.83474 16.6308L7.20147 15.9054C7.35102 15.6099 7.44655 15.3506 7.43421 15.1274C7.42228 14.9144 7.30752 14.7273 7.03859 14.5619L6.36197 14.149L6.49833 13.8794L8.39478 15.0121L8.27048 15.2065L7.96142 15.0232C7.95314 15.0522 7.93925 15.085 7.91821 15.1266Z" fill="white"/>
<path fill-rule="evenodd" clip-rule="evenodd" d="M8.96141 8.96625L6.48655 12.1103L6.49173 12.1141C7.1403 12.6248 7.75407 12.8729 8.29643 12.8808C8.84904 12.8888 9.33037 12.6459 9.70004 12.1765C9.98679 11.8125 10.1654 11.4265 10.2382 11.0413C10.3123 10.6497 10.2772 10.2575 10.1358 9.88824L10.1042 9.80533L10.3859 9.7321L10.411 9.7993C10.5666 10.2168 10.6031 10.6605 10.5168 11.1034C10.4332 11.5329 10.2344 11.962 9.91777 12.3658L9.91314 12.3718C9.43419 12.9804 8.79965 13.3435 8.12374 13.4281C7.45553 13.5112 6.74791 13.3223 6.11057 12.829L6.08433 12.8085C5.45274 12.3097 5.09332 11.6793 5.01756 11.0125C4.94251 10.3525 5.14607 9.65873 5.63821 9.02377L5.65532 9.00175C6.06343 8.48337 6.62389 8.15271 7.2162 8.06601C7.78185 7.98282 8.37598 8.12128 8.89393 8.52911L8.92213 8.55127C8.98526 8.60079 9.02089 8.67347 9.02735 8.74951C9.03366 8.82358 9.01206 8.902 8.96141 8.96625ZM5.43395 10.5994C5.50774 11.0479 5.78579 11.4942 6.26489 11.9239L8.38902 9.14681C7.92564 8.78542 7.44206 8.6102 7.00057 8.62016C6.56118 8.63026 6.16135 8.8247 5.86408 9.20236C5.50002 9.66504 5.35777 10.136 5.43395 10.5994Z" fill="white"/>
<path d="M8.38832 6.2874L8.30541 6.16956L9.59636 5.26048L9.72529 5.44342L9.35927 5.70085C9.4398 5.73255 9.52229 5.78362 9.58542 5.82809L13.2337 8.14471C13.2446 8.15187 13.2759 8.17347 13.3121 8.20251C13.3002 8.16632 13.2885 8.12465 13.2784 8.07709L12.367 3.99211C12.3592 3.95703 12.35 3.92561 12.3388 3.89699C12.3294 3.87286 12.318 3.85098 12.3051 3.83232L12.3036 3.82993C12.2759 3.79079 12.24 3.76779 12.1965 3.76624C12.1424 3.76428 12.0735 3.78995 11.9885 3.84985L11.4187 4.25095L11.2901 4.06815L12.6985 3.07643L12.8271 3.25909L12.6917 3.35463C12.62 3.40499 12.5895 3.45507 12.5843 3.52185C12.5781 3.60322 12.6029 3.71546 12.6393 3.87455L13.7985 8.84154L13.4154 9.15621L9.1003 6.36611C8.9593 6.27506 8.86222 6.21389 8.78422 6.19369C8.71997 6.17714 8.66231 6.19173 8.58698 6.24462L8.4342 6.35236L8.38832 6.2874Z" fill="white"/>
<path fill-rule="evenodd" clip-rule="evenodd" d="M19.0876 3.16453L15.3644 4.62889L15.3669 4.63492C15.674 5.41578 16.0873 5.94439 16.5609 6.22161C17.028 6.49475 17.5577 6.52337 18.105 6.30803L18.113 6.30494C18.5402 6.13575 18.8864 5.89403 19.1424 5.59984C19.4042 5.2992 19.5723 4.943 19.6364 4.55341L19.651 4.46545L19.9313 4.54429L19.9189 4.61472C19.8425 5.05411 19.6497 5.45562 19.3515 5.7947C19.0613 6.12467 18.6709 6.39543 18.1901 6.58454L18.176 6.59001C17.4599 6.86779 16.7348 6.85951 16.1129 6.59296C15.4866 6.3243 14.9663 5.79498 14.6666 5.03348L14.661 5.01932C14.3713 4.27269 14.3804 3.55103 14.6503 2.93993C14.9219 2.32531 15.457 1.82434 16.2164 1.52566C16.8156 1.29025 17.4495 1.28226 17.9956 1.49003C18.5435 1.69864 19.003 2.12386 19.2505 2.7532L19.2636 2.78659C19.2928 2.86109 19.2869 2.94133 19.2542 3.01021C19.2224 3.07713 19.1649 3.13339 19.0897 3.16355L19.0876 3.16453ZM15.2188 2.7929C15.0561 3.21756 15.0708 3.74323 15.2672 4.35602L18.5027 3.03112C18.2853 2.48539 17.9561 2.08991 17.5701 1.87583C17.1858 1.66272 16.7421 1.62877 16.2947 1.8047C15.7473 2.02004 15.3869 2.3545 15.2188 2.7929Z" fill="white"/>
<path d="M20.5853 5.70927L20.5556 5.48775L20.8832 5.44383C21.0319 5.42391 21.1111 5.40764 21.1386 5.37145C21.1663 5.33553 21.1611 5.25444 21.1413 5.10602L20.5978 1.05218C20.5918 1.01065 20.5719 0.975721 20.5425 0.953555C20.5129 0.930688 20.4721 0.919604 20.4251 0.925076C20.3068 0.946327 20.1861 0.97434 20.0665 1.0021C20.0155 1.01392 19.9647 1.0257 19.9145 1.03689L19.8576 0.852125L20.4619 0.639723C20.5958 0.593708 20.7134 0.521037 20.7875 0.425359C20.8489 0.345954 20.8808 0.248454 20.8658 0.13566L20.8517 0.0287568L21.0658 0L21.2012 1.00967L21.2328 1.2636C21.2993 0.933632 21.4515 0.648283 21.6644 0.435041C21.8788 0.220397 22.1546 0.0782801 22.4665 0.0364735C22.8642 -0.0168369 23.1919 0.0526062 23.4345 0.218149C23.6881 0.391128 23.8468 0.667781 23.8937 1.01795L24.3835 4.67154C24.4033 4.82011 24.4196 4.89951 24.4558 4.92687C24.4919 4.95464 24.5727 4.94945 24.7214 4.92939L25.0561 4.88464L25.0858 5.10602L23.1157 5.37005L23.086 5.14853L23.7224 5.06337C23.7106 5.03377 23.7024 4.99729 23.6956 4.94468L23.1981 1.23428C23.1533 0.900245 23.0732 0.651509 22.947 0.49733C22.8295 0.353953 22.6663 0.293347 22.447 0.322388C22.1106 0.367561 21.8343 0.57028 21.6584 0.882708C21.4779 1.20299 21.4011 1.63817 21.4682 2.13887L21.853 5.01062C21.8729 5.15849 21.8902 5.23705 21.9278 5.26455C21.9661 5.29303 22.0487 5.28755 22.1981 5.26763L22.5257 5.22386L22.5553 5.44524L20.5853 5.70927Z" fill="white"/>
<path d="M28.9196 5.67854L27.0373 5.36527L27.0739 5.14474L27.3999 5.19889C27.5486 5.22358 27.6299 5.23256 27.6661 5.20773C27.7017 5.18318 27.7201 5.10644 27.7446 4.95885L28.4475 0.735683C28.472 0.588238 28.4796 0.509674 28.4538 0.474601C28.4276 0.439388 28.348 0.42157 28.1996 0.396879L27.8733 0.342729L27.9099 0.122193L29.8709 0.448228L29.8316 0.683074L29.5056 0.62878C29.3561 0.604089 29.2732 0.594832 29.2348 0.620224C29.1976 0.644915 29.1781 0.721091 29.1538 0.867415L28.4532 5.07684C28.4288 5.22358 28.4225 5.30172 28.4499 5.33736C28.4778 5.37369 28.5593 5.39179 28.7086 5.41662L29.0347 5.47091L28.9981 5.69145L28.9196 5.67854Z" fill="white"/>
<path d="M29.7637 3.86038L30.0412 3.9374L29.9423 4.29752C29.8378 4.67897 29.8689 5.03208 29.9992 5.31617C30.1343 5.60994 30.3768 5.83076 30.6853 5.93191C30.9702 6.02534 31.237 6.01061 31.4539 5.90399C31.6701 5.79737 31.8393 5.59801 31.9298 5.32192C32.0193 5.04892 31.9733 4.79205 31.8551 4.54584C31.7327 4.29079 31.5321 4.0436 31.3219 3.80047C31.081 3.52214 30.8357 3.2351 30.682 2.91299C30.5243 2.58261 30.4636 2.21954 30.6011 1.79979C30.7175 1.44429 30.959 1.19527 31.2794 1.07041C31.5943 0.947801 31.9848 0.946819 32.4058 1.08487C32.62 1.15487 32.7903 1.25251 32.9281 1.36208C33.0647 1.47109 33.1694 1.5923 33.2533 1.71042L33.2617 1.72249C33.2884 1.61611 33.3173 1.5096 33.3461 1.40314L33.3462 1.40265L33.3463 1.40221C33.3596 1.35313 33.3729 1.30407 33.386 1.25504L33.6063 1.32715L33.1127 3.10982L32.8351 3.03294L32.9362 2.66566C33.0121 2.38761 33.0073 2.08654 32.8881 1.83753C32.7878 1.62751 32.604 1.45285 32.3163 1.35871C32.0591 1.2744 31.8389 1.2751 31.6648 1.35787C31.4919 1.4405 31.3601 1.60703 31.2787 1.85534L31.2771 1.85997C31.1949 2.11586 31.2445 2.35029 31.3636 2.5777C31.4883 2.81605 31.6911 3.05104 31.9013 3.2936C32.1484 3.57895 32.4006 3.88549 32.5567 4.23257C32.7162 4.5868 32.7752 4.98018 32.628 5.42967C32.4996 5.82108 32.2304 6.0945 31.8716 6.23016C31.5189 6.36344 31.0803 6.36218 30.6067 6.20702C30.3883 6.13533 30.2087 6.04063 30.0482 5.9169C29.8887 5.794 29.7495 5.64375 29.6109 5.46067L29.6104 5.45969C29.5986 5.44384 29.5854 5.41985 29.5723 5.39179C29.5394 5.51682 29.5047 5.64167 29.4701 5.76654L29.4697 5.7677L29.4694 5.76887C29.4515 5.83321 29.4337 5.89755 29.416 5.96193L29.2 5.90399L29.7637 3.86038Z" fill="white"/>
<path d="M38.0173 7.46164L38.4947 4.85027C38.4993 4.82137 38.5052 4.79429 38.5121 4.76904L38.4425 4.81828L34.7669 7.28543L34.5061 7.11905L38.8472 4.18837L39.4249 4.55692L39.3359 4.69637C39.2997 4.75305 39.2633 4.82249 39.2343 4.88885C39.2062 4.95254 39.1852 5.01258 39.178 5.05327L38.3743 9.45741L38.3739 9.45947C38.3437 9.63455 38.3241 9.74814 38.3347 9.82399C38.3434 9.88614 38.3785 9.92949 38.4562 9.97915L38.5716 10.0528L38.4516 10.2412L37.163 9.41869L37.2833 9.23056L37.6665 9.47523L37.6671 9.43861C37.6702 9.35977 37.6842 9.27503 37.6963 9.20727L37.9611 7.75877L36.6541 6.9246C36.6701 6.99419 36.6769 7.06658 36.6752 7.13897C36.671 7.31237 36.618 7.48857 36.5251 7.63419C36.34 7.91074 36.1193 8.19202 35.9027 8.46815C35.7983 8.60119 35.6949 8.73303 35.5968 8.86258L35.4164 8.72018L35.6299 8.43062C35.6017 8.41968 35.5706 8.40228 35.5313 8.37731L32.5082 6.44804L32.6284 6.25963L32.9069 6.43723C33.0298 6.5158 33.1027 6.54554 33.1542 6.528C33.2101 6.50934 33.2663 6.43331 33.3491 6.30354L35.6215 2.74296C35.7019 2.61684 35.7398 2.54753 35.7297 2.50517C35.7194 2.46224 35.6532 2.41468 35.5261 2.33373L35.2477 2.15585L35.3676 1.96758L37.0432 3.03687L36.923 3.22514L36.6444 3.04739C36.5169 2.96602 36.444 2.92492 36.3986 2.93319C36.3547 2.94147 36.307 3.00362 36.227 3.12904L33.9623 6.67769C33.9167 6.74896 33.86 6.80465 33.7989 6.84688C33.7768 6.86189 33.7541 6.87508 33.7313 6.88701L34.8276 7.58664C35.1067 7.76481 35.352 7.88377 35.5738 7.89289C35.7862 7.90145 35.9845 7.80549 36.182 7.55717L36.3269 7.37438L36.3477 7.34337C36.4282 7.21753 36.4557 7.08832 36.4306 6.96781C36.4055 6.84773 36.328 6.73283 36.199 6.63406L36.0336 6.52856L36.2681 6.3452L38.0173 7.46164Z" fill="white"/>
<path d="M39.5901 11.8358L38.3474 10.388L38.517 10.2423L38.7323 10.4933C38.83 10.6071 38.8866 10.6646 38.9318 10.668C38.9773 10.6715 39.0422 10.6231 39.1561 10.5254L42.2578 7.86301C42.2909 7.83453 42.3099 7.79763 42.3123 7.75919C42.3145 7.72244 42.3016 7.68273 42.2716 7.64696C42.1903 7.56054 42.1022 7.47573 42.0149 7.39165C41.9762 7.3544 41.9377 7.31729 41.8999 7.28024L42.024 7.13181L42.5313 7.5228C42.6425 7.60964 42.7675 7.66885 42.8886 7.67881C42.9889 7.68694 43.0878 7.66071 43.1739 7.58677L43.256 7.51677L43.397 7.68077L42.6237 8.34434L42.428 8.50919C42.741 8.38517 43.0632 8.35725 43.358 8.41968C43.6548 8.48239 43.9243 8.63643 44.1294 8.87534C44.3905 9.17949 44.5109 9.49206 44.5042 9.78569C44.4973 10.0931 44.3517 10.3769 44.0836 10.6071L41.2866 13.008C41.1728 13.1057 41.1153 13.1623 41.1119 13.2075C41.1084 13.253 41.1568 13.3178 41.2546 13.4316L41.4744 13.6877L41.305 13.8336L40.0101 12.3251L40.1798 12.1795L40.5979 12.6668C40.6164 12.6406 40.6428 12.6137 40.6829 12.5794L43.5235 10.1412C43.7796 9.92149 43.9444 9.71877 44.0047 9.52952C44.061 9.35276 44.0228 9.18258 43.8787 9.01451C43.6546 8.75343 43.3282 8.63278 42.9639 8.65972C42.6014 8.68623 42.2006 8.85879 41.8222 9.18356L39.6237 11.0706C39.5104 11.1678 39.4541 11.2252 39.4515 11.2717C39.4486 11.3189 39.4982 11.3856 39.5965 11.4999L39.8117 11.7507L39.642 11.8961L39.5901 11.8358Z" fill="white"/>
<path fill-rule="evenodd" clip-rule="evenodd" d="M42.3412 15.6944L41.389 13.821L41.5885 13.7197L41.738 14.0143C41.8062 14.1482 41.8478 14.2177 41.8908 14.2316C41.934 14.2458 42.0085 14.2142 42.1425 14.1461L45.8887 12.2422C46.0269 12.1718 46.1116 12.1215 46.1388 12.065C46.1634 12.0138 46.1435 11.9379 46.0778 11.8085L45.9282 11.5141L46.1276 11.4129L47.08 13.2869C47.4703 14.0552 47.5602 14.8169 47.3756 15.4771C47.1904 16.1403 46.7296 16.6995 46.02 17.06C45.309 17.4213 44.5843 17.4646 43.9384 17.224C43.2949 16.9846 42.7317 16.4631 42.3412 15.6944ZM42.2763 14.846L42.2344 14.8486L42.5106 15.392C42.851 16.0616 43.2958 16.4816 43.8254 16.6456C44.356 16.81 44.9772 16.7197 45.669 16.368L45.6754 16.3648C46.3608 16.015 46.7962 15.5689 46.9745 15.0457C47.1531 14.5215 47.0755 13.9143 46.7351 13.2446L46.4592 12.7018L46.4323 12.734C46.3873 12.7831 46.3281 12.8248 46.2461 12.8665L42.4931 14.7737C42.4109 14.8152 42.3423 14.8384 42.2763 14.846Z" fill="white"/>
<path d="M45.5652 18.0979L45.6439 18.3753L45.2843 18.4785C44.9047 18.5874 44.6193 18.7977 44.4448 19.0568C44.264 19.3253 44.2015 19.647 44.2756 19.9632C44.3442 20.255 44.4953 20.4751 44.6989 20.6048C44.9023 20.734 45.1607 20.7747 45.4442 20.7083C45.7238 20.6425 45.919 20.4699 46.0678 20.2409C46.222 20.0035 46.3286 19.7037 46.427 19.3977C46.5391 19.0477 46.6568 18.689 46.8519 18.3897C47.0521 18.083 47.331 17.8417 47.7607 17.7411C48.1248 17.6557 48.4629 17.7322 48.736 17.9408C49.005 18.1462 49.2089 18.4791 49.3102 18.9106C49.3614 19.1295 49.3668 19.3255 49.3449 19.5004C49.323 19.6745 49.2739 19.8269 49.2168 19.9594L49.2106 19.9733C49.3206 19.9389 49.4319 19.9067 49.543 19.8745C49.5871 19.8617 49.631 19.849 49.6748 19.8361L49.7279 20.0618L47.9484 20.5679L47.8697 20.2904L48.236 20.1857C48.5128 20.1062 48.7675 19.9457 48.9183 19.7139C49.0451 19.5189 49.0987 19.2713 49.0295 18.9764C48.9674 18.712 48.8518 18.5237 48.6894 18.4185C48.5295 18.3148 48.3192 18.2894 48.0653 18.3489C47.8015 18.4108 47.6258 18.5756 47.4929 18.7968C47.3539 19.0283 47.2589 19.3232 47.1614 19.6283C47.0461 19.988 46.9156 20.363 46.7005 20.677C46.4809 20.9977 46.1756 21.2529 45.7151 21.3608C45.3143 21.4548 44.9407 21.367 44.6381 21.1311C44.3404 20.8992 44.1133 20.524 43.9997 20.0388C43.9472 19.8152 43.9347 19.6125 43.9567 19.4115C43.9786 19.2111 44.0345 19.014 44.1189 18.8003L44.1195 18.7994C44.1271 18.7808 44.1407 18.7571 44.1579 18.7316C44.0265 18.7707 43.8943 18.8082 43.7623 18.8456L43.7607 18.8461C43.7038 18.8622 43.6467 18.8784 43.5899 18.8946L43.5266 18.6798L45.5652 18.0979Z" fill="white"/>
<path d="M3.47478 25.02C3.47478 24.5399 3.08562 24.1507 2.60568 24.1507C2.12561 24.1507 1.73658 24.5399 1.73658 25.02C1.73658 25.4998 2.12561 25.8889 2.60568 25.8889C3.08562 25.8889 3.47478 25.4998 3.47478 25.02Z" fill="white"/>
<path d="M47.4818 24.1507C47.9618 24.1507 48.3509 24.5399 48.3509 25.02C48.3509 25.4998 47.9618 25.8889 47.4818 25.8889C47.0018 25.8889 46.6127 25.4998 46.6127 25.02C46.6127 24.5399 47.0018 24.1507 47.4818 24.1507Z" fill="white"/>
</svg>
