<svg width="140" height="23" viewBox="0 0 140 23" fill="none" xmlns="http://www.w3.org/2000/svg">
<rect width="139.228" height="22.6948" transform="translate(0 0.25)" fill="#408759"/>
<path d="M8 6.41748H9.40137L15.1982 15V6.41748H16.2339V16.7637H15.1982L9.03564 7.66504V16.7637H8V6.41748Z" fill="white"/>
<path d="M18.3633 6.41748H24.02V7.354H19.3989V11.0796H23.8662V12.0161H19.3989V15.8271H24.02V16.7637H18.3633V6.41748Z" fill="white"/>
<path d="M24.9463 6.41748H26.0229L28.5591 15.4341L31.0371 6.41748H32.0146L34.4927 15.4204L37.0288 6.41748H38.1055L35.1523 16.7637H33.7954L31.5259 8.28027L29.2427 16.7637H27.8857L24.9463 6.41748Z" fill="white"/>
<path d="M54.8364 9.07666C54.5835 8.69385 54.2622 8.36458 53.8726 8.08887C53.4852 7.81087 53.0625 7.60124 52.6045 7.45996C52.1488 7.31641 51.6885 7.24463 51.2236 7.24463C50.4603 7.24463 49.7448 7.44515 49.0771 7.84619C48.4118 8.24495 47.882 8.77816 47.4878 9.4458C47.0936 10.1112 46.8965 10.8141 46.8965 11.5547C46.8965 12.3408 47.097 13.0723 47.498 13.749C47.9014 14.4235 48.4425 14.959 49.1216 15.3555C49.8006 15.752 50.5241 15.9502 51.292 15.9502C51.987 15.9502 52.6558 15.7782 53.2983 15.4341C53.9409 15.09 54.4673 14.632 54.8774 14.0601H56.0259C55.7274 14.632 55.3309 15.1356 54.8364 15.5708C54.3442 16.006 53.7917 16.3444 53.1787 16.5859C52.5658 16.8252 51.9368 16.9448 51.292 16.9448C50.5469 16.9448 49.8439 16.8092 49.1831 16.5381C48.5223 16.2669 47.9412 15.8864 47.4399 15.3965C46.9409 14.9043 46.5524 14.3278 46.2744 13.667C45.9987 13.0039 45.8608 12.2998 45.8608 11.5547C45.8608 10.5954 46.1012 9.70898 46.582 8.89551C47.0628 8.08203 47.7134 7.43831 48.5337 6.96436C49.354 6.48812 50.2461 6.25 51.21 6.25C52.3288 6.25 53.3223 6.53939 54.1904 7.11816C54.5573 7.34831 54.915 7.64453 55.2637 8.00684C55.6146 8.36914 55.855 8.72575 55.9849 9.07666H54.8364Z" fill="white"/>
<path d="M68.1836 11.5684C68.1836 12.5436 67.9364 13.4448 67.4419 14.272C66.9497 15.0991 66.2821 15.752 65.439 16.2305C64.5981 16.7067 63.689 16.9448 62.7114 16.9448C61.7567 16.9448 60.8589 16.7078 60.0181 16.2339C59.1772 15.7599 58.505 15.1162 58.0015 14.3027C57.5002 13.487 57.2495 12.5994 57.2495 11.6401C57.2495 10.6603 57.4945 9.75911 57.9844 8.93652C58.4766 8.11165 59.1431 7.45996 59.9839 6.98145C60.8247 6.50293 61.7339 6.26367 62.7114 6.26367C63.673 6.26367 64.5742 6.50065 65.415 6.97461C66.2581 7.44629 66.9303 8.08887 67.4316 8.90234C67.9329 9.71582 68.1836 10.6045 68.1836 11.5684ZM62.7251 7.24463C61.9299 7.24691 61.1904 7.44629 60.5068 7.84277C59.8232 8.23698 59.2821 8.77132 58.8833 9.4458C58.4845 10.1203 58.2852 10.8517 58.2852 11.6401C58.2852 12.4217 58.4891 13.1418 58.897 13.8003C59.3071 14.4588 59.8551 14.9818 60.541 15.3691C61.2269 15.7565 61.9549 15.9502 62.7251 15.9502C63.3198 15.9502 63.8872 15.8374 64.4272 15.6118C64.9696 15.3862 65.4447 15.0729 65.8525 14.6719C66.2604 14.2686 66.5783 13.8003 66.8062 13.2671C67.034 12.7339 67.1479 12.1676 67.1479 11.5684C67.1479 10.7891 66.9451 10.069 66.5396 9.4082C66.1362 8.7474 65.5928 8.22445 64.9092 7.83936C64.2279 7.45199 63.4998 7.2583 62.7251 7.2583V7.24463Z" fill="white"/>
<path d="M69.8652 6.41748H70.9009V15.8271H75.187V16.7637H69.8652V6.41748Z" fill="white"/>
<path d="M76.332 6.41748H77.3677V15.8271H81.6538V16.7637H76.332V6.41748Z" fill="white"/>
<path d="M82.7988 6.41748H88.4556V7.354H83.8345V11.0796H88.3018V12.0161H83.8345V15.8271H88.4556V16.7637H82.7988V6.41748Z" fill="white"/>
<path d="M98.8325 9.07666C98.5796 8.69385 98.2583 8.36458 97.8687 8.08887C97.4813 7.81087 97.0586 7.60124 96.6006 7.45996C96.1449 7.31641 95.6846 7.24463 95.2197 7.24463C94.4564 7.24463 93.7409 7.44515 93.0732 7.84619C92.4079 8.24495 91.8781 8.77816 91.4839 9.4458C91.0897 10.1112 90.8926 10.8141 90.8926 11.5547C90.8926 12.3408 91.0931 13.0723 91.4941 13.749C91.8975 14.4235 92.4386 14.959 93.1177 15.3555C93.7967 15.752 94.5202 15.9502 95.2881 15.9502C95.9831 15.9502 96.6519 15.7782 97.2944 15.4341C97.937 15.09 98.4634 14.632 98.8735 14.0601H100.022C99.7235 14.632 99.327 15.1356 98.8325 15.5708C98.3403 16.006 97.7878 16.3444 97.1748 16.5859C96.5619 16.8252 95.9329 16.9448 95.2881 16.9448C94.543 16.9448 93.84 16.8092 93.1792 16.5381C92.5184 16.2669 91.9373 15.8864 91.436 15.3965C90.937 14.9043 90.5485 14.3278 90.2705 13.667C89.9948 13.0039 89.8569 12.2998 89.8569 11.5547C89.8569 10.5954 90.0973 9.70898 90.5781 8.89551C91.0589 8.08203 91.7095 7.43831 92.5298 6.96436C93.3501 6.48812 94.2422 6.25 95.2061 6.25C96.3249 6.25 97.3184 6.53939 98.1865 7.11816C98.5534 7.34831 98.9111 7.64453 99.2598 8.00684C99.6107 8.36914 99.8511 8.72575 99.981 9.07666H98.8325Z" fill="white"/>
<path d="M103.108 7.354H100.729V6.41748H106.496V7.354H104.144V16.7637H103.108V7.354Z" fill="white"/>
<path d="M107.654 6.41748H108.69V16.7637H107.654V6.41748Z" fill="white"/>
<path d="M121.312 11.5684C121.312 12.5436 121.065 13.4448 120.571 14.272C120.079 15.0991 119.411 15.752 118.568 16.2305C117.727 16.7067 116.818 16.9448 115.84 16.9448C114.886 16.9448 113.988 16.7078 113.147 16.2339C112.306 15.7599 111.634 15.1162 111.13 14.3027C110.629 13.487 110.378 12.5994 110.378 11.6401C110.378 10.6603 110.623 9.75911 111.113 8.93652C111.605 8.11165 112.272 7.45996 113.113 6.98145C113.954 6.50293 114.863 6.26367 115.84 6.26367C116.802 6.26367 117.703 6.50065 118.544 6.97461C119.387 7.44629 120.059 8.08887 120.561 8.90234C121.062 9.71582 121.312 10.6045 121.312 11.5684ZM115.854 7.24463C115.059 7.24691 114.319 7.44629 113.636 7.84277C112.952 8.23698 112.411 8.77132 112.012 9.4458C111.613 10.1203 111.414 10.8517 111.414 11.6401C111.414 12.4217 111.618 13.1418 112.026 13.8003C112.436 14.4588 112.984 14.9818 113.67 15.3691C114.356 15.7565 115.084 15.9502 115.854 15.9502C116.449 15.9502 117.016 15.8374 117.556 15.6118C118.098 15.3862 118.574 15.0729 118.981 14.6719C119.389 14.2686 119.707 13.8003 119.935 13.2671C120.163 12.7339 120.277 12.1676 120.277 11.5684C120.277 10.7891 120.074 10.069 119.668 9.4082C119.265 8.7474 118.722 8.22445 118.038 7.83936C117.357 7.45199 116.629 7.2583 115.854 7.2583V7.24463Z" fill="white"/>
<path d="M122.994 6.41748H124.396L130.192 15V6.41748H131.228V16.7637H130.192L124.03 7.66504V16.7637H122.994V6.41748Z" fill="white"/>
</svg>
