<svg width="99" height="200" viewBox="0 0 99 200" fill="none" xmlns="http://www.w3.org/2000/svg">
<path d="M189.187 126.914L179.996 124.41L180.232 123.548L182.06 124.047C183.274 124.377 184.023 124.247 184.505 123.866C184.995 123.479 185.25 122.808 185.446 122.088L185.664 121.287L177.751 119.13C177.425 119.043 177.144 118.892 176.91 118.708C176.826 118.642 176.748 118.572 176.677 118.498L175.339 123.406C174.998 124.656 174.995 125.639 175.376 126.404C175.755 127.164 176.531 127.735 177.751 128.164L180.198 129.033L179.91 130.088L171.913 127.359L172.213 126.515L173.271 126.878L173.274 126.834C173.284 126.624 173.332 126.389 173.398 126.147L176.899 113.303L177.761 113.537L177.413 114.814C177.256 115.392 177.192 115.709 177.282 115.868C177.373 116.027 177.678 116.133 178.257 116.291L194.724 120.778C195.303 120.936 195.62 120.999 195.778 120.909C195.937 120.819 196.043 120.513 196.201 119.934L196.548 118.66L197.41 118.895L194.317 130.244C194.251 130.485 194.173 130.712 194.077 130.897L194.056 130.937L195.153 131.162L194.982 132.039L186.699 130.363L187.004 129.247L189.264 129.726C190.693 130.031 191.728 129.92 192.477 129.428C193.229 128.933 193.725 128.039 194.066 126.785L194.967 123.483C194.868 123.51 194.765 123.53 194.659 123.544C194.363 123.585 194.045 123.571 193.72 123.483L186.775 121.589L186.557 122.391C186.361 123.11 186.234 123.817 186.453 124.399C186.669 124.97 187.24 125.459 188.453 125.789L189.729 126.136L189.493 126.998L189.187 126.914Z" fill="white"/>
<path d="M167.333 139.781L172.925 128.719L173.724 129.123L173.127 130.302C172.864 130.823 172.775 131.125 172.865 131.323C172.962 131.537 173.287 131.731 173.836 132.008L188.914 139.631C189.449 139.901 189.74 140.024 189.903 139.967C190.07 139.909 190.233 139.627 190.505 139.088L191.101 137.907L191.9 138.313L188.312 145.407L187.514 145.005L188.11 143.825C188.384 143.283 188.518 142.977 188.467 142.8C188.417 142.63 188.15 142.464 187.619 142.196L172.591 134.599C172.289 134.446 172.045 134.242 171.852 134.015C171.784 133.935 171.721 133.851 171.666 133.765L170.199 136.665C169.601 137.848 169.219 138.885 169.269 139.777C169.316 140.629 169.776 141.378 170.852 142.039L173.558 143.692L173.013 144.77L165.428 140.24L165.924 139.461L167.161 140.195C167.193 140.078 167.248 139.947 167.333 139.781Z" fill="white"/>
<path fill-rule="evenodd" clip-rule="evenodd" d="M163.172 164.116L173.058 151.559L173.037 151.544C170.443 149.502 167.988 148.508 165.819 148.477C163.608 148.444 161.683 149.416 160.204 151.294C159.057 152.751 158.342 154.294 158.051 155.834C157.755 157.4 157.894 158.97 158.46 160.448L158.587 160.778L157.46 161.072L157.36 160.803C156.737 159.132 156.591 157.358 156.937 155.585C157.273 153.86 158.074 152.136 159.351 150.513C161.29 148.05 163.865 146.591 166.605 146.277C169.25 145.973 172.043 146.734 174.562 148.685L174.65 148.753C177.187 150.751 178.63 153.278 178.934 155.951C179.233 158.591 178.42 161.365 176.451 163.905L176.383 163.994C174.75 166.068 172.508 167.389 170.138 167.737C167.876 168.069 165.499 167.514 163.428 165.884L163.297 165.781C163.055 165.582 162.919 165.298 162.894 165.001C162.869 164.705 162.956 164.391 163.158 164.135L163.172 164.116ZM177.268 157.604C176.973 155.809 175.861 154.023 173.944 152.305L165.447 163.413C167.301 164.859 169.236 165.559 171.002 165.519C172.759 165.48 174.358 164.702 175.547 163.191C177.003 161.34 177.573 159.457 177.268 157.604Z" fill="white"/>
<path d="M165.679 174.853L166.011 175.324L160.846 178.959L160.331 178.227L161.795 177.198C161.473 177.071 161.143 176.867 160.891 176.689L146.298 167.421C146.255 167.391 146.13 167.306 145.984 167.19C146.033 167.334 146.079 167.5 146.119 167.691L149.763 184.03C149.794 184.169 149.83 184.295 149.874 184.407C149.913 184.505 149.956 184.59 150.005 184.662L150.017 184.679C150.128 184.837 150.271 184.929 150.446 184.936C150.656 184.943 150.925 184.845 151.254 184.617C151.799 184.228 152.348 183.843 152.897 183.458L153.556 182.996L154.072 183.728L148.437 187.694L147.923 186.963L148.464 186.581C148.75 186.379 148.873 186.179 148.893 185.911C148.918 185.587 148.819 185.136 148.674 184.502L144.039 164.632L145.573 163.373L162.833 174.537C163.396 174.901 163.786 175.146 164.096 175.226C164.352 175.293 164.582 175.235 164.884 175.023L165.497 174.592L165.679 174.853Z" fill="white"/>
<path fill-rule="evenodd" clip-rule="evenodd" d="M122.825 187.341L137.718 181.485L137.708 181.46C136.48 178.337 134.827 176.222 132.932 175.114C131.065 174.021 128.946 173.907 126.757 174.766L126.725 174.779C125.016 175.457 123.63 176.423 122.606 177.599C121.559 178.803 120.887 180.227 120.63 181.786L120.572 182.137L119.452 181.821L119.5 181.539C119.807 179.782 120.577 178.176 121.77 176.821C122.931 175.501 124.493 174.417 126.416 173.661C129.299 172.528 132.221 172.555 134.726 173.629C137.23 174.702 139.312 176.821 140.51 179.867C141.691 182.872 141.661 185.781 140.574 188.241C139.488 190.699 137.347 192.702 134.309 193.897C131.854 194.863 129.252 194.87 127.032 193.976C124.911 193.119 123.139 191.441 122.174 188.986L122.121 188.853C122.004 188.554 122.027 188.232 122.159 187.957C122.288 187.688 122.522 187.461 122.825 187.341ZM138.3 188.829C138.951 187.129 138.893 185.026 138.107 182.575L125.164 187.874C126.034 190.058 127.35 191.639 128.895 192.497C130.432 193.349 132.207 193.485 133.996 192.781C136.186 191.92 137.628 190.583 138.3 188.829Z" fill="white"/>
<path d="M109.155 178.176L116.721 177.162L116.84 178.048L115.53 178.224C114.934 178.305 114.617 178.369 114.507 178.513C114.397 178.658 114.417 178.981 114.497 179.575L116.67 195.791C116.695 195.957 116.774 196.097 116.891 196.186C117.01 196.277 117.172 196.322 117.359 196.299C117.832 196.214 118.314 196.103 118.791 195.992L118.793 195.992L118.795 195.991L118.798 195.991C119.001 195.944 119.203 195.897 119.404 195.852L119.631 196.591L117.214 197.442C116.679 197.625 116.208 197.916 115.912 198.298C115.665 198.616 115.538 199.006 115.598 199.457L115.656 199.886L114.798 200L114.257 195.961L114.131 194.945C113.864 196.265 113.256 197.407 112.404 198.26C111.546 199.118 110.443 199.686 109.195 199.854L109.166 199.857C107.559 200.067 106.241 199.776 105.272 199.091C104.287 198.396 103.67 197.305 103.486 195.929L101.528 181.314C101.448 180.719 101.383 180.403 101.239 180.291C101.094 180.182 100.771 180.202 100.176 180.281L98.8378 180.462L98.7188 179.575L106.599 178.519L106.718 179.405L104.173 179.747C104.22 179.865 104.251 180.011 104.28 180.222L106.269 195.063C106.448 196.4 106.769 197.394 107.274 198.01C107.744 198.584 108.397 198.827 109.273 198.709C110.62 198.529 111.724 197.718 112.428 196.469C113.15 195.189 113.457 193.448 113.189 191.445L111.649 179.958C111.57 179.366 111.5 179.052 111.351 178.941C111.198 178.828 110.867 178.849 110.269 178.929L108.959 179.105L108.841 178.219L109.155 178.176Z" fill="white"/>
<path d="M90.7986 178.539L90.6515 179.422L89.3474 179.204C88.752 179.106 88.4276 179.069 88.2829 179.17C88.1398 179.268 88.0663 179.574 87.968 180.164L85.1566 197.058C85.0584 197.647 85.0281 197.962 85.1314 198.101C85.2369 198.243 85.5545 198.314 86.1488 198.412L87.454 198.63L87.3076 199.512L79.4636 198.207L79.6208 197.268L80.9243 197.485C81.522 197.585 81.8542 197.621 82.0079 197.519C82.1567 197.421 82.2341 197.116 82.3317 196.529L85.1342 179.693C85.2318 179.106 85.2571 178.794 85.1477 178.651C85.036 178.505 84.7099 178.433 84.1123 178.334L82.8082 178.116L82.9546 177.235L90.7986 178.539Z" fill="white"/>
<path d="M82.0618 176.981L79.8929 184.845L78.783 184.538L79.1786 183.097C79.5961 181.572 79.4715 180.158 78.9496 179.023C78.4115 177.851 77.4468 176.971 76.219 176.564L76.2055 176.56C75.0652 176.187 73.9985 176.245 73.1309 176.672C72.2707 177.096 71.5961 177.887 71.2331 178.984L71.228 179.001C70.87 180.093 71.0541 181.12 71.5266 182.104C72.0159 183.124 72.8189 184.113 73.6595 185.085C74.6231 186.199 75.6045 187.346 76.2196 188.635C76.8503 189.956 77.0933 191.409 76.5434 193.088C76.0781 194.51 75.1129 195.507 73.8307 196.006C72.5714 196.496 71.0092 196.5 69.3251 195.949C68.4682 195.668 67.787 195.278 67.2359 194.839C66.6899 194.405 66.2713 193.92 65.9363 193.448L65.9015 193.397C65.7962 193.819 65.6814 194.243 65.5669 194.665C65.5123 194.866 65.4577 195.067 65.4043 195.268L64.5233 194.979L66.4974 187.848L67.608 188.157L67.2028 189.626C66.8998 190.737 66.9183 191.942 67.3959 192.939C67.7971 193.777 68.5316 194.476 69.6832 194.852C70.7151 195.191 71.6001 195.189 72.2965 194.852C72.985 194.521 73.5091 193.856 73.8335 192.865C74.1708 191.836 73.9732 190.892 73.494 189.976C72.9946 189.023 72.1826 188.083 71.3425 187.114C70.3543 185.972 69.3453 184.746 68.7202 183.358C68.0883 181.954 67.8504 180.398 68.4188 178.621L68.4351 178.57C68.9486 177.004 70.0255 175.909 71.4603 175.367C72.8705 174.834 74.6247 174.839 76.5192 175.46C77.3929 175.746 78.1118 176.125 78.7538 176.619C79.3918 177.11 79.949 177.711 80.5035 178.444L80.5057 178.448C80.5523 178.512 80.605 178.607 80.6572 178.719C80.8002 178.178 80.9507 177.637 81.101 177.097C81.1617 176.878 81.2227 176.659 81.2829 176.441L82.1471 176.67L82.0618 176.981Z" fill="white"/>
<path d="M47.0498 170.441L45.1402 180.886C45.1216 181.002 45.0981 181.111 45.0706 181.211L45.3495 181.013L60.0519 171.144L61.0951 171.811C58.8851 173.303 56.6745 174.795 54.4639 176.286L54.3811 176.342L54.3775 176.345C50.8278 178.74 47.2781 181.135 43.7305 183.534L41.4196 182.059L41.776 181.501C41.9202 181.275 42.0655 180.996 42.1823 180.731C42.2939 180.477 42.3781 180.236 42.4073 180.074L45.6216 162.457C45.744 161.751 45.8225 161.295 45.7804 160.99C45.7451 160.742 45.6048 160.569 45.2945 160.37L44.8332 160.076L45.313 159.322L50.4673 162.612L49.9864 163.365L48.4533 162.386L48.4505 162.532C48.4381 162.848 48.3826 163.186 48.3337 163.458L47.2743 169.252L52.5026 172.589C52.4386 172.311 52.4117 172.02 52.4184 171.731C52.4347 171.038 52.6468 170.332 53.0183 169.751C53.763 168.637 54.6547 167.501 55.5285 166.387L55.5297 166.386C55.94 165.863 56.3467 165.345 56.7321 164.836L57.4537 165.405L56.5991 166.564C56.7119 166.608 56.8359 166.678 56.9941 166.777L69.0866 174.495L68.6057 175.248L67.4918 174.538C67.0002 174.224 66.7084 174.105 66.5019 174.175C66.2786 174.249 66.0541 174.554 65.7225 175.073L56.6328 189.315C56.3112 189.819 56.1603 190.097 56.2007 190.267C56.2416 190.437 56.5065 190.628 57.0149 190.952L58.1288 191.663L57.649 192.416L50.9465 188.139L51.4274 187.386L52.5413 188.097C53.052 188.423 53.3432 188.587 53.525 188.554C53.7007 188.521 53.8909 188.272 54.2113 187.77L63.2702 173.577C63.452 173.291 63.6787 173.068 63.9239 172.899C64.012 172.839 64.1024 172.786 64.1939 172.739L59.8089 169.94C58.6922 169.227 57.7107 168.752 56.8241 168.715C55.9751 168.681 55.181 169.065 54.3915 170.058L53.8129 170.788L53.7287 170.913C53.4066 171.417 53.2967 171.934 53.3971 172.416C53.497 172.896 53.8068 173.356 54.323 173.751L54.9852 174.173L54.0469 174.906L47.0498 170.441Z" fill="white"/>
<path d="M40.6441 152.944L45.6155 158.735L44.937 159.317L44.0756 158.313C43.6851 157.859 43.4578 157.628 43.2771 157.614C43.0953 157.601 42.8355 157.794 42.3798 158.185L29.9731 168.835C29.8412 168.949 29.7654 169.097 29.7559 169.25C29.7464 169.397 29.798 169.556 29.9186 169.699C30.2496 170.051 30.6085 170.396 30.964 170.739C31.1124 170.882 31.2602 171.024 31.4052 171.166L30.9091 171.759L28.8799 170.196C28.4349 169.848 27.9349 169.611 27.4506 169.572C27.0494 169.538 26.6538 169.643 26.3087 169.94L25.981 170.22L25.4176 169.564L28.5101 166.909L29.2929 166.249C28.0404 166.746 26.752 166.858 25.573 166.608C24.385 166.357 23.3076 165.741 22.4872 164.785C21.4423 163.569 20.9614 162.319 20.9883 161.144C21.0158 159.914 21.5977 158.78 22.6701 157.858L33.8586 148.255C34.3131 147.864 34.5432 147.637 34.5572 147.457C34.5707 147.275 34.3771 147.015 33.9859 146.56L33.1072 145.535L33.785 144.952L38.9646 150.986L38.2856 151.569L36.6133 149.621C36.5403 149.724 36.4343 149.83 36.2727 149.969L24.9108 159.722C23.8861 160.601 23.2268 161.411 22.986 162.169C22.7604 162.875 22.9125 163.556 23.49 164.228C24.3861 165.272 25.6914 165.755 27.1487 165.648C28.5988 165.541 30.2026 164.852 31.716 163.553L40.5094 156.004C40.9629 155.615 41.1879 155.385 41.1991 155.2C41.2098 155.01 41.0117 154.745 40.6189 154.287L39.7581 153.284L40.4371 152.702L40.6441 152.944Z" fill="white"/>
<path fill-rule="evenodd" clip-rule="evenodd" d="M29.468 137.509L33.2766 145.003L32.4787 145.409L31.8799 144.229C31.6072 143.694 31.4411 143.417 31.2688 143.36C31.0971 143.305 30.7991 143.431 30.2638 143.702L15.2768 151.319C14.7241 151.599 14.3862 151.801 14.2774 152.027C14.1792 152.231 14.2583 152.535 14.5209 153.051L15.1202 154.23L14.3223 154.636L10.5125 147.14C8.95081 144.066 8.59111 141.02 9.3296 138.378C10.0709 135.727 11.9137 133.49 14.7527 132.047C17.5966 130.602 20.4956 130.429 23.0792 131.391C25.6532 132.349 27.9057 134.434 29.468 137.509ZM29.7273 140.903L29.8945 140.892L28.7901 138.719C27.4288 136.04 25.6493 134.36 23.5309 133.704C21.408 133.047 18.9238 133.409 16.1567 134.815L16.1157 134.835C13.3829 136.233 11.6466 138.015 10.9345 140.104C10.2196 142.201 10.5299 144.63 11.8919 147.309L12.9951 149.48L13.1034 149.35C13.283 149.156 13.5198 148.988 13.8492 148.821L28.8592 141.192C29.1869 141.025 29.4624 140.933 29.7273 140.903Z" fill="white"/>
<path d="M24.8266 125.627L17.0989 128.242L16.7308 127.151L18.146 126.67C19.6432 126.16 20.7425 125.265 21.3901 124.196C22.0607 123.09 22.2475 121.792 21.8901 120.542C21.5607 119.39 20.9142 118.54 20.0759 118.061C19.238 117.584 18.1971 117.47 17.0776 117.791C15.9738 118.107 15.2274 118.835 14.6769 119.777C14.1068 120.755 13.7386 121.974 13.4048 123.216C13.0248 124.636 12.6247 126.09 11.8997 127.326C11.159 128.59 10.0922 129.607 8.3947 130.093C6.95756 130.504 5.5917 130.264 4.45983 129.483C3.34593 128.715 2.46603 127.423 1.97838 125.719C1.73034 124.853 1.67142 124.07 1.72529 123.368C1.77916 122.669 1.94526 122.051 2.1484 121.509L2.17085 121.454C1.76599 121.602 1.35609 121.743 0.946552 121.883L0.944034 121.884L0.94239 121.885L0.939857 121.886L0.938066 121.886L0.934659 121.888C0.737453 121.955 0.540117 122.023 0.34371 122.092L0.0883789 121.202L7.09954 118.836L7.46765 119.928L6.02435 120.416C4.93457 120.789 3.94861 121.48 3.39025 122.434C2.92 123.237 2.75446 124.237 3.08779 125.403L3.09228 125.418C3.39082 126.45 3.88408 127.173 4.54569 127.562C5.20562 127.949 6.05352 128.011 7.06081 127.722L7.07148 127.719C8.10571 127.42 8.77349 126.728 9.26114 125.822C9.77011 124.873 10.0933 123.675 10.425 122.435C10.8156 120.979 11.2639 119.457 12.0647 118.158C12.8806 116.835 14.0512 115.756 15.8699 115.236L15.9131 115.224C17.4822 114.789 18.9743 115.07 20.2167 115.945C21.4501 116.814 22.4299 118.271 22.9787 120.188L22.9911 120.231C23.2341 121.097 23.3188 121.891 23.2711 122.686C23.2223 123.488 23.0365 124.287 22.7408 125.157L22.7391 125.163C22.7128 125.237 22.6622 125.334 22.5977 125.441C23.214 125.226 23.8337 125.017 24.4527 124.809L24.8362 124.68L25.1302 125.525L24.8266 125.627Z" fill="white"/>
<path d="M17.894 75.5903L17.6584 76.4522L15.8301 75.9539C14.6157 75.6223 13.8666 75.753 13.3846 76.1346C12.8947 76.5212 12.6399 77.1929 12.444 77.9129L12.2257 78.7137L20.1387 80.8697C20.4647 80.9567 20.7459 81.1088 20.9799 81.2928C21.0635 81.3579 21.1415 81.4286 21.2133 81.5027L22.5511 76.5936C22.8918 75.3439 22.8951 74.3602 22.5141 73.5959C22.1353 72.8355 21.3587 72.2654 20.1393 71.835L17.6926 70.968L17.9799 69.9136L25.9765 72.6402L25.6774 73.4859L24.6179 73.1212L24.6162 73.1655C24.605 73.381 24.5579 73.6139 24.4933 73.8529L20.9917 86.6979L20.1292 86.4622L20.4771 85.1856C20.6342 84.6087 20.6976 84.2905 20.6084 84.1323C20.5175 83.974 20.2116 83.8674 19.6331 83.7092L3.16579 79.2216C2.58723 79.0639 2.26961 79.001 2.11193 79.0908C1.95312 79.1812 1.8465 79.487 1.68881 80.0655L1.34145 81.3411L0.479507 81.1059L3.57263 69.757C3.63604 69.5168 3.71461 69.2923 3.81281 69.1027L3.83469 69.0623L2.73706 68.8383L2.90822 67.9613L11.191 69.638L10.8868 70.753L8.6259 70.2738C7.19662 69.9685 6.16184 70.0802 5.41212 70.5724C4.66073 71.0656 4.16466 71.9607 3.82347 73.2149L2.92337 76.5179C3.02214 76.4909 3.12483 76.4702 3.23089 76.4561C3.52718 76.4157 3.84537 76.4286 4.17028 76.5167L11.1147 78.4107L11.3329 77.6099C11.5294 76.8899 11.6562 76.1829 11.4368 75.6015C11.2213 75.0313 10.6494 74.5415 9.43678 74.2109L8.16182 73.8641L8.39694 73.0022L17.894 75.5903Z" fill="white"/>
<path d="M30.6728 60.5062L25.0803 71.5678L24.2818 71.1649L24.8783 69.9848C25.1409 69.4646 25.2301 69.1616 25.1409 68.9641C25.0444 68.7497 24.7183 68.5561 24.169 68.2783L9.09111 60.6549C8.55744 60.3845 8.26563 60.2621 8.10233 60.3188C7.93623 60.3755 7.77349 60.6589 7.50133 61.1976L6.90482 62.3788L6.10629 61.9737L9.69436 54.8783L10.4923 55.2824L9.8958 56.4614C9.62252 57.0018 9.48785 57.3093 9.53947 57.4855C9.58886 57.6561 9.85652 57.8216 10.3874 58.0898L25.4136 65.688C25.7155 65.8412 25.9608 66.0449 26.1527 66.2716C26.2217 66.353 26.2834 66.4366 26.339 66.523L27.8059 63.6218C28.4041 62.4394 28.7862 61.4024 28.7368 60.5096C28.6891 59.6577 28.2301 58.9091 27.1543 58.2475L24.4479 56.5961L24.9933 55.5175L32.5791 60.0483L32.0819 60.8261L30.8457 60.0927C30.8126 60.2088 30.757 60.3401 30.6728 60.5062Z" fill="white"/>
<path fill-rule="evenodd" clip-rule="evenodd" d="M34.8456 35.865L24.9462 48.4412L24.9669 48.4564C27.5612 50.499 30.0163 51.4917 32.1857 51.5231C34.3962 51.5551 36.3215 50.5838 37.8002 48.7061C38.9472 47.2499 39.6615 45.7061 39.9528 44.1652C40.2491 42.599 40.1088 41.0299 39.5431 39.553L39.4169 39.2213L40.5437 38.9284L40.6441 39.1972C41.2665 40.8672 41.4123 42.6422 41.0672 44.4138C40.7328 46.1315 39.9376 47.8481 38.6711 49.4631L38.6526 49.4872C36.7368 51.9216 34.1986 53.3738 31.4949 53.7122C28.8221 54.045 25.9916 53.2891 23.4423 51.316L23.3373 51.2341C20.811 49.2386 19.3733 46.7173 19.0702 44.0501C18.77 41.4099 19.5843 38.6349 21.5528 36.0951L21.6213 36.007C23.2537 33.9335 25.4956 32.6108 27.8648 32.264C30.1274 31.9313 32.5039 32.4851 34.5757 34.1164L34.6885 34.2051C34.941 34.4032 35.0836 34.6939 35.1094 34.998C35.1346 35.2943 35.0482 35.608 34.8456 35.865ZM20.7358 42.3975C21.031 44.1915 22.1432 45.9766 24.0595 47.6954L32.5561 36.5872C30.7026 35.1417 28.7683 34.4408 27.0023 34.4806C25.2447 34.521 23.6454 35.2988 22.4563 36.8095C21.0001 38.6602 20.4311 40.544 20.7358 42.3975Z" fill="white"/>
<path d="M32.5533 25.1496L32.2216 24.6782L37.3855 21.0419L37.9012 21.7737L36.4371 22.8034C36.7592 22.9302 37.0892 23.1345 37.3417 23.3124L51.9347 32.5788C51.9785 32.6075 52.1036 32.6939 52.2484 32.81C52.2007 32.6653 52.1541 32.4986 52.1137 32.3084L48.4678 15.9684C48.437 15.8281 48.3999 15.7025 48.3551 15.588C48.3175 15.4915 48.272 15.4039 48.2204 15.3293L48.2142 15.3197C48.1037 15.1632 47.96 15.0711 47.786 15.065C47.5694 15.0571 47.2939 15.1598 46.9538 15.3994L44.675 17.0038L44.1604 16.2726L49.7939 12.3057L50.3085 13.0364L49.7669 13.4185C49.4802 13.62 49.3578 13.8203 49.3371 14.0874C49.3124 14.4129 49.4117 14.8618 49.5571 15.4982L54.1939 35.3661L52.6614 36.6248L35.4012 25.4644C34.8372 25.1002 34.4489 24.8556 34.1369 24.7748C33.8799 24.7085 33.6492 24.7669 33.3479 24.9785L32.7368 25.4094L32.5533 25.1496Z" fill="white"/>
<path fill-rule="evenodd" clip-rule="evenodd" d="M75.3503 12.6581L60.4576 18.5156L60.4678 18.5397C61.6961 21.6631 63.3493 23.7776 65.2438 24.8864C67.1119 25.979 69.2309 26.0935 71.4199 25.2321L71.4519 25.2198C73.1607 24.543 74.5456 23.5761 75.5697 22.3994C76.6169 21.1968 77.2891 19.772 77.5456 18.2136L77.604 17.8618L78.7251 18.1772L78.6758 18.4589C78.3699 20.2164 77.5989 21.8225 76.4059 23.1788C75.2454 24.4987 73.6837 25.5817 71.7606 26.3382L71.7039 26.36C68.8397 27.4711 65.9391 27.438 63.4514 26.3718C60.9464 25.2972 58.8651 23.1799 57.6664 20.1339L57.644 20.0773C56.4852 17.0908 56.5216 14.2041 57.6013 11.7597C58.6877 9.30126 60.828 7.29736 63.8656 6.10264C66.2623 5.16101 68.7982 5.12902 70.9822 5.9601C73.1741 6.79455 75.0119 8.49544 76.0018 11.0128L76.0546 11.1464C76.1713 11.4443 76.1477 11.7653 76.017 12.0409C75.8896 12.3085 75.6595 12.5336 75.3587 12.6542L75.3503 12.6581ZM59.8752 11.1716C59.2242 12.8703 59.2831 14.9729 60.0688 17.4241L73.0108 12.1245C72.141 9.94154 70.8245 8.35964 69.2802 7.5033C67.7432 6.6509 65.9682 6.51509 64.1787 7.21879C61.989 8.08017 60.5474 9.41798 59.8752 11.1716Z" fill="white"/>
<path d="M81.3413 22.8371L81.2223 21.951L82.5326 21.7753C83.1275 21.6957 83.4445 21.6306 83.5545 21.4858C83.6651 21.3421 83.6443 21.0178 83.5652 20.4241L81.3912 4.20872C81.3671 4.04261 81.2874 3.90288 81.1701 3.81422C81.0517 3.72275 80.8884 3.67842 80.7004 3.7003C80.2274 3.78531 79.7444 3.89736 79.2658 4.00839C79.0621 4.05566 78.8589 4.10281 78.6578 4.14755L78.4305 3.4085L80.8475 2.55889C81.3834 2.37483 81.8536 2.08415 82.1499 1.70143C82.3957 1.38382 82.5231 0.993814 82.4631 0.54264L82.4069 0.115027L83.2633 0L83.8048 4.03869L83.9311 5.05438C84.197 3.73453 84.8059 2.59313 85.6577 1.74017C86.5152 0.881587 87.6184 0.31312 88.8659 0.145894C90.4568 -0.0673477 91.7677 0.210425 92.7379 0.872597C93.7525 1.56451 94.3872 2.67112 94.5746 4.07178L96.5342 18.6861C96.6133 19.2804 96.6784 19.598 96.8232 19.7075C96.9674 19.8186 97.2906 19.7978 97.8855 19.7176L99.2244 19.5386L99.3434 20.4241L91.463 21.4802L91.344 20.5941L93.8894 20.2535C93.8423 20.1351 93.8098 19.9892 93.7823 19.7787L91.7924 4.93711C91.6134 3.60098 91.2929 2.60604 90.7879 1.98932C90.3182 1.41581 89.665 1.17339 88.7879 1.28955C87.4422 1.47024 86.3373 2.28112 85.6336 3.53083C84.9114 4.81196 84.6044 6.55269 84.8727 8.55548L86.4119 20.0425C86.4916 20.6339 86.5607 20.9482 86.7111 21.0582C86.8643 21.1721 87.1948 21.1502 87.7924 21.0705L89.1027 20.8954L89.2211 21.781L81.3413 22.8371Z" fill="white"/>
<path d="M114.678 22.7142L107.149 21.4611L107.296 20.579L108.6 20.7956C109.195 20.8943 109.519 20.9302 109.664 20.8309C109.807 20.7327 109.88 20.4258 109.979 19.8354L112.79 2.94273C112.888 2.35295 112.918 2.03869 112.815 1.8984C112.71 1.75755 112.392 1.68628 111.798 1.58752L110.493 1.37092L110.64 0.48877L118.484 1.79291L118.326 2.7323L117.022 2.51512C116.425 2.41636 116.093 2.37933 115.939 2.4809C115.79 2.57966 115.712 2.88437 115.615 3.46966L112.813 20.3073C112.715 20.8943 112.69 21.2069 112.799 21.3494C112.911 21.4948 113.237 21.5672 113.834 21.6665L115.139 21.8837L114.992 22.7658L114.678 22.7142Z" fill="white"/>
<path d="M118.055 15.4415L119.165 15.7496L118.769 17.1901C118.351 18.7159 118.476 20.1283 118.997 21.2647C119.537 22.4398 120.507 23.323 121.741 23.7276C122.881 24.1014 123.948 24.0424 124.816 23.616C125.68 23.1895 126.357 22.3921 126.719 21.2877C127.077 20.1957 126.893 19.1682 126.421 18.1834C125.931 17.1632 125.128 16.1744 124.288 15.2019C123.324 14.0885 122.343 12.9404 121.728 11.652C121.097 10.3304 120.854 8.87814 121.404 7.19914C121.87 5.77716 122.836 4.78109 124.118 4.28166C125.377 3.7912 126.939 3.78728 128.623 4.33946C129.48 4.61948 130.161 5.01005 130.712 5.44832C131.259 5.88434 131.678 6.36919 132.013 6.84169L132.047 6.88996C132.154 6.46444 132.269 6.03841 132.384 5.61256L132.385 5.61058L132.385 5.60882C132.439 5.41254 132.492 5.21629 132.544 5.02016L133.425 5.30859L131.451 12.4393L130.34 12.1318L130.745 10.6627C131.048 9.55043 131.029 8.34617 130.552 7.35011C130.151 6.51005 129.416 5.81139 128.265 5.43485C127.236 5.09759 126.355 5.10039 125.659 5.43148C124.968 5.76201 124.44 6.42812 124.115 7.42137L124.109 7.43988C123.78 8.46344 123.978 9.40115 124.454 10.3108C124.953 11.2642 125.765 12.2042 126.605 13.1744C127.593 14.3158 128.602 15.542 129.227 16.9303C129.865 18.3472 130.101 19.9207 129.512 21.7187C128.999 23.2843 127.922 24.378 126.486 24.9207C125.075 25.4538 123.321 25.4487 121.427 24.8281C120.553 24.5413 119.835 24.1625 119.193 23.6676C118.555 23.176 117.998 22.575 117.444 21.8427L117.441 21.8388C117.394 21.7753 117.342 21.6794 117.289 21.5672C117.158 22.0673 117.019 22.5667 116.88 23.0661L116.879 23.0708L116.878 23.0755C116.806 23.3328 116.735 23.5902 116.664 23.8477L115.8 23.616L118.055 15.4415Z" fill="white"/>
<path d="M151.069 29.8465L152.979 19.4011C152.997 19.2855 153.021 19.1772 153.048 19.0762L152.77 19.2731L138.067 29.1417L137.024 28.4762L154.389 16.7535L156.7 18.2277L156.343 18.7855C156.199 19.0122 156.053 19.29 155.937 19.5554C155.825 19.8102 155.741 20.0503 155.712 20.2131L152.497 37.8296L152.496 37.8379C152.375 38.5382 152.296 38.9925 152.339 39.296C152.374 39.5446 152.514 39.718 152.825 39.9166L153.286 40.2112L152.806 40.9649L147.652 37.6748L148.133 36.9222L149.666 37.9009L149.668 37.7544C149.681 37.4391 149.737 37.1001 149.785 36.8291L150.845 31.0351L145.616 27.6984C145.68 27.9767 145.708 28.2663 145.701 28.5559C145.684 29.2495 145.472 29.9543 145.101 30.5368C144.36 31.643 143.477 32.7681 142.611 33.8726C142.193 34.4048 141.78 34.9321 141.387 35.4503L140.666 34.8807L141.52 33.7225C141.407 33.6787 141.282 33.6091 141.125 33.5093L129.033 25.7921L129.514 25.0385L130.628 25.7489C131.119 26.0632 131.411 26.1821 131.617 26.112C131.84 26.0374 132.065 25.7332 132.396 25.2141L141.486 10.9719C141.808 10.4674 141.959 10.1901 141.919 10.0207C141.878 9.84895 141.613 9.65872 141.105 9.33493L139.991 8.62338L140.47 7.8703L147.173 12.1475L146.692 12.9006L145.578 12.1896C145.067 11.8641 144.776 11.6997 144.594 11.7328C144.419 11.7659 144.228 12.0145 143.908 12.5162L134.849 26.7108C134.667 26.9958 134.44 27.2186 134.195 27.3875C134.107 27.4476 134.016 27.5003 133.925 27.548L138.31 30.3465C139.427 31.0592 140.408 31.5351 141.295 31.5716C142.145 31.6058 142.938 31.222 143.728 30.2287L144.308 29.4975L144.391 29.3735C144.713 28.8701 144.823 28.3533 144.722 27.8713C144.622 27.3909 144.312 26.9313 143.796 26.5362L143.134 26.1143L144.072 25.3808L151.069 29.8465Z" fill="white"/>
<path d="M157.36 47.343L152.389 41.5518L153.068 40.9693L153.929 41.9733C154.32 42.4284 154.547 42.6584 154.727 42.6719C154.909 42.6859 155.169 42.4923 155.625 42.1018L168.031 31.452C168.164 31.3381 168.239 31.1905 168.249 31.0368C168.258 30.8897 168.206 30.7309 168.086 30.5878C167.761 30.2421 167.409 29.9029 167.06 29.5666C166.905 29.4176 166.751 29.2691 166.6 29.121L167.096 28.5273L169.125 30.0912C169.57 30.4386 170.07 30.6754 170.554 30.7152C170.956 30.7478 171.351 30.6428 171.696 30.3471L172.024 30.0671L172.588 30.7231L169.495 33.3774L168.712 34.0367C169.964 33.5407 171.253 33.429 172.432 33.6787C173.619 33.9296 174.697 34.5457 175.518 35.5014C176.562 36.718 177.044 37.9683 177.017 39.1428C176.989 40.3723 176.407 41.5075 175.334 42.4284L164.146 52.0321C163.691 52.4227 163.461 52.6494 163.448 52.8301C163.434 53.0119 163.627 53.2712 164.018 53.7263L164.898 54.7509L164.22 55.3346L159.04 49.3004L159.719 48.7179L161.392 50.6674C161.466 50.5624 161.571 50.4547 161.732 50.3177L173.094 40.5647C174.118 39.686 174.778 38.8751 175.019 38.1181C175.244 37.411 175.091 36.7303 174.515 36.058C173.618 35.0137 172.313 34.5311 170.856 34.6389C169.406 34.7449 167.802 35.4352 166.289 36.7342L157.495 44.2824C157.042 44.6713 156.816 44.9009 156.806 45.0866C156.795 45.2757 156.993 45.5423 157.386 45.9996L158.247 47.003L157.568 47.5843L157.36 47.343Z" fill="white"/>
<path fill-rule="evenodd" clip-rule="evenodd" d="M168.365 62.7778L164.556 55.284L165.354 54.8789L165.952 56.0573C166.225 56.5927 166.391 56.871 166.563 56.9265C166.736 56.9832 167.034 56.857 167.57 56.5843L182.555 48.9687C183.107 48.687 183.446 48.4861 183.555 48.26C183.654 48.0552 183.574 47.7516 183.311 47.2342L182.713 46.0563L183.51 45.6517L187.32 53.1477C188.881 56.2206 189.241 59.2677 188.503 61.9086C187.762 64.5612 185.918 66.798 183.08 68.2402C180.236 69.6852 177.337 69.8586 174.753 68.8962C172.179 67.9383 169.927 65.8524 168.365 62.7778ZM168.105 59.3839L167.938 59.3945L169.043 61.568C170.404 64.2464 172.183 65.9265 174.302 66.5825C176.424 67.2402 178.909 66.8788 181.676 65.472L181.702 65.459C184.443 64.0601 186.185 62.2756 186.898 60.183C187.612 58.0859 187.302 55.6572 185.94 52.9782L184.837 50.8071L184.729 50.9361C184.549 51.1326 184.312 51.2992 183.985 51.4659L168.972 59.0949C168.644 59.261 168.369 59.3536 168.105 59.3839Z" fill="white"/>
<path d="M181.261 72.3916L181.576 73.5011L180.137 73.9141C178.619 74.3495 177.477 75.1907 176.779 76.2272C176.056 77.3013 175.806 78.588 176.102 79.8529C176.377 81.0201 176.981 81.9005 177.796 82.4191C178.609 82.9359 179.643 83.0986 180.777 82.8332C181.895 82.57 182.676 81.8798 183.271 80.9634C183.888 80.0139 184.315 78.8147 184.708 77.5908C185.156 76.1907 185.627 74.7558 186.408 73.5589C187.208 72.3322 188.324 71.367 190.043 70.9646C191.499 70.6229 192.852 70.9287 193.944 71.7631C195.02 72.5847 195.836 73.9163 196.241 75.6424C196.446 76.5179 196.467 77.3018 196.38 78.0016C196.292 78.698 196.096 79.3074 195.867 79.8377L195.842 79.8933C196.282 79.7558 196.728 79.6267 197.172 79.4979C197.348 79.4468 197.524 79.3959 197.699 79.3445L197.912 80.2473L190.794 82.2715L190.479 81.1615L191.944 80.7429C193.051 80.4247 194.07 79.7827 194.673 78.8557C195.18 78.0757 195.395 77.0852 195.118 75.9057C194.869 74.8479 194.407 74.0948 193.758 73.6739C193.118 73.2592 192.277 73.1576 191.261 73.3956C190.206 73.643 189.503 74.3024 188.972 75.1874C188.416 76.1133 188.036 77.2928 187.646 78.5134C187.184 79.9522 186.662 81.4522 185.802 82.7081C184.923 83.9909 183.702 85.0116 181.861 85.4432C180.257 85.8192 178.763 85.4679 177.553 84.5245C176.362 83.5969 175.453 82.0958 174.999 80.1553C174.789 79.2608 174.739 78.45 174.827 77.6458C174.915 76.8445 175.138 76.056 175.476 75.2014L175.478 75.1975C175.508 75.1234 175.563 75.0285 175.632 74.9264C175.106 75.0828 174.577 75.2327 174.049 75.3824L174.043 75.3842C173.815 75.4487 173.587 75.5135 173.36 75.5785L173.106 74.7193L181.261 72.3916Z" fill="white"/>
<path d="M12.8991 100.08C12.8991 98.1596 11.3425 96.603 9.42273 96.603C7.50243 96.603 5.94633 98.1596 5.94633 100.08C5.94633 101.999 7.50243 103.556 9.42273 103.556C11.3425 103.556 12.8991 101.999 12.8991 100.08Z" fill="white"/>
<path d="M188.927 96.603C190.847 96.603 192.404 98.1596 192.404 100.08C192.404 101.999 190.847 103.556 188.927 103.556C187.007 103.556 185.451 101.999 185.451 100.08C185.451 98.1596 187.007 96.603 188.927 96.603Z" fill="white"/>
</svg>
