<svg width="99" height="200" viewBox="0 0 99 200" fill="none" xmlns="http://www.w3.org/2000/svg">
<path d="M90.1866 126.914L80.9964 124.41L81.2315 123.548L83.0598 124.047C84.2742 124.377 85.0233 124.247 85.5054 123.866C85.9953 123.479 86.25 122.808 86.4458 122.088L86.6642 121.287L78.7512 119.13C78.4252 119.043 78.144 118.892 77.91 118.708C77.8264 118.642 77.7484 118.572 77.6766 118.498L76.3388 123.406C75.9981 124.656 75.9948 125.639 76.3758 126.404C76.7546 127.164 77.5307 127.735 78.7506 128.164L81.1978 129.033L80.91 130.088L72.9134 127.359L73.2125 126.515L74.2714 126.878L74.2737 126.834C74.2843 126.624 74.332 126.389 74.3983 126.147L77.8988 113.303L78.7613 113.537L78.4128 114.814C78.2557 115.392 78.1923 115.709 78.2815 115.868C78.373 116.027 78.6783 116.133 79.2568 116.291L95.7241 120.778C96.3027 120.936 96.6203 120.999 96.778 120.909C96.9368 120.819 97.0434 120.513 97.2011 119.934L97.5484 118.66L98.4104 118.895L95.3172 130.244C95.251 130.485 95.173 130.712 95.0771 130.897L95.0558 130.937L96.1528 131.162L95.9822 132.039L87.6989 130.363L88.0036 129.247L90.264 129.726C91.6927 130.031 92.728 129.92 93.4772 129.428C94.2291 128.933 94.7247 128.039 95.0664 126.785L95.9666 123.483C95.8678 123.51 95.7651 123.53 95.659 123.544C95.3627 123.585 95.0445 123.571 94.7196 123.483L87.7752 121.589L87.5569 122.391C87.3605 123.11 87.2337 123.817 87.4532 124.399C87.6686 124.97 88.2404 125.459 89.4531 125.789L90.7286 126.136L90.493 126.998L90.1866 126.914Z" fill="white"/>
<path d="M68.3327 139.781L73.9252 128.719L74.7237 129.123L74.1272 130.302C73.864 130.823 73.7754 131.125 73.8646 131.323C73.9617 131.537 74.2866 131.731 74.836 132.008L89.9144 139.631C90.4486 139.901 90.7399 140.024 90.9032 139.967C91.0698 139.909 91.2325 139.627 91.5047 139.088L92.1012 137.907L92.8998 138.313L89.3123 145.407L88.5143 145.005L89.1102 143.825C89.3835 143.283 89.5182 142.977 89.4666 142.8C89.4172 142.63 89.1501 142.464 88.6187 142.196L73.5913 134.599C73.2894 134.446 73.0447 134.242 72.8523 134.015C72.7838 133.935 72.7215 133.851 72.666 133.765L71.1991 136.665C70.6014 137.848 70.2193 138.885 70.2692 139.777C70.3164 140.629 70.776 141.378 71.8523 142.039L74.5582 143.692L74.0127 144.77L66.4275 140.24L66.9241 139.461L68.1609 140.195C68.1935 140.078 68.2485 139.947 68.3327 139.781Z" fill="white"/>
<path fill-rule="evenodd" clip-rule="evenodd" d="M64.1722 164.116L74.0582 151.559L74.0374 151.544C71.4432 149.502 68.9881 148.508 66.8187 148.477C64.6082 148.444 62.6829 149.416 61.2042 151.294C60.0572 152.751 59.3423 154.294 59.051 155.834C58.7547 157.4 58.8945 158.97 59.4601 160.448L59.5875 160.778L58.4601 161.072L58.3597 160.803C57.7373 159.132 57.5914 157.358 57.9366 155.585C58.2727 153.86 59.0741 152.136 60.3513 150.513C62.2901 148.05 64.8652 146.591 67.6054 146.277C70.2496 145.973 73.043 146.734 75.5621 148.685L75.6502 148.753C78.1872 150.751 79.63 153.278 79.9336 155.951C80.2332 158.591 79.4195 161.365 77.451 163.905L77.3825 163.994C75.7495 166.068 73.5077 167.389 71.1385 167.737C68.8759 168.069 66.4993 167.514 64.4275 165.884L64.2973 165.781C64.0549 165.582 63.9191 165.298 63.8939 165.001C63.8692 164.705 63.9561 164.391 64.1576 164.135L64.1722 164.116ZM78.268 157.604C77.9734 155.809 76.8606 154.023 74.9443 152.305L66.4472 163.413C68.3012 164.859 70.2356 165.559 72.0015 165.519C73.7585 165.48 75.3578 164.702 76.547 163.191C78.0032 161.34 78.5727 159.457 78.268 157.604Z" fill="white"/>
<path d="M66.6789 174.853L67.0106 175.324L61.8462 178.959L61.331 178.227L62.7951 177.198C62.473 177.071 62.143 176.867 61.8905 176.689L47.298 167.421C47.2548 167.391 47.1297 167.306 46.9844 167.19C47.0326 167.334 47.0792 167.5 47.119 167.691L50.7632 184.03C50.7935 184.169 50.83 184.295 50.8743 184.407C50.9131 184.505 50.9563 184.59 51.0045 184.662L51.0169 184.679C51.128 184.837 51.2711 184.929 51.4456 184.936C51.6561 184.943 51.9248 184.845 52.2542 184.617C52.7992 184.228 53.3484 183.843 53.8972 183.458L54.5561 182.996L55.0718 183.728L49.4372 187.694L48.9226 186.963L49.4636 186.581C49.7504 186.379 49.8732 186.179 49.8934 185.911C49.9181 185.587 49.8194 185.136 49.674 184.502L45.0394 164.632L46.573 163.373L63.8327 174.537C64.3961 174.901 64.7856 175.146 65.0959 175.226C65.3523 175.293 65.5824 175.235 65.8838 175.023L66.4965 174.592L66.6789 174.853Z" fill="white"/>
<path fill-rule="evenodd" clip-rule="evenodd" d="M23.8252 187.341L38.7185 181.485L38.7078 181.46C37.4799 178.337 35.8273 176.222 33.9323 175.114C32.0648 174.021 29.9458 173.907 27.7567 174.766L27.7247 174.779C26.016 175.457 24.6305 176.423 23.6064 177.599C22.5592 178.803 21.887 180.227 21.63 181.786L21.5721 182.137L20.4515 181.821L20.5003 181.539C20.8067 179.782 21.5772 178.176 22.7702 176.821C23.9313 175.501 25.493 174.417 27.4161 173.661C30.2988 172.528 33.2213 172.555 35.7258 173.629C38.2302 174.702 40.3116 176.821 41.5097 179.867C42.6909 182.872 42.6612 185.781 41.5742 188.241C40.4878 190.699 38.347 192.702 35.3094 193.897C32.8543 194.863 30.2522 194.87 28.0322 193.976C25.911 193.119 24.1389 191.441 23.1737 188.986L23.1215 188.853C23.0037 188.554 23.0272 188.232 23.1585 187.957C23.2882 187.688 23.5216 187.461 23.8252 187.341ZM39.2998 188.829C39.9513 187.129 39.893 185.026 39.1068 182.575L26.1641 187.874C27.0339 190.058 28.3504 191.639 29.8953 192.497C31.4323 193.349 33.2067 193.485 34.9963 192.781C37.1865 191.92 38.6275 190.583 39.2998 188.829Z" fill="white"/>
<path d="M10.1553 178.176L17.7209 177.162L17.8398 178.048L16.5295 178.224C15.9342 178.305 15.6171 178.369 15.5071 178.513C15.3965 178.658 15.4173 178.981 15.497 179.575L17.6698 195.791C17.6945 195.957 17.7742 196.097 17.8915 196.186C18.0099 196.277 18.1721 196.322 18.3595 196.299C18.8323 196.214 19.3137 196.103 19.791 195.992L19.7931 195.992L19.7951 195.991L19.7982 195.991C20.0011 195.944 20.2033 195.897 20.4038 195.852L20.6311 196.591L18.2141 197.442C17.6788 197.625 17.208 197.916 16.9117 198.298C16.6653 198.616 16.5385 199.006 16.598 199.457L16.6563 199.886L15.7983 200L15.2568 195.961L15.1305 194.945C14.864 196.265 14.2557 197.407 13.4039 198.26C12.5464 199.118 11.4432 199.686 10.1946 199.854L10.1659 199.857C8.55934 200.067 7.24117 199.776 6.27204 199.091C5.2872 198.396 4.67048 197.305 4.48643 195.929L2.52798 181.314C2.44773 180.719 2.38319 180.403 2.23898 180.291C2.09418 180.182 1.77096 180.202 1.17613 180.281L-0.162231 180.462L-0.281204 179.575L7.59919 178.519L7.71816 179.405L5.17273 179.747C5.21986 179.865 5.2513 180.011 5.27991 180.222L7.26923 195.063C7.44768 196.4 7.76866 197.394 8.2737 198.01C8.74397 198.584 9.39661 198.827 10.2731 198.709C11.6199 198.529 12.7237 197.718 13.428 196.469C14.1496 195.189 14.4572 193.448 14.1889 191.445L12.6491 179.958C12.57 179.366 12.5004 179.052 12.3506 178.941C12.1979 178.828 11.8668 178.849 11.2692 178.929L9.95945 179.105L9.84105 178.219L10.1553 178.176Z" fill="white"/>
<path d="M-8.20145 178.539L-8.34847 179.422L-9.65261 179.204C-10.248 179.106 -10.5724 179.069 -10.7171 179.17C-10.8602 179.268 -10.9337 179.574 -11.032 180.164L-13.8434 197.058C-13.9416 197.647 -13.9719 197.962 -13.8686 198.101C-13.7631 198.243 -13.4455 198.314 -12.8512 198.412L-11.546 198.63L-11.6924 199.512L-19.5364 198.207L-19.3792 197.268L-18.0757 197.485C-17.478 197.585 -17.1458 197.621 -16.9921 197.519C-16.8433 197.421 -16.7659 197.116 -16.6683 196.529L-13.8658 179.693C-13.7682 179.106 -13.7429 178.794 -13.8523 178.651C-13.964 178.505 -14.2901 178.433 -14.8877 178.334L-16.1918 178.116L-16.0454 177.235L-8.20145 178.539Z" fill="white"/>
<path d="M-16.9382 176.981L-19.1071 184.845L-20.217 184.538L-19.8214 183.097C-19.4039 181.572 -19.5285 180.158 -20.0504 179.023C-20.5885 177.851 -21.5532 176.971 -22.781 176.564L-22.7945 176.56C-23.9348 176.187 -25.0015 176.245 -25.8691 176.672C-26.7293 177.096 -27.4039 177.887 -27.7669 178.984L-27.772 179.001C-28.13 180.093 -27.9459 181.12 -27.4734 182.104C-26.9841 183.124 -26.1811 184.113 -25.3405 185.085C-24.3769 186.199 -23.3955 187.346 -22.7804 188.635C-22.1497 189.956 -21.9067 191.409 -22.4566 193.088C-22.9219 194.51 -23.8871 195.507 -25.1693 196.006C-26.4286 196.496 -27.9908 196.5 -29.6749 195.949C-30.5318 195.668 -31.213 195.278 -31.7641 194.839C-32.3101 194.405 -32.7287 193.92 -33.0637 193.448L-33.0985 193.397C-33.2038 193.819 -33.3186 194.243 -33.4331 194.665C-33.4877 194.866 -33.5423 195.067 -33.5957 195.268L-34.4767 194.979L-32.5026 187.848L-31.392 188.157L-31.7972 189.626C-32.1002 190.737 -32.0817 191.942 -31.6041 192.939C-31.2029 193.777 -30.4684 194.476 -29.3168 194.852C-28.2849 195.191 -27.3999 195.189 -26.7035 194.852C-26.015 194.521 -25.4909 193.856 -25.1665 192.865C-24.8292 191.836 -25.0268 190.892 -25.506 189.976C-26.0054 189.023 -26.8174 188.083 -27.6575 187.114C-28.6457 185.972 -29.6547 184.746 -30.2798 183.358C-30.9117 181.954 -31.1496 180.398 -30.5812 178.621L-30.5649 178.57C-30.0514 177.004 -28.9745 175.909 -27.5397 175.367C-26.1295 174.834 -24.3753 174.839 -22.4808 175.46C-21.6071 175.746 -20.8882 176.125 -20.2462 176.619C-19.6082 177.11 -19.051 177.711 -18.4965 178.444L-18.4943 178.448C-18.4477 178.512 -18.395 178.607 -18.3428 178.719C-18.1998 178.178 -18.0493 177.637 -17.899 177.097C-17.8383 176.878 -17.7773 176.659 -17.7171 176.441L-16.8529 176.67L-16.9382 176.981Z" fill="white"/>
<path d="M-51.9502 170.441L-53.8598 180.886C-53.8784 181.002 -53.9019 181.111 -53.9294 181.211L-53.6505 181.013L-38.9481 171.144L-37.9049 171.811C-40.1149 173.303 -42.3255 174.795 -44.5361 176.286L-44.6189 176.342L-44.6225 176.345C-48.1722 178.74 -51.7219 181.135 -55.2695 183.534L-57.5804 182.059L-57.224 181.501C-57.0798 181.275 -56.9345 180.996 -56.8177 180.731C-56.7061 180.477 -56.6219 180.236 -56.5927 180.074L-53.3784 162.457C-53.256 161.751 -53.1775 161.295 -53.2196 160.99C-53.2549 160.742 -53.3952 160.569 -53.7055 160.37L-54.1668 160.076L-53.687 159.322L-48.5327 162.612L-49.0136 163.365L-50.5467 162.386L-50.5495 162.532C-50.5619 162.848 -50.6174 163.186 -50.6663 163.458L-51.7257 169.252L-46.4974 172.589C-46.5614 172.311 -46.5883 172.02 -46.5816 171.731C-46.5653 171.038 -46.3532 170.332 -45.9817 169.751C-45.237 168.637 -44.3453 167.501 -43.4715 166.387L-43.4703 166.386C-43.06 165.863 -42.6533 165.345 -42.2679 164.836L-41.5463 165.405L-42.4009 166.564C-42.2881 166.608 -42.1641 166.678 -42.0059 166.777L-29.9134 174.495L-30.3943 175.248L-31.5082 174.538C-31.9998 174.224 -32.2916 174.105 -32.4981 174.175C-32.7214 174.249 -32.9459 174.554 -33.2775 175.073L-42.3672 189.315C-42.6888 189.819 -42.8397 190.097 -42.7993 190.267C-42.7584 190.437 -42.4935 190.628 -41.9851 190.952L-40.8712 191.663L-41.351 192.416L-48.0535 188.139L-47.5726 187.386L-46.4587 188.097C-45.948 188.423 -45.6568 188.587 -45.475 188.554C-45.2993 188.521 -45.1091 188.272 -44.7887 187.77L-35.7298 173.577C-35.548 173.291 -35.3213 173.068 -35.0761 172.899C-34.988 172.839 -34.8976 172.786 -34.8061 172.739L-39.1911 169.94C-40.3078 169.227 -41.2893 168.752 -42.1759 168.715C-43.0249 168.681 -43.819 169.065 -44.6085 170.058L-45.1871 170.788L-45.2713 170.913C-45.5934 171.417 -45.7033 171.934 -45.6029 172.416C-45.503 172.896 -45.1932 173.356 -44.677 173.751L-44.0148 174.173L-44.9531 174.906L-51.9502 170.441Z" fill="white"/>
<path d="M-58.3559 152.944L-53.3845 158.735L-54.063 159.317L-54.9244 158.313C-55.3149 157.859 -55.5422 157.628 -55.7229 157.614C-55.9047 157.601 -56.1645 157.794 -56.6202 158.185L-69.0269 168.835C-69.1588 168.949 -69.2346 169.097 -69.2441 169.25C-69.2536 169.397 -69.202 169.556 -69.0814 169.699C-68.7504 170.051 -68.3915 170.396 -68.036 170.739C-67.8876 170.882 -67.7398 171.024 -67.5948 171.166L-68.0909 171.759L-70.1201 170.196C-70.5651 169.848 -71.0651 169.611 -71.5494 169.572C-71.9506 169.538 -72.3462 169.643 -72.6913 169.94L-73.019 170.22L-73.5824 169.564L-70.4899 166.909L-69.7071 166.249C-70.9596 166.746 -72.248 166.858 -73.427 166.608C-74.615 166.357 -75.6924 165.741 -76.5128 164.785C-77.5577 163.569 -78.0386 162.319 -78.0117 161.144C-77.9842 159.914 -77.4023 158.78 -76.3299 157.858L-65.1414 148.255C-64.6869 147.864 -64.4568 147.637 -64.4428 147.457C-64.4293 147.275 -64.6229 147.015 -65.0141 146.56L-65.8928 145.535L-65.215 144.952L-60.0354 150.986L-60.7144 151.569L-62.3867 149.621C-62.4597 149.724 -62.5657 149.83 -62.7273 149.969L-74.0892 159.722C-75.1139 160.601 -75.7732 161.411 -76.014 162.169C-76.2396 162.875 -76.0875 163.556 -75.51 164.228C-74.6139 165.272 -73.3086 165.755 -71.8513 165.648C-70.4012 165.541 -68.7974 164.852 -67.284 163.553L-58.4906 156.004C-58.0371 155.615 -57.8121 155.385 -57.8009 155.2C-57.7902 155.01 -57.9883 154.745 -58.3811 154.287L-59.2419 153.284L-58.5629 152.702L-58.3559 152.944Z" fill="white"/>
<path fill-rule="evenodd" clip-rule="evenodd" d="M-69.532 137.509L-65.7234 145.003L-66.5213 145.409L-67.1201 144.229C-67.3928 143.694 -67.5589 143.417 -67.7312 143.36C-67.9029 143.305 -68.2009 143.431 -68.7362 143.702L-83.7232 151.319C-84.2759 151.599 -84.6138 151.801 -84.7226 152.027C-84.8208 152.231 -84.7417 152.535 -84.4791 153.051L-83.8798 154.23L-84.6777 154.636L-88.4875 147.14C-90.0492 144.066 -90.4089 141.02 -89.6704 138.378C-88.9291 135.727 -87.0863 133.49 -84.2473 132.047C-81.4034 130.602 -78.5044 130.429 -75.9208 131.391C-73.3468 132.349 -71.0943 134.434 -69.532 137.509ZM-69.2727 140.903L-69.1055 140.892L-70.2099 138.719C-71.5712 136.04 -73.3507 134.36 -75.4691 133.704C-77.592 133.047 -80.0762 133.409 -82.8433 134.815L-82.8843 134.835C-85.6171 136.233 -87.3534 138.015 -88.0655 140.104C-88.7804 142.201 -88.4701 144.63 -87.1081 147.309L-86.0049 149.48L-85.8966 149.35C-85.717 149.156 -85.4802 148.988 -85.1508 148.821L-70.1408 141.192C-69.8131 141.025 -69.5376 140.933 -69.2727 140.903Z" fill="white"/>
<path d="M-74.1734 125.627L-81.9011 128.242L-82.2692 127.151L-80.854 126.67C-79.3568 126.16 -78.2575 125.265 -77.6099 124.196C-76.9393 123.09 -76.7525 121.792 -77.1099 120.542C-77.4393 119.39 -78.0858 118.54 -78.9241 118.061C-79.762 117.584 -80.8029 117.47 -81.9224 117.791C-83.0262 118.107 -83.7726 118.835 -84.3231 119.777C-84.8932 120.755 -85.2614 121.974 -85.5952 123.216C-85.9752 124.636 -86.3753 126.09 -87.1003 127.326C-87.841 128.59 -88.9078 129.607 -90.6053 130.093C-92.0424 130.504 -93.4083 130.264 -94.5402 129.483C-95.6541 128.715 -96.534 127.423 -97.0216 125.719C-97.2697 124.853 -97.3286 124.07 -97.2747 123.368C-97.2208 122.669 -97.0547 122.051 -96.8516 121.509L-96.8291 121.454C-97.234 121.602 -97.6439 121.743 -98.0534 121.883L-98.056 121.884L-98.0576 121.885L-98.0601 121.886L-98.0619 121.886L-98.0653 121.888C-98.2625 121.955 -98.4599 122.023 -98.6563 122.092L-98.9116 121.202L-91.9005 118.836L-91.5323 119.928L-92.9757 120.416C-94.0654 120.789 -95.0514 121.48 -95.6097 122.434C-96.08 123.237 -96.2455 124.237 -95.9122 125.403L-95.9077 125.418C-95.6092 126.45 -95.1159 127.173 -94.4543 127.562C-93.7944 127.949 -92.9465 128.011 -91.9392 127.722L-91.9285 127.719C-90.8943 127.42 -90.2265 126.728 -89.7389 125.822C-89.2299 124.873 -88.9067 123.675 -88.575 122.435C-88.1844 120.979 -87.7361 119.457 -86.9353 118.158C-86.1194 116.835 -84.9488 115.756 -83.1301 115.236L-83.0869 115.224C-81.5178 114.789 -80.0257 115.07 -78.7833 115.945C-77.5499 116.814 -76.5701 118.271 -76.0213 120.188L-76.0089 120.231C-75.7659 121.097 -75.6812 121.891 -75.7289 122.686C-75.7777 123.488 -75.9635 124.287 -76.2592 125.157L-76.2609 125.163C-76.2872 125.237 -76.3378 125.334 -76.4023 125.441C-75.786 125.226 -75.1663 125.017 -74.5473 124.809L-74.1638 124.68L-73.8698 125.525L-74.1734 125.627Z" fill="white"/>
<path d="M-81.106 75.5903L-81.3416 76.4522L-83.1699 75.9539C-84.3843 75.6223 -85.1334 75.753 -85.6154 76.1346C-86.1053 76.5212 -86.3601 77.1929 -86.556 77.9129L-86.7743 78.7137L-78.8613 80.8697C-78.5353 80.9567 -78.2541 81.1088 -78.0201 81.2928C-77.9365 81.3579 -77.8585 81.4286 -77.7867 81.5027L-76.4489 76.5936C-76.1082 75.3439 -76.1049 74.3602 -76.4859 73.5959C-76.8647 72.8355 -77.6413 72.2654 -78.8607 71.835L-81.3074 70.968L-81.0201 69.9136L-73.0235 72.6402L-73.3226 73.4859L-74.3821 73.1212L-74.3838 73.1655C-74.395 73.381 -74.4421 73.6139 -74.5067 73.8529L-78.0083 86.6979L-78.8708 86.4622L-78.5229 85.1856C-78.3658 84.6087 -78.3024 84.2905 -78.3916 84.1323C-78.4825 83.974 -78.7884 83.8674 -79.3669 83.7092L-95.8342 79.2216C-96.4128 79.0639 -96.7304 79.001 -96.8881 79.0908C-97.0469 79.1812 -97.1535 79.487 -97.3112 80.0655L-97.6585 81.3411L-98.5205 81.1059L-95.4274 69.757C-95.364 69.5168 -95.2854 69.2923 -95.1872 69.1027L-95.1653 69.0623L-96.2629 68.8383L-96.0918 67.9613L-87.809 69.638L-88.1132 70.753L-90.3741 70.2738C-91.8034 69.9685 -92.8382 70.0802 -93.5879 70.5724C-94.3393 71.0656 -94.8353 71.9607 -95.1765 73.2149L-96.0766 76.5179C-95.9779 76.4909 -95.8752 76.4702 -95.7691 76.4561C-95.4728 76.4157 -95.1546 76.4286 -94.8297 76.5167L-87.8853 78.4107L-87.6671 77.6099C-87.4706 76.8899 -87.3438 76.1829 -87.5632 75.6015C-87.7787 75.0313 -88.3506 74.5415 -89.5632 74.2109L-90.8382 73.8641L-90.6031 73.0022L-81.106 75.5903Z" fill="white"/>
<path d="M-68.3272 60.5062L-73.9197 71.5678L-74.7182 71.1649L-74.1217 69.9848C-73.8591 69.4646 -73.7699 69.1616 -73.8591 68.9641C-73.9556 68.7497 -74.2817 68.5561 -74.831 68.2783L-89.9089 60.6549C-90.4426 60.3845 -90.7344 60.2621 -90.8977 60.3188C-91.0638 60.3755 -91.2265 60.6589 -91.4987 61.1976L-92.0952 62.3788L-92.8937 61.9737L-89.3056 54.8783L-88.5077 55.2824L-89.1042 56.4614C-89.3775 57.0018 -89.5122 57.3093 -89.4605 57.4855C-89.4111 57.6561 -89.1435 57.8216 -88.6126 58.0898L-73.5864 65.688C-73.2845 65.8412 -73.0392 66.0449 -72.8473 66.2716C-72.7783 66.353 -72.7166 66.4366 -72.661 66.523L-71.1941 63.6218C-70.5959 62.4394 -70.2138 61.4024 -70.2632 60.5096C-70.3109 59.6577 -70.7699 58.9091 -71.8457 58.2475L-74.5521 56.5961L-74.0067 55.5175L-66.4209 60.0483L-66.9181 60.8261L-68.1543 60.0927C-68.1874 60.2088 -68.243 60.3401 -68.3272 60.5062Z" fill="white"/>
<path fill-rule="evenodd" clip-rule="evenodd" d="M-64.1544 35.865L-74.0538 48.4412L-74.0331 48.4564C-71.4388 50.499 -68.9837 51.4917 -66.8143 51.5231C-64.6038 51.5551 -62.6785 50.5838 -61.1998 48.7061C-60.0528 47.2499 -59.3385 45.7061 -59.0472 44.1652C-58.7509 42.599 -58.8912 41.0299 -59.4569 39.553L-59.5831 39.2213L-58.4563 38.9284L-58.3559 39.1972C-57.7335 40.8672 -57.5877 42.6422 -57.9328 44.4138C-58.2672 46.1315 -59.0624 47.8481 -60.3289 49.4631L-60.3474 49.4872C-62.2632 51.9216 -64.8014 53.3738 -67.5051 53.7122C-70.1779 54.045 -73.0084 53.2891 -75.5577 51.316L-75.6627 51.2341C-78.189 49.2386 -79.6267 46.7173 -79.9298 44.0501C-80.23 41.4099 -79.4157 38.6349 -77.4472 36.0951L-77.3787 36.007C-75.7463 33.9335 -73.5044 32.6108 -71.1352 32.264C-68.8726 31.9313 -66.4961 32.4851 -64.4243 34.1164L-64.3115 34.2051C-64.059 34.4032 -63.9164 34.6939 -63.8906 34.998C-63.8654 35.2943 -63.9518 35.608 -64.1544 35.865ZM-78.2642 42.3975C-77.969 44.1915 -76.8568 45.9766 -74.9405 47.6954L-66.4439 36.5872C-68.2974 35.1417 -70.2317 34.4408 -71.9977 34.4806C-73.7553 34.521 -75.3546 35.2988 -76.5437 36.8095C-77.9999 38.6602 -78.5689 40.544 -78.2642 42.3975Z" fill="white"/>
<path d="M-66.4467 25.1496L-66.7784 24.6782L-61.6145 21.0419L-61.0988 21.7737L-62.5629 22.8034C-62.2408 22.9302 -61.9108 23.1345 -61.6583 23.3124L-47.0653 32.5788C-47.0215 32.6075 -46.8964 32.6939 -46.7516 32.81C-46.7993 32.6653 -46.8459 32.4986 -46.8863 32.3084L-50.5322 15.9684C-50.563 15.8281 -50.6001 15.7025 -50.6449 15.588C-50.6825 15.4915 -50.728 15.4039 -50.7796 15.3293L-50.7858 15.3197C-50.8963 15.1632 -51.04 15.0711 -51.214 15.065C-51.4306 15.0571 -51.7061 15.1598 -52.0462 15.3994L-54.325 17.0038L-54.8396 16.2726L-49.2061 12.3057L-48.6915 13.0364L-49.2331 13.4185C-49.5198 13.62 -49.6422 13.8203 -49.6629 14.0874C-49.6876 14.4129 -49.5883 14.8618 -49.4429 15.4982L-44.8061 35.3661L-46.3386 36.6248L-63.5988 25.4644C-64.1628 25.1002 -64.5511 24.8556 -64.8631 24.7748C-65.1201 24.7085 -65.3508 24.7669 -65.6521 24.9785L-66.2632 25.4094L-66.4467 25.1496Z" fill="white"/>
<path fill-rule="evenodd" clip-rule="evenodd" d="M-23.6497 12.6581L-38.5424 18.5156L-38.5322 18.5397C-37.3039 21.6631 -35.6507 23.7776 -33.7562 24.8864C-31.8881 25.979 -29.7691 26.0935 -27.5801 25.2321L-27.5481 25.2198C-25.8393 24.543 -24.4544 23.5761 -23.4303 22.3994C-22.3831 21.1968 -21.7109 19.772 -21.4544 18.2136L-21.396 17.8618L-20.2749 18.1772L-20.3242 18.4589C-20.6301 20.2164 -21.4011 21.8225 -22.5941 23.1788C-23.7546 24.4987 -25.3163 25.5817 -27.2394 26.3382L-27.2961 26.36C-30.1603 27.4711 -33.0609 27.438 -35.5486 26.3718C-38.0536 25.2972 -40.1349 23.1799 -41.3336 20.1339L-41.356 20.0773C-42.5148 17.0908 -42.4784 14.2041 -41.3987 11.7597C-40.3123 9.30126 -38.172 7.29736 -35.1344 6.10264C-32.7377 5.16101 -30.2018 5.12902 -28.0178 5.9601C-25.8259 6.79455 -23.9881 8.49544 -22.9982 11.0128L-22.9454 11.1464C-22.8287 11.4443 -22.8523 11.7653 -22.983 12.0409C-23.1104 12.3085 -23.3405 12.5336 -23.6413 12.6542L-23.6497 12.6581ZM-39.1248 11.1716C-39.7758 12.8703 -39.7169 14.9729 -38.9312 17.4241L-25.9892 12.1245C-26.859 9.94154 -28.1755 8.35964 -29.7198 7.5033C-31.2568 6.6509 -33.0318 6.51509 -34.8213 7.21879C-37.011 8.08017 -38.4526 9.41798 -39.1248 11.1716Z" fill="white"/>
<path d="M-17.6587 22.8371L-17.7777 21.951L-16.4674 21.7753C-15.8725 21.6957 -15.5555 21.6306 -15.4455 21.4858C-15.3349 21.3421 -15.3557 21.0178 -15.4348 20.4241L-17.6088 4.20872C-17.6329 4.04261 -17.7126 3.90288 -17.8299 3.81422C-17.9483 3.72275 -18.1116 3.67842 -18.2996 3.7003C-18.7726 3.78531 -19.2556 3.89736 -19.7342 4.00839C-19.9379 4.05566 -20.1411 4.10281 -20.3422 4.14755L-20.5695 3.4085L-18.1525 2.55889C-17.6166 2.37483 -17.1464 2.08415 -16.8501 1.70143C-16.6043 1.38382 -16.4769 0.993814 -16.5369 0.54264L-16.5931 0.115027L-15.7367 0L-15.1952 4.03869L-15.0689 5.05438C-14.803 3.73453 -14.1941 2.59313 -13.3423 1.74017C-12.4848 0.881587 -11.3816 0.31312 -10.1341 0.145894C-8.5432 -0.0673477 -7.23233 0.210425 -6.26208 0.872597C-5.2475 1.56451 -4.61282 2.67112 -4.42539 4.07178L-2.46581 18.6861C-2.38668 19.2804 -2.32159 19.598 -2.17682 19.7075C-2.03259 19.8186 -1.70937 19.7978 -1.11454 19.7176L0.224403 19.5386L0.343376 20.4241L-7.53703 21.4802L-7.65599 20.5941L-5.11057 20.2535C-5.15771 20.1351 -5.19025 19.9892 -5.21774 19.7787L-7.20763 4.93711C-7.38663 3.60098 -7.70707 2.60604 -8.21211 1.98932C-8.68181 1.41581 -9.33499 1.17339 -10.2121 1.28955C-11.5578 1.47024 -12.6627 2.28112 -13.3664 3.53083C-14.0886 4.81196 -14.3956 6.55269 -14.1273 8.55548L-12.5881 20.0425C-12.5084 20.6339 -12.4393 20.9482 -12.2889 21.0582C-12.1357 21.1721 -11.8052 21.1502 -11.2076 21.0705L-9.89729 20.8954L-9.77888 21.781L-17.6587 22.8371Z" fill="white"/>
<path d="M15.6782 22.7142L8.14914 21.4611L8.29561 20.579L9.59975 20.7956C10.1946 20.8943 10.5195 20.9302 10.6643 20.8309C10.8068 20.7327 10.8803 20.4258 10.9785 19.8354L13.7899 2.94273C13.8881 2.35295 13.9184 2.03869 13.8152 1.8984C13.7102 1.75755 13.3921 1.68628 12.7984 1.58752L11.4931 1.37092L11.6395 0.48877L19.4835 1.79291L19.3264 2.7323L18.0222 2.51512C17.4246 2.41636 17.0929 2.37933 16.9392 2.4809C16.7905 2.57966 16.7125 2.88437 16.6154 3.46966L13.8129 20.3073C13.7153 20.8943 13.69 21.2069 13.7995 21.3494C13.9111 21.4948 14.2372 21.5672 14.8343 21.6665L16.139 21.8837L15.9925 22.7658L15.6782 22.7142Z" fill="white"/>
<path d="M19.0548 15.4415L20.1647 15.7496L19.7691 17.1901C19.3511 18.7159 19.4756 20.1283 19.997 21.2647C20.5374 22.4398 21.507 23.323 22.741 23.7276C23.8808 24.1014 24.9481 24.0424 25.8156 23.616C26.6804 23.1895 27.3572 22.3921 27.7191 21.2877C28.0771 20.1957 27.8931 19.1682 27.4206 18.1834C26.9307 17.1632 26.1282 16.1744 25.2876 15.2019C24.3241 14.0885 23.3426 12.9404 22.7281 11.652C22.0974 10.3304 21.8544 8.87814 22.4043 7.19914C22.8701 5.77716 23.8359 4.78109 25.1176 4.28166C26.3774 3.7912 27.9391 3.78728 29.6231 4.33946C30.48 4.61948 31.1613 5.01005 31.7123 5.44832C32.2589 5.88434 32.6775 6.36919 33.0131 6.84169L33.0468 6.88996C33.1537 6.46444 33.2691 6.03841 33.3844 5.61256L33.3849 5.61058L33.3854 5.60882C33.4385 5.41254 33.4917 5.21629 33.544 5.02016L34.425 5.30859L32.4508 12.4393L31.3403 12.1318L31.7449 10.6627C32.0485 9.55043 32.0294 8.34617 31.5524 7.35011C31.1512 6.51005 30.416 5.81139 29.2651 5.43485C28.2365 5.09759 27.3555 5.10039 26.6591 5.43148C25.9677 5.76201 25.4402 6.42812 25.1147 7.42137L25.1086 7.43988C24.7797 8.46344 24.9778 9.40115 25.4543 10.3108C25.9531 11.2642 26.7646 12.2042 27.6052 13.1744C28.5934 14.3158 29.6024 15.542 30.2269 16.9303C30.865 18.3472 31.1007 19.9207 30.512 21.7187C29.9986 23.2843 28.9217 24.378 27.4862 24.9207C26.0755 25.4538 24.3213 25.4487 22.4268 24.8281C21.553 24.5413 20.8348 24.1625 20.1928 23.6676C19.5548 23.176 18.9981 22.575 18.4437 21.8427L18.4414 21.8388C18.3943 21.7753 18.3415 21.6794 18.2893 21.5672C18.1577 22.0673 18.019 22.5667 17.8802 23.0661L17.8789 23.0708L17.8777 23.0755C17.8062 23.3328 17.7347 23.5902 17.6642 23.8477L16.8 23.616L19.0548 15.4415Z" fill="white"/>
<path d="M52.069 29.8465L53.9787 19.4011C53.9972 19.2855 54.0208 19.1772 54.0483 19.0762L53.7699 19.2731L39.0675 29.1417L38.0243 28.4762L55.3889 16.7535L57.6998 18.2277L57.3434 18.7855C57.1987 19.0122 57.0533 19.29 56.9371 19.5554C56.8249 19.8102 56.7408 20.0503 56.7121 20.2131L53.4972 37.8296L53.4958 37.8379C53.3749 38.5382 53.2965 38.9925 53.3389 39.296C53.3737 39.5446 53.5141 39.718 53.8249 39.9166L54.2862 40.2112L53.8064 40.9649L48.6522 37.6748L49.1331 36.9222L50.6662 37.9009L50.6684 37.7544C50.6807 37.4391 50.7368 37.1001 50.7851 36.8291L51.8446 31.0351L46.6162 27.6984C46.6802 27.9767 46.7077 28.2663 46.701 28.5559C46.6841 29.2495 46.472 29.9543 46.1005 30.5368C45.3598 31.643 44.4772 32.7681 43.6108 33.8726C43.1933 34.4048 42.7796 34.9321 42.3873 35.4503L41.6657 34.8807L42.5198 33.7225C42.407 33.6787 42.2824 33.6091 42.1253 33.5093L30.0328 25.7921L30.5137 25.0385L31.6276 25.7489C32.1192 26.0632 32.411 26.1821 32.6169 26.112C32.8403 26.0374 33.0653 25.7332 33.3964 25.2141L42.4861 10.9719C42.8076 10.4674 42.9591 10.1901 42.9187 10.0207C42.8778 9.84895 42.6129 9.65872 42.1045 9.33493L40.9906 8.62338L41.4704 7.8703L48.1729 12.1475L47.692 12.9006L46.5775 12.1896C46.0674 11.8641 45.7762 11.6997 45.5944 11.7328C45.4187 11.7659 45.2279 12.0145 44.9081 12.5162L35.8492 26.7108C35.6668 26.9958 35.4401 27.2186 35.1955 27.3875C35.1074 27.4476 35.0165 27.5003 34.925 27.548L39.3105 30.3465C40.4266 31.0592 41.4081 31.5351 42.2953 31.5716C43.1449 31.6058 43.9378 31.222 44.7279 30.2287L45.3076 29.4975L45.3907 29.3735C45.7128 28.8701 45.8227 28.3533 45.7223 27.8713C45.6218 27.3909 45.3121 26.9313 44.7958 26.5362L44.1342 26.1143L45.0725 25.3808L52.069 29.8465Z" fill="white"/>
<path d="M58.3603 47.343L53.3895 41.5518L54.0679 40.9693L54.9293 41.9733C55.3199 42.4284 55.5466 42.6584 55.7273 42.6719C55.9091 42.6859 56.1689 42.4923 56.6246 42.1018L69.0313 31.452C69.1637 31.3381 69.2395 31.1905 69.249 31.0368C69.258 30.8897 69.2064 30.7309 69.0863 30.5878C68.7612 30.2421 68.4089 29.9029 68.0596 29.5666C67.9049 29.4176 67.7507 29.2691 67.5998 29.121L68.0958 28.5273L70.125 30.0912C70.57 30.4386 71.07 30.6754 71.5543 30.7152C71.9555 30.7478 72.3512 30.6428 72.6957 30.3471L73.024 30.0671L73.5879 30.7231L70.4948 33.3774L69.712 34.0367C70.9639 33.5407 72.2529 33.429 73.4319 33.6787C74.6193 33.9296 75.6974 34.5457 76.5178 35.5014C77.5621 36.718 78.0436 37.9683 78.0166 39.1428C77.9891 40.3723 77.4066 41.5075 76.3343 42.4284L65.1464 52.0321C64.6913 52.4227 64.4612 52.6494 64.4477 52.8301C64.4337 53.0119 64.6273 53.2712 65.0184 53.7263L65.8978 54.7509L65.2199 55.3346L60.0404 49.3004L60.7194 48.7179L62.3916 50.6674C62.4657 50.5624 62.5712 50.4547 62.7317 50.3177L74.0941 40.5647C75.1182 39.686 75.7776 38.8751 76.0189 38.1181C76.2439 37.411 76.0913 36.7303 75.515 36.058C74.6182 35.0137 73.313 34.5311 71.8556 34.6389C70.4056 34.7449 68.8024 35.4352 67.2889 36.7342L58.4949 44.2824C58.0415 44.6713 57.8165 44.9009 57.8058 45.0866C57.7946 45.2757 57.9927 45.5423 58.3861 45.9996L59.2469 47.003L58.5679 47.5843L58.3603 47.343Z" fill="white"/>
<path fill-rule="evenodd" clip-rule="evenodd" d="M69.3646 62.7778L65.556 55.284L66.354 54.8789L66.9522 56.0573C67.2249 56.5927 67.391 56.871 67.5633 56.9265C67.7361 56.9832 68.0341 56.857 68.5701 56.5843L83.5547 48.9687C84.1075 48.687 84.4464 48.4861 84.5553 48.26C84.6535 48.0552 84.5738 47.7516 84.3112 47.2342L83.713 46.0563L84.5104 45.6517L88.3201 53.1477C89.8813 56.2206 90.241 59.2677 89.5025 61.9086C88.7618 64.5612 86.9183 66.798 84.08 68.2402C81.236 69.6852 78.3371 69.8586 75.7535 68.8962C73.1794 67.9383 70.9269 65.8524 69.3646 62.7778ZM69.1054 59.3839L68.9376 59.3945L70.0425 61.568C71.4039 64.2464 73.1833 65.9265 75.3017 66.5825C77.424 67.2402 79.9089 66.8788 82.6759 65.472L82.7018 65.459C85.443 64.0601 87.1849 62.2756 87.8981 60.183C88.6125 58.0859 88.3022 55.6572 86.9402 52.9782L85.837 50.8071L85.7292 50.9361C85.5491 51.1326 85.3123 51.2992 84.9846 51.4659L69.9724 59.0949C69.6435 59.261 69.3691 59.3536 69.1054 59.3839Z" fill="white"/>
<path d="M82.2607 72.3916L82.5755 73.5011L81.1373 73.9141C79.6187 74.3495 78.4773 75.1907 77.7793 76.2272C77.0559 77.3013 76.8062 78.588 77.1025 79.8529C77.3769 81.0201 77.9813 81.9005 78.7955 82.4191C79.6092 82.9359 80.6429 83.0986 81.777 82.8332C82.8954 82.57 83.6759 81.8798 84.2713 80.9634C84.8881 80.0139 85.3145 78.8147 85.7079 77.5908C86.1563 76.1907 86.6271 74.7558 87.4077 73.5589C88.2085 72.3322 89.324 71.367 91.0429 70.9646C92.4991 70.6229 93.8515 70.9287 94.9441 71.7631C96.0198 72.5847 96.8358 73.9163 97.2409 75.6424C97.4458 76.5179 97.467 77.3018 97.3795 78.0016C97.292 78.698 97.0956 79.3074 96.8672 79.8377L96.8425 79.8933C97.2822 79.7558 97.7278 79.6267 98.1722 79.4979C98.3482 79.4468 98.5241 79.3959 98.6994 79.3445L98.9115 80.2473L91.7937 82.2715L91.4789 81.1615L92.9441 80.7429C94.0513 80.4247 95.0698 79.7827 95.673 78.8557C96.1803 78.0757 96.3947 77.0852 96.118 75.9057C95.8694 74.8479 95.407 74.0948 94.7578 73.6739C94.1181 73.2592 93.2769 73.1576 92.2612 73.3956C91.2062 73.643 90.5031 74.3024 89.9716 75.1874C89.4155 76.1133 89.0356 77.2928 88.6456 78.5134C88.1843 79.9522 87.6624 81.4522 86.8022 82.7081C85.9234 83.9909 84.7023 85.0116 82.8606 85.4432C81.2573 85.8192 79.7629 85.4679 78.5525 84.5245C77.3617 83.5969 76.4532 82.0958 75.9987 80.1553C75.7888 79.2608 75.7389 78.45 75.827 77.6458C75.9145 76.8445 76.1379 76.056 76.4757 75.2014L76.4779 75.1975C76.5082 75.1234 76.5626 75.0285 76.6317 74.9264C76.1058 75.0828 75.5773 75.2327 75.0491 75.3824L75.0428 75.3842C74.8152 75.4487 74.5867 75.5135 74.3595 75.5785L74.1064 74.7193L82.2607 72.3916Z" fill="white"/>
<path d="M-86.1009 100.08C-86.1009 98.1596 -87.6575 96.603 -89.5773 96.603C-91.4976 96.603 -93.0537 98.1596 -93.0537 100.08C-93.0537 101.999 -91.4976 103.556 -89.5773 103.556C-87.6575 103.556 -86.1009 101.999 -86.1009 100.08Z" fill="white"/>
<path d="M89.9273 96.603C91.847 96.603 93.4037 98.1596 93.4037 100.08C93.4037 101.999 91.847 103.556 89.9273 103.556C88.007 103.556 86.4509 101.999 86.4509 100.08C86.4509 98.1596 88.007 96.603 89.9273 96.603Z" fill="white"/>
</svg>
