<svg width="108" height="26" viewBox="0 0 108 26" fill="none" xmlns="http://www.w3.org/2000/svg">
<path d="M0.420898 22.9591V23.9372H8.77536V22.9591H7.37185C6.74323 22.9591 6.39829 22.941 6.26336 22.8149C6.13339 22.6935 6.10683 22.3708 6.10683 21.7542V3.9131C6.10683 3.29652 6.13339 2.97353 6.26336 2.85206C6.39829 2.72669 6.74323 2.7079 7.37185 2.7079H8.77536V1.66954H0.420898V2.64771H1.82441C2.44985 2.64771 2.787 2.66542 2.91414 2.78866C3.03774 2.90766 3.0597 3.23383 3.0597 3.85325V21.7542C3.0597 22.3737 3.0381 22.6991 2.91414 22.8192C2.78736 22.9414 2.4502 22.9591 1.82441 22.9591H0.420898Z" fill="white"/>
<path d="M10.6456 15.8427L9.4008 15.9008L9.82402 24.7957L10.7994 24.7405C10.7607 23.9305 10.7271 23.1188 10.6811 22.3092C10.7561 22.3864 10.8266 22.4505 10.8851 22.4916L10.8893 22.4941C11.6815 23.0441 12.432 23.4613 13.2246 23.7407C14.0257 24.0244 14.8654 24.1671 15.8272 24.1671C17.9157 24.1671 19.6648 23.5994 20.8969 22.607C22.1513 21.5963 22.8682 20.1545 22.8682 18.4259C22.8682 16.443 22.1195 14.9524 21.0205 13.7483C19.946 12.5707 18.5436 11.68 17.1883 10.8665C16.0401 10.1784 14.9306 9.51013 14.1238 8.72568C13.3542 7.97665 12.8531 7.10755 12.8531 5.98205C12.8531 4.89728 13.1548 4.07068 13.7257 3.52246C14.3044 2.96679 15.177 2.67782 16.3071 2.67782C17.5686 2.67782 18.5202 3.12971 19.1878 3.8281C19.9829 4.65895 20.3916 5.84464 20.4521 7.04309L20.5286 8.6552L21.7735 8.59711L21.4115 0.830186H20.4008C20.4387 1.49422 20.4691 2.16181 20.5138 2.82479L20.501 2.81628C20.0144 2.45646 19.44 2.11011 18.7504 1.85299C18.0591 1.59623 17.2531 1.42977 16.3071 1.42977C14.4496 1.42977 12.8945 1.94471 11.7988 2.84567C10.6832 3.76328 10.0461 5.07223 10.0461 6.64184C10.0461 8.49335 10.7632 9.86322 11.8232 10.9738C12.8563 12.0568 14.2059 12.8792 15.5262 13.6714C16.6758 14.3627 17.7924 15.0824 18.6105 15.9355C19.3964 16.7557 19.911 17.7109 19.911 18.9058C19.911 20.117 19.5009 21.1249 18.7844 21.8251C18.0655 22.5263 17.0303 22.929 15.7823 22.929C14.4294 22.929 13.1839 22.3701 12.2691 21.3824C11.3848 20.4287 10.8036 19.0708 10.7228 17.4244L10.6456 15.8427Z" fill="white"/>
<path d="M40.9569 4.82575L45.1359 15.0732H36.4768L36.0469 16.2911H36.9011C37.5722 16.3485 38.0971 16.5762 38.4502 16.9378C38.805 17.3018 38.9966 17.8139 38.9966 18.4355L38.9938 18.5892C38.9655 18.9125 38.9283 19.2359 38.8946 19.5592C38.7583 20.8703 38.2788 21.6494 37.517 22.0932C36.7201 22.5575 35.5907 22.6892 34.2081 22.6892H28.807C28.8544 22.6053 28.8976 22.5174 28.9366 22.4257C29.0595 22.1357 29.1352 21.8084 29.1352 21.4546V3.85325C29.1352 3.23702 29.1618 2.91333 29.2918 2.79221C29.4267 2.66648 29.7716 2.64771 30.4003 2.64771H31.8038V1.66954H23.4493V2.64771H24.8528C25.4783 2.64771 25.8154 2.66542 25.9426 2.78866C26.0662 2.90766 26.0881 3.23383 26.0881 3.85325V21.5145C26.0881 22.1548 26.0619 22.5465 25.9121 22.7321C25.775 22.9024 25.4563 22.9591 24.8528 22.9591H23.4493V23.9372H38.4661C38.6488 23.9372 38.7905 23.9287 38.9113 23.9071L38.8096 25.3995L39.8091 25.4998C39.9823 23.3802 40.2305 21.1738 40.3198 19.0602C40.3198 18.3367 40.1083 17.5919 39.7315 16.9675C39.5824 16.7214 39.4071 16.4929 39.2077 16.2911H45.625L47.9447 21.9781C48.0541 22.2437 48.1957 22.5741 48.3629 22.862L48.4217 22.9591H46.538V23.9372H52.9733V22.9591H52.3794C51.9997 22.9591 51.7826 22.8875 51.6172 22.6945C51.4108 22.4526 51.2237 22.0089 50.9379 21.3218L43.8602 3.98853C43.7975 3.83518 43.7373 3.57807 43.6913 3.28802C43.6459 2.99655 43.618 2.67178 43.618 2.38386V1.66954H40.7189L31.9912 21.8084H33.3295L40.7405 4.83106L40.8534 4.55553C40.8828 4.64266 40.9172 4.73261 40.9569 4.82575Z" fill="white"/>
<path d="M53.0746 22.9591V23.9372H61.429V22.9591H60.0255C59.4001 22.9591 59.0576 22.9361 58.9209 22.8043C58.7874 22.6754 58.7605 22.3435 58.7605 21.7245V9.61035C58.7605 7.52758 59.3031 5.79116 60.2026 4.57146C61.1039 3.35034 62.3697 2.64771 63.8036 2.64771C64.7216 2.64771 65.3591 2.98663 65.7614 3.63934C66.1956 4.34198 66.3879 5.41364 66.3879 6.82175V22.4739C66.3879 22.6821 66.3992 22.8334 66.4279 22.9591H63.7491V23.9372H72.1039V22.9591H70.6703C70.0484 22.9591 69.7144 22.9368 69.5862 22.8086C69.4577 22.68 69.435 22.346 69.435 21.7245V6.31212C69.435 4.82857 68.9282 3.58975 67.9677 2.72632C67.0501 1.90115 65.7256 1.42977 64.0434 1.42977C62.7235 1.42977 61.4977 1.86644 60.4859 2.64062C59.5113 3.38646 58.7368 4.44609 58.271 5.72777L58.2806 4.7829V0.500122H57.3325V0.974683C57.3325 1.44429 57.1498 1.82465 56.8555 2.1147C56.4978 2.46743 55.9729 2.70154 55.3957 2.81735L52.754 3.36592L52.8943 4.20278C53.6019 4.14328 54.3817 4.03811 55.078 4.02252C55.2731 4.02252 55.4325 4.08698 55.5402 4.19216C55.6499 4.29912 55.7133 4.45494 55.7133 4.63273V21.7245C55.7133 22.346 55.6907 22.68 55.5628 22.8089C55.4339 22.9368 55.0999 22.9591 54.4781 22.9591H53.0746Z" fill="white"/>
<path d="M95.3834 15.8427L94.1386 15.9008L94.5618 24.7957L95.5371 24.7405C95.4985 23.9305 95.4649 23.1188 95.4188 22.3092C95.4939 22.3864 95.5644 22.4505 95.6228 22.4916L95.6271 22.4941C96.4193 23.0441 97.1698 23.4613 97.9624 23.7407C98.7635 24.0244 99.6031 24.1671 100.565 24.1671C102.653 24.1671 104.403 23.5994 105.635 22.607C106.889 21.5963 107.606 20.1545 107.606 18.4259C107.606 16.443 106.857 14.9524 105.758 13.7483C104.684 12.5707 103.281 11.68 101.926 10.8665C100.778 10.1784 99.6683 9.51013 98.8615 8.72568C98.092 7.97665 97.5909 7.10755 97.5909 5.98205C97.5909 4.89728 97.8926 4.07068 98.4635 3.52246C99.0422 2.96679 99.9148 2.67782 101.045 2.67782C102.306 2.67782 103.258 3.12971 103.926 3.8281C104.721 4.65895 105.129 5.84464 105.19 7.04309L105.266 8.6552L106.511 8.59711L106.149 0.830186H105.139C105.176 1.49422 105.207 2.16181 105.252 2.82479L105.239 2.81628C104.752 2.45646 104.178 2.11011 103.488 1.85299C102.797 1.59623 101.991 1.42977 101.045 1.42977C99.1873 1.42977 97.6323 1.94471 96.5365 2.84567C95.4209 3.76328 94.7839 5.07223 94.7839 6.64184C94.7839 8.49335 95.501 9.86322 96.561 10.9738C97.594 12.0568 98.9437 12.8792 100.264 13.6714C101.414 14.3627 102.53 15.0824 103.348 15.9355C104.134 16.7557 104.649 17.7109 104.649 18.9058C104.649 20.117 104.239 21.1249 103.522 21.8251C102.803 22.5263 101.768 22.929 100.52 22.929C99.1672 22.929 97.9216 22.3701 97.0069 21.3824C96.1225 20.4287 95.5414 19.0708 95.4606 17.4244L95.3834 15.8427Z" fill="white"/>
<path fill-rule="evenodd" clip-rule="evenodd" d="M80.985 23.9372H72.1751V22.9591H73.5786C74.2005 22.9591 74.5344 22.9368 74.6633 22.8089C74.7912 22.68 74.8139 22.346 74.8139 21.7245V4.1532C74.8139 3.50865 74.7869 3.10102 74.6322 2.89809C74.493 2.7157 74.1771 2.64771 73.5786 2.64771H72.1751V1.66954H80.985C84.5945 1.66954 87.6087 2.78016 89.7255 4.72339C91.8493 6.67371 93.0634 9.45488 93.0634 12.7889C93.0634 16.1303 91.8493 18.9189 89.7248 20.8749C87.6087 22.8234 84.5945 23.9372 80.985 23.9372ZM77.6616 22.6892L77.7176 22.5557C77.816 22.2922 77.861 21.9901 77.861 21.6044V4.00305C77.861 3.61738 77.816 3.31527 77.7176 3.05108L77.6616 2.91758H80.1754C83.3125 2.91758 85.7161 3.77569 87.3264 5.42993C88.9396 7.08631 89.7765 9.56007 89.7765 12.7889C89.7765 16.0272 88.9396 18.5084 87.3268 20.1698C85.7165 21.829 83.3121 22.6892 80.1754 22.6892H77.6616Z" fill="white"/>
</svg>
