<svg width="117" height="26" viewBox="0 0 117 26" fill="none" xmlns="http://www.w3.org/2000/svg">
<path fill-rule="evenodd" clip-rule="evenodd" d="M10.3933 17.7603H9.41515V15.7573C9.41515 14.449 9.08226 13.7357 8.57086 13.3589C8.05025 12.975 7.30724 12.9028 6.53094 12.9028H5.68591V21.4545C5.68591 21.8083 5.61013 22.1355 5.48724 22.4256C5.44828 22.5173 5.40507 22.6052 5.35761 22.6891H10.6391C11.9902 22.6891 12.9786 22.4249 13.6384 21.8359C14.2964 21.2477 14.6563 20.3127 14.754 18.9705L14.9587 16.2425H16.143L15.5873 25.1009L14.612 25.0293L14.6867 23.8684L14.6679 23.8727C14.4491 23.9201 14.199 23.9371 13.9373 23.9371H0V22.959H1.4035C2.0254 22.959 2.35937 22.9366 2.48829 22.8088C2.61614 22.6799 2.6388 22.3459 2.6388 21.7244V3.88321C2.6388 3.26097 2.61613 2.92771 2.48758 2.79916C2.35902 2.6706 2.0254 2.64759 1.4035 2.64759H0V1.66941H12.3181C12.5791 1.66941 12.8288 1.68747 13.0473 1.73386L13.0672 1.73812L12.9924 0.577921L13.9667 0.5046L14.555 9.36444H13.3037L13.1649 6.93105C13.0806 5.4128 12.6854 4.40417 11.987 3.78724C11.2876 3.16889 10.2538 2.91746 8.89985 2.91746H5.35761C5.40507 3.00139 5.44828 3.08922 5.48724 3.18094C5.61013 3.47206 5.68591 3.79857 5.68591 4.15308V11.6548H6.53094C7.30865 11.6548 8.05272 11.5896 8.57226 11.2128C9.08259 10.8427 9.41515 10.1368 9.41515 8.83073V7.42652H10.3933V17.7603ZM29.5296 23.9371H16.5517V22.959H17.9552C18.5587 22.959 18.8774 22.9023 19.0145 22.7319C19.1643 22.5464 19.1905 22.1547 19.1905 21.5144V3.85312C19.1905 3.23371 19.1685 2.90753 19.0449 2.78854C18.9181 2.66565 18.5806 2.64759 17.9552 2.64759H16.5517V1.66941H24.9062V2.64759H23.5026C22.8744 2.64759 22.5291 2.66636 22.3941 2.79208C22.2642 2.9132 22.2376 3.2369 22.2376 3.85312V21.4545C22.2376 21.8083 22.1618 22.1355 22.0389 22.4256C22 22.5173 21.9568 22.6052 21.9093 22.6891H25.2716C26.6546 22.6891 27.7992 22.5573 28.6028 22.093C29.3699 21.65 29.8476 20.8741 29.9564 19.5658L30.222 16.2425H31.5281L30.8757 25.5L29.8731 25.3994L29.9744 23.907C29.854 23.9286 29.712 23.9371 29.5296 23.9371ZM52.4684 12.243H35.7609V12.249C35.7609 15.6953 36.5323 18.3493 37.906 20.1484C39.3035 21.979 41.341 22.9288 43.8324 22.9288C45.7664 22.9288 47.493 22.5187 48.9443 21.763C50.4204 20.9955 51.616 19.869 52.4603 18.4541L52.6618 18.1163L53.6655 18.8773L53.4997 19.1497C52.529 20.743 51.1623 22.0123 49.478 22.8775C47.8393 23.7193 45.9031 24.1769 43.7425 24.1769C40.4612 24.1769 37.5933 23.0029 35.5591 20.9516C33.5723 18.9489 32.3841 16.1149 32.3841 12.7289C32.3841 9.34708 33.5287 6.52414 35.5314 4.54301C37.5338 2.56224 40.3862 1.42965 43.8027 1.42965C46.5658 1.42965 49.1061 2.41916 50.9279 4.14459C52.6678 5.79176 53.7519 8.10719 53.7519 10.8696V11.0198C53.7519 11.3604 53.6038 11.6693 53.3659 11.8917C53.1332 12.1081 52.8148 12.243 52.4684 12.243ZM37.9963 4.86882C36.72 6.26348 35.9755 8.32112 35.7999 10.9914L50.3747 10.7881C50.3602 8.34484 49.6866 6.31483 48.5186 4.89822C47.3541 3.48551 45.6861 2.67769 43.6826 2.67769C41.2262 2.67769 39.3163 3.42565 37.9963 4.86882ZM53.2837 1.66941H59.929V2.64759H58.0754C58.2687 2.94968 58.4228 3.31551 58.528 3.613L65.4184 20.2996C65.4361 20.3407 65.4814 20.4608 65.5296 20.6212C65.5724 20.4866 65.6266 20.3389 65.695 20.1789L72.4118 4.01709C72.4713 3.87897 72.5156 3.75077 72.5439 3.63212C72.5701 3.52305 72.584 3.4175 72.584 3.31799C72.584 3.11612 72.5138 2.95109 72.3612 2.84343C72.1834 2.71876 71.8948 2.64759 71.479 2.64759H68.5463V1.66941H75.7912V2.64759H75.0772C74.7167 2.64759 74.496 2.7425 74.3228 2.95251C74.1075 3.21387 73.9219 3.65621 73.6652 4.28413L65.6666 24.0692L63.5715 24.2243L55.5287 4.28413C55.2673 3.63532 55.0828 3.19404 54.8671 2.93976C54.6929 2.73471 54.4662 2.64759 54.0876 2.64759H53.2837V1.66941ZM95.2873 12.243H78.5798V12.249C78.5798 15.6953 79.3511 18.3493 80.7249 20.1484C82.1223 21.979 84.1598 22.9288 86.6513 22.9288C88.5853 22.9288 90.3118 22.5187 91.7631 21.763C93.2392 20.9955 94.4348 19.869 95.2791 18.4541L95.4806 18.1163L96.4843 18.8773L96.3186 19.1497C95.3478 20.743 93.9811 22.0123 92.2968 22.8775C90.6581 23.7193 88.722 24.1769 86.5613 24.1769C83.2801 24.1769 80.4121 23.0029 78.3779 20.9516C76.3911 18.9489 75.2029 16.1149 75.2029 12.7289C75.2029 9.34708 76.3475 6.52414 78.3503 4.54301C80.3526 2.56224 83.205 1.42965 86.6215 1.42965C89.3846 1.42965 91.9249 2.41916 93.7467 4.14459C95.4866 5.79176 96.5707 8.10719 96.5707 10.8696V11.0198C96.5707 11.3604 96.4227 11.6693 96.1847 11.8917C95.952 12.1081 95.6336 12.243 95.2873 12.243ZM80.8152 4.86882C79.5388 6.26348 78.7944 8.32112 78.6187 10.9914L93.1935 10.7881C93.179 8.34484 92.5054 6.31483 91.3374 4.89822C90.1729 3.48551 88.5049 2.67769 86.5015 2.67769C84.0451 2.67769 82.1351 3.42565 80.8152 4.86882ZM97.3916 23.9371V22.959H98.7952C99.417 22.959 99.751 22.9366 99.8799 22.8088C100.008 22.6799 100.03 22.3459 100.03 21.7244V4.63261C100.03 4.45482 99.967 4.299 99.8572 4.19204C99.7496 4.08686 99.5902 4.0224 99.3951 4.0224C98.6988 4.03798 97.919 4.14316 97.2114 4.20266L97.0711 3.3658L99.7128 2.81723C100.29 2.70142 100.815 2.46731 101.173 2.11458C101.467 1.82453 101.65 1.44417 101.65 0.974561V0.5H102.598V4.78277L102.588 5.72764C103.054 4.44597 103.828 3.38634 104.803 2.6405C105.815 1.86632 107.041 1.42965 108.36 1.42965C110.043 1.42965 111.367 1.90102 112.285 2.7262C113.245 3.58962 113.752 4.82845 113.752 6.312V21.7244C113.752 22.3459 113.775 22.6799 113.903 22.8084C114.032 22.9366 114.365 22.959 114.987 22.959H116.421V23.9371H108.066V22.959H110.745C110.716 22.8332 110.705 22.682 110.705 22.4738V6.82163C110.705 5.41351 110.513 4.34185 110.078 3.63921C109.676 2.98651 109.039 2.64759 108.121 2.64759C106.687 2.64759 105.421 3.35022 104.52 4.57134C103.62 5.79104 103.078 7.52746 103.078 9.61023V21.7244C103.078 22.3434 103.104 22.6753 103.238 22.8042C103.375 22.9359 103.717 22.959 104.343 22.959H105.746V23.9371H97.3916Z" fill="white"/>
</svg>
